<svg width="1202" height="196" viewBox="0 0 1202 196" fill="none" xmlns="http://www.w3.org/2000/svg">
<path d="M82.9928 9.59999C108.369 9.59999 128.025 14.592 141.961 24.576C155.897 34.56 162.865 48.704 162.865 67.008C162.865 80.528 159.121 91.448 151.633 99.768C144.145 108.088 133.537 113.496 119.809 115.992C136.033 118.072 148.513 123.272 157.249 131.592C166.193 139.912 170.665 151.56 170.665 166.536C170.665 185.672 163.385 200.752 148.825 211.776C134.265 222.592 113.673 228 87.0488 228H0.000762463V9.59999H82.9928ZM46.8008 99.456H84.2408C94.2248 99.456 102.025 97.064 107.641 92.28C113.257 87.496 116.065 81.048 116.065 72.936C116.065 64.824 113.257 58.376 107.641 53.592C102.025 48.808 94.2248 46.416 84.2408 46.416H46.8008V99.456ZM46.8008 190.872H87.3608C98.5928 190.872 107.225 188.48 113.257 183.696C119.497 178.912 122.617 172.256 122.617 163.728C122.617 154.784 119.497 147.92 113.257 143.136C107.017 138.144 98.3848 135.648 87.3608 135.648H46.8008V190.872ZM217.304 0.863986C224.584 0.863986 230.616 3.25599 235.4 8.03999C240.184 12.616 242.576 18.44 242.576 25.512C242.576 32.584 240.184 38.512 235.4 43.296C230.616 48.08 224.584 50.472 217.304 50.472C210.024 50.472 203.888 48.08 198.896 43.296C194.112 38.512 191.72 32.584 191.72 25.512C191.72 18.44 194.112 12.616 198.896 8.03999C203.888 3.25599 210.024 0.863986 217.304 0.863986ZM195.152 67.632H239.144V228H195.152V67.632ZM266.68 9.59999H310.672V228H266.68V9.59999ZM338.209 9.59999H382.201V228H338.209V9.59999ZM431.889 0.863986C439.169 0.863986 445.201 3.25599 449.985 8.03999C454.769 12.616 457.161 18.44 457.161 25.512C457.161 32.584 454.769 38.512 449.985 43.296C445.201 48.08 439.169 50.472 431.889 50.472C424.609 50.472 418.473 48.08 413.481 43.296C408.697 38.512 406.305 32.584 406.305 25.512C406.305 18.44 408.697 12.616 413.481 8.03999C418.473 3.25599 424.609 0.863986 431.889 0.863986ZM409.737 67.632H453.729V228H409.737V67.632ZM559.578 229.872C542.73 229.872 527.858 226.544 514.962 219.888C502.274 213.024 492.394 203.352 485.322 190.872C478.458 178.392 475.026 164.04 475.026 147.816C475.026 131.592 478.458 117.24 485.322 104.76C492.394 92.28 502.274 82.712 514.962 76.056C527.858 69.192 542.73 65.76 559.578 65.76C576.426 65.76 591.194 69.192 603.882 76.056C616.778 82.712 626.658 92.28 633.522 104.76C640.594 117.24 644.13 131.592 644.13 147.816C644.13 164.248 640.594 178.704 633.522 191.184C626.658 203.456 616.778 213.024 603.882 219.888C591.194 226.544 576.426 229.872 559.578 229.872ZM559.578 193.992C571.85 193.992 581.522 189.728 588.594 181.2C595.874 172.672 599.514 161.544 599.514 147.816C599.514 134.088 595.874 122.96 588.594 114.432C581.522 105.904 571.85 101.64 559.578 101.64C547.514 101.64 537.842 105.904 530.562 114.432C523.49 122.96 519.954 134.088 519.954 147.816C519.954 161.544 523.49 172.672 530.562 181.2C537.842 189.728 547.514 193.992 559.578 193.992ZM757.264 65.76C775.984 65.76 791.376 71.584 803.44 83.232C815.504 94.88 821.536 114.12 821.536 140.952V228H777.544V143.448C777.544 115.784 766.728 101.952 745.096 101.952C733.656 101.952 724.816 105.8 718.576 113.496C712.336 121.192 709.216 132.008 709.216 145.944V228H665.224V67.632H703.6L707.656 87.6C713.272 80.736 720.032 75.432 727.936 71.688C735.84 67.736 745.616 65.76 757.264 65.76ZM932.559 9.59999C957.935 9.59999 977.591 14.592 991.527 24.576C1005.46 34.56 1012.43 48.704 1012.43 67.008C1012.43 80.528 1008.69 91.448 1001.2 99.768C993.711 108.088 983.103 113.496 969.375 115.992C985.599 118.072 998.079 123.272 1006.81 131.592C1015.76 139.912 1020.23 151.56 1020.23 166.536C1020.23 185.672 1012.95 200.752 998.391 211.776C983.831 222.592 963.239 228 936.615 228H849.567V9.59999H932.559ZM896.367 99.456H933.807C943.791 99.456 951.591 97.064 957.207 92.28C962.823 87.496 965.631 81.048 965.631 72.936C965.631 64.824 962.823 58.376 957.207 53.592C951.591 48.808 943.791 46.416 933.807 46.416H896.367V99.456ZM896.367 190.872H936.927C948.159 190.872 956.791 188.48 962.823 183.696C969.063 178.912 972.183 172.256 972.183 163.728C972.183 154.784 969.063 147.92 962.823 143.136C956.583 138.144 947.951 135.648 936.927 135.648H896.367V190.872ZM1038.48 148.128C1038.48 131.488 1041.81 117.032 1048.46 104.76C1055.33 92.28 1064.79 82.712 1076.85 76.056C1089.13 69.192 1103.27 65.76 1119.29 65.76C1135.51 65.76 1149.76 68.984 1162.03 75.432C1174.51 81.672 1184.18 90.616 1191.05 102.264C1198.12 113.704 1201.76 127.224 1201.97 142.824C1201.97 148.44 1201.55 153.432 1200.72 157.8H1084.34V159.048C1085.38 170.696 1089.13 179.848 1095.57 186.504C1102.02 193.16 1110.86 196.488 1122.09 196.488C1131.04 196.488 1138.42 194.616 1144.25 190.872C1150.28 186.92 1154.23 181.2 1156.1 173.712H1199.47C1197.81 184.32 1193.75 193.888 1187.3 202.416C1180.85 210.944 1172.33 217.704 1161.72 222.696C1151.11 227.48 1138.94 229.872 1125.21 229.872C1107.33 229.872 1091.83 226.544 1078.73 219.888C1065.83 213.232 1055.85 203.768 1048.77 191.496C1041.91 179.016 1038.48 164.56 1038.48 148.128ZM1157.97 129.096C1156.52 119.32 1152.46 111.832 1145.81 106.632C1139.36 101.224 1131.14 98.52 1121.16 98.52C1111.59 98.52 1103.48 101.328 1096.82 106.944C1090.37 112.352 1086.53 119.736 1085.28 129.096H1157.97Z" fill="url(#paint0_linear_183_13364)"/>
<defs>
<linearGradient id="paint0_linear_183_13364" x1="596" y1="-84" x2="596" y2="157.5" gradientUnits="userSpaceOnUse">
<stop offset="0.199" stop-color="#1D4ED8"/>
<stop offset="1" stop-color="#1D4ED8"/>
</linearGradient>
</defs>
</svg>
