<svg width="14" height="15" viewBox="0 0 14 15" fill="none" xmlns="http://www.w3.org/2000/svg">
<path d="M11.0013 0.833008V2.16634M3.0013 0.833008V2.16634M6.99864 8.16634H7.00397M6.99864 10.833H7.00397M9.66197 8.16634H9.66797M4.33464 8.16634H4.34064M4.33464 10.833H4.34064M1.33464 4.83301H12.668M1.0013 4.83301H13.0013M0.667969 7.66167C0.667969 4.75701 0.667969 3.30434 1.50264 2.40167C2.3373 1.49967 3.6813 1.49967 6.36797 1.49967H7.63463C10.3213 1.49967 11.6653 1.49967 12.5 2.40234C13.3346 3.30434 13.3346 4.75701 13.3346 7.66234V8.00434C13.3346 10.909 13.3346 12.3617 12.5 13.2643C11.6653 14.1663 10.3213 14.1663 7.63463 14.1663H6.36797C3.6813 14.1663 2.3373 14.1663 1.50264 13.2637C0.667969 12.3617 0.667969 10.909 0.667969 8.00367V7.66167Z" stroke="#070D17" stroke-linecap="round" stroke-linejoin="round"/>
</svg>
