<svg width="106" height="106" viewBox="0 0 106 106" fill="none" xmlns="http://www.w3.org/2000/svg">
<path d="M53.8977 0.468262H53.1023C24.327 0.468262 1 23.9733 1 52.9683C1 81.9632 24.327 105.468 53.1023 105.468H53.8977C82.673 105.468 106 81.9632 106 52.9683C106 23.9733 82.673 0.468262 53.8977 0.468262Z" fill="#FDF7F6"/>
<g clip-path="url(#clip0_1041_19850)">
<path d="M77.893 67.2412L58.1833 32.5117C57.711 31.6816 57.0273 30.9915 56.2017 30.5113C55.3761 30.0312 54.4381 29.7783 53.483 29.7783C52.528 29.7783 51.59 30.0312 50.7644 30.5113C49.9388 30.9915 49.255 31.6816 48.7827 32.5117L29.052 67.2412C28.5866 68.0642 28.3452 68.9948 28.3517 69.9403C28.3582 70.8857 28.6125 71.8129 29.0891 72.6294C29.5658 73.4459 30.2482 74.1232 31.0682 74.5937C31.8883 75.0642 32.8174 75.3115 33.7628 75.311H73.1821C74.1275 75.3115 75.0566 75.0642 75.8767 74.5937C76.6968 74.1232 77.3791 73.4459 77.8558 72.6294C78.3324 71.8129 78.5867 70.8857 78.5932 69.9403C78.5998 68.9948 78.3583 68.0642 77.893 67.2412Z" fill="#CF1F25"/>
<path d="M55.1574 67.4736C54.5813 68.0007 53.8256 68.2878 53.0449 68.2764C52.2684 68.2853 51.516 68.007 50.9324 67.4948C50.623 67.2169 50.3791 66.8738 50.2183 66.4902C50.0576 66.1066 49.984 65.6921 50.0029 65.2766C50 64.8801 50.0764 64.487 50.2275 64.1204C50.3785 63.7538 50.6013 63.421 50.8826 63.1416C51.164 62.8622 51.4983 62.6418 51.866 62.4933C52.2337 62.3448 52.6273 62.2712 53.0238 62.2769C53.4156 62.2752 53.8038 62.3509 54.1663 62.4995C54.5288 62.6481 54.8584 62.8668 55.1363 63.143C55.4212 63.4154 55.647 63.7435 55.7996 64.107C55.9522 64.4704 56.0285 64.8614 56.0235 65.2555C56.0489 65.6659 55.9846 66.077 55.835 66.4601C55.6855 66.8431 55.4542 67.189 55.1574 67.4736ZM55.9602 47.3626L55.1785 56.214C55.1648 57.0602 55.0002 57.8972 54.6927 58.6856C54.55 58.9994 54.3171 59.2635 54.0235 59.4441C53.73 59.6247 53.3893 59.7137 53.0449 59.6996C52.7054 59.7169 52.3685 59.6315 52.0783 59.4543C51.7881 59.2772 51.5581 59.0167 51.4183 58.7068C51.0922 57.8762 50.8996 56.9992 50.8479 56.1084L50.2775 47.4894C50.1719 45.7783 50.1085 44.5953 50.1085 43.8559C50.0595 42.9308 50.3698 42.0225 50.9747 41.3209C51.2675 41.0133 51.6223 40.7713 52.0156 40.6111C52.4089 40.4509 52.8317 40.376 53.2562 40.3914C53.7327 40.3666 54.2056 40.4865 54.6127 40.7353C55.0199 40.9841 55.3423 41.3503 55.5377 41.7856C55.9551 42.8024 56.1427 43.8989 56.0869 44.9966C56.0838 45.7869 56.0415 46.5765 55.9602 47.3626Z" fill="white"/>
</g>
<defs>
<clipPath id="clip0_1041_19850">
<rect width="50.7" height="50.7" fill="white" transform="translate(28 27)"/>
</clipPath>
</defs>
</svg>
