<svg width="16" height="16" viewBox="0 0 16 16" fill="none" xmlns="http://www.w3.org/2000/svg">
<path d="M11.332 5.99967C11.33 4.02834 11.3007 3.00701 10.7267 2.30767C10.616 2.17277 10.4923 2.04907 10.3574 1.93834C9.6187 1.33301 8.52403 1.33301 6.33203 1.33301C4.1407 1.33301 3.0447 1.33301 2.3067 1.93834C2.1718 2.04907 2.04809 2.17277 1.93736 2.30767C1.33203 3.04634 1.33203 4.14101 1.33203 6.33301C1.33203 8.52434 1.33203 9.62034 1.93736 10.3583C2.04809 10.4932 2.1718 10.6169 2.3067 10.7277C3.0067 11.301 4.0267 11.3317 5.9987 11.333M5.9987 9.99967C5.9987 8.11434 5.9987 7.17101 6.5847 6.58567C7.17003 5.99967 8.11336 5.99967 9.9987 5.99967H10.6654C12.5507 5.99967 13.494 5.99967 14.0794 6.58567C14.6654 7.17101 14.6654 8.11434 14.6654 9.99967V10.6663C14.6654 12.5517 14.6654 13.495 14.0794 14.0803C13.494 14.6663 12.5507 14.6663 10.6654 14.6663H9.9987C8.11336 14.6663 7.17003 14.6663 6.5847 14.0803C5.9987 13.495 5.9987 12.5517 5.9987 10.6663V9.99967Z" stroke="#00B4BE" stroke-width="1.5" stroke-linecap="round" stroke-linejoin="round"/>
</svg>
