<svg width="104" height="104" viewBox="0 0 104 104" fill="none" xmlns="http://www.w3.org/2000/svg">
<g clip-path="url(#clip0_578_8796)">
<path d="M104 0H0V104H104V0Z" fill="white"/>
<path d="M9.25758 6.5H6.5V9.25758H9.25758V6.5Z" fill="black"/>
<path d="M12.0152 6.5H9.25758V9.25758H12.0152V6.5Z" fill="black"/>
<path d="M14.7727 6.5H12.0152V9.25758H14.7727V6.5Z" fill="black"/>
<path d="M17.5303 6.5H14.7727V9.25758H17.5303V6.5Z" fill="black"/>
<path d="M20.2879 6.5H17.5303V9.25758H20.2879V6.5Z" fill="black"/>
<path d="M23.0455 6.5H20.2879V9.25758H23.0455V6.5Z" fill="black"/>
<path d="M25.803 6.5H23.0455V9.25758H25.803V6.5Z" fill="black"/>
<path d="M31.3182 6.5H28.5606V9.25758H31.3182V6.5Z" fill="black"/>
<path d="M36.8333 6.5H34.0758V9.25758H36.8333V6.5Z" fill="black"/>
<path d="M39.5909 6.5H36.8333V9.25758H39.5909V6.5Z" fill="black"/>
<path d="M42.3485 6.5H39.5909V9.25758H42.3485V6.5Z" fill="black"/>
<path d="M45.1061 6.5H42.3485V9.25758H45.1061V6.5Z" fill="black"/>
<path d="M47.8636 6.5H45.1061V9.25758H47.8636V6.5Z" fill="black"/>
<path d="M53.3788 6.5H50.6212V9.25758H53.3788V6.5Z" fill="black"/>
<path d="M56.1364 6.5H53.3788V9.25758H56.1364V6.5Z" fill="black"/>
<path d="M58.8939 6.5H56.1364V9.25758H58.8939V6.5Z" fill="black"/>
<path d="M64.4091 6.5H61.6515V9.25758H64.4091V6.5Z" fill="black"/>
<path d="M67.1667 6.5H64.4091V9.25758H67.1667V6.5Z" fill="black"/>
<path d="M75.4394 6.5H72.6818V9.25758H75.4394V6.5Z" fill="black"/>
<path d="M80.9546 6.5H78.197V9.25758H80.9546V6.5Z" fill="black"/>
<path d="M83.7121 6.5H80.9546V9.25758H83.7121V6.5Z" fill="black"/>
<path d="M86.4697 6.5H83.7121V9.25758H86.4697V6.5Z" fill="black"/>
<path d="M89.2273 6.5H86.4697V9.25758H89.2273V6.5Z" fill="black"/>
<path d="M91.9849 6.5H89.2273V9.25758H91.9849V6.5Z" fill="black"/>
<path d="M94.7424 6.5H91.9849V9.25758H94.7424V6.5Z" fill="black"/>
<path d="M97.5 6.5H94.7424V9.25758H97.5V6.5Z" fill="black"/>
<path d="M9.25758 9.25758H6.5V12.0152H9.25758V9.25758Z" fill="black"/>
<path d="M25.803 9.25758H23.0455V12.0152H25.803V9.25758Z" fill="black"/>
<path d="M47.8636 9.25758H45.1061V12.0152H47.8636V9.25758Z" fill="black"/>
<path d="M58.8939 9.25758H56.1364V12.0152H58.8939V9.25758Z" fill="black"/>
<path d="M75.4394 9.25758H72.6818V12.0152H75.4394V9.25758Z" fill="black"/>
<path d="M80.9546 9.25758H78.197V12.0152H80.9546V9.25758Z" fill="black"/>
<path d="M97.5 9.25758H94.7424V12.0152H97.5V9.25758Z" fill="black"/>
<path d="M9.25758 12.0152H6.5V14.7727H9.25758V12.0152Z" fill="black"/>
<path d="M14.7727 12.0152H12.0152V14.7727H14.7727V12.0152Z" fill="black"/>
<path d="M17.5303 12.0152H14.7727V14.7727H17.5303V12.0152Z" fill="black"/>
<path d="M20.2879 12.0152H17.5303V14.7727H20.2879V12.0152Z" fill="black"/>
<path d="M25.803 12.0152H23.0455V14.7727H25.803V12.0152Z" fill="black"/>
<path d="M39.5909 12.0152H36.8333V14.7727H39.5909V12.0152Z" fill="black"/>
<path d="M45.1061 12.0152H42.3485V14.7727H45.1061V12.0152Z" fill="black"/>
<path d="M47.8636 12.0152H45.1061V14.7727H47.8636V12.0152Z" fill="black"/>
<path d="M61.6515 12.0152H58.8939L58.8939 14.7727H61.6515V12.0152Z" fill="black"/>
<path d="M64.4091 12.0152H61.6515V14.7727H64.4091V12.0152Z" fill="black"/>
<path d="M69.9242 12.0152H67.1667V14.7727H69.9242V12.0152Z" fill="black"/>
<path d="M80.9546 12.0152H78.197V14.7727H80.9546V12.0152Z" fill="black"/>
<path d="M86.4697 12.0152H83.7121V14.7727H86.4697V12.0152Z" fill="black"/>
<path d="M89.2273 12.0152H86.4697V14.7727H89.2273V12.0152Z" fill="black"/>
<path d="M91.9849 12.0152H89.2273V14.7727H91.9849V12.0152Z" fill="black"/>
<path d="M97.5 12.0152H94.7424V14.7727H97.5V12.0152Z" fill="black"/>
<path d="M9.25758 14.7727H6.5V17.5303H9.25758V14.7727Z" fill="black"/>
<path d="M14.7727 14.7727H12.0152V17.5303H14.7727V14.7727Z" fill="black"/>
<path d="M17.5303 14.7727H14.7727V17.5303H17.5303V14.7727Z" fill="black"/>
<path d="M20.2879 14.7727H17.5303V17.5303H20.2879V14.7727Z" fill="black"/>
<path d="M25.803 14.7727H23.0455V17.5303H25.803V14.7727Z" fill="black"/>
<path d="M34.0758 14.7727H31.3182V17.5303H34.0758V14.7727Z" fill="black"/>
<path d="M36.8333 14.7727H34.0758V17.5303H36.8333V14.7727Z" fill="black"/>
<path d="M39.5909 14.7727H36.8333V17.5303H39.5909V14.7727Z" fill="black"/>
<path d="M45.1061 14.7727H42.3485V17.5303H45.1061V14.7727Z" fill="black"/>
<path d="M50.6212 14.7727H47.8636V17.5303H50.6212V14.7727Z" fill="black"/>
<path d="M58.8939 14.7727H56.1364V17.5303H58.8939L58.8939 14.7727Z" fill="black"/>
<path d="M61.6515 14.7727H58.8939L58.8939 17.5303H61.6515V14.7727Z" fill="black"/>
<path d="M72.6818 14.7727H69.9242V17.5303H72.6818V14.7727Z" fill="black"/>
<path d="M75.4394 14.7727H72.6818V17.5303H75.4394V14.7727Z" fill="black"/>
<path d="M80.9546 14.7727H78.197V17.5303H80.9546V14.7727Z" fill="black"/>
<path d="M86.4697 14.7727H83.7121V17.5303H86.4697V14.7727Z" fill="black"/>
<path d="M89.2273 14.7727H86.4697V17.5303H89.2273V14.7727Z" fill="black"/>
<path d="M91.9849 14.7727H89.2273V17.5303H91.9849V14.7727Z" fill="black"/>
<path d="M97.5 14.7727H94.7424V17.5303H97.5V14.7727Z" fill="black"/>
<path d="M9.25758 17.5303H6.5V20.2879H9.25758V17.5303Z" fill="black"/>
<path d="M14.7727 17.5303H12.0152V20.2879H14.7727V17.5303Z" fill="black"/>
<path d="M17.5303 17.5303H14.7727V20.2879H17.5303V17.5303Z" fill="black"/>
<path d="M20.2879 17.5303H17.5303V20.2879H20.2879V17.5303Z" fill="black"/>
<path d="M25.803 17.5303H23.0455V20.2879H25.803V17.5303Z" fill="black"/>
<path d="M31.3182 17.5303H28.5606V20.2879H31.3182V17.5303Z" fill="black"/>
<path d="M34.0758 17.5303H31.3182V20.2879H34.0758V17.5303Z" fill="black"/>
<path d="M42.3485 17.5303H39.5909V20.2879H42.3485V17.5303Z" fill="black"/>
<path d="M47.8636 17.5303H45.1061V20.2879H47.8636V17.5303Z" fill="black"/>
<path d="M67.1667 17.5303H64.4091V20.2879H67.1667V17.5303Z" fill="black"/>
<path d="M75.4394 17.5303H72.6818V20.2879H75.4394V17.5303Z" fill="black"/>
<path d="M80.9546 17.5303H78.197V20.2879H80.9546V17.5303Z" fill="black"/>
<path d="M86.4697 17.5303H83.7121V20.2879H86.4697V17.5303Z" fill="black"/>
<path d="M89.2273 17.5303H86.4697V20.2879H89.2273V17.5303Z" fill="black"/>
<path d="M91.9849 17.5303H89.2273V20.2879H91.9849V17.5303Z" fill="black"/>
<path d="M97.5 17.5303H94.7424V20.2879H97.5V17.5303Z" fill="black"/>
<path d="M9.25758 20.2879H6.5V23.0455H9.25758V20.2879Z" fill="black"/>
<path d="M25.803 20.2879H23.0455V23.0455H25.803V20.2879Z" fill="black"/>
<path d="M36.8333 20.2879H34.0758V23.0455H36.8333V20.2879Z" fill="black"/>
<path d="M42.3485 20.2879H39.5909V23.0455H42.3485V20.2879Z" fill="black"/>
<path d="M45.1061 20.2879H42.3485V23.0455H45.1061V20.2879Z" fill="black"/>
<path d="M47.8636 20.2879H45.1061V23.0455H47.8636V20.2879Z" fill="black"/>
<path d="M50.6212 20.2879H47.8636V23.0455H50.6212V20.2879Z" fill="black"/>
<path d="M58.8939 20.2879H56.1364V23.0455H58.8939V20.2879Z" fill="black"/>
<path d="M61.6515 20.2879H58.8939V23.0455H61.6515V20.2879Z" fill="black"/>
<path d="M64.4091 20.2879H61.6515V23.0455H64.4091V20.2879Z" fill="black"/>
<path d="M67.1667 20.2879H64.4091V23.0455H67.1667V20.2879Z" fill="black"/>
<path d="M69.9242 20.2879H67.1667V23.0455H69.9242V20.2879Z" fill="black"/>
<path d="M72.6818 20.2879H69.9242V23.0455H72.6818V20.2879Z" fill="black"/>
<path d="M80.9546 20.2879H78.197V23.0455H80.9546V20.2879Z" fill="black"/>
<path d="M97.5 20.2879H94.7424V23.0455H97.5V20.2879Z" fill="black"/>
<path d="M9.25758 23.0455H6.5V25.803H9.25758V23.0455Z" fill="black"/>
<path d="M12.0152 23.0455H9.25758V25.803H12.0152V23.0455Z" fill="black"/>
<path d="M14.7727 23.0455H12.0152V25.803H14.7727V23.0455Z" fill="black"/>
<path d="M17.5303 23.0455H14.7727V25.803H17.5303V23.0455Z" fill="black"/>
<path d="M20.2879 23.0455H17.5303V25.803H20.2879V23.0455Z" fill="black"/>
<path d="M23.0455 23.0455H20.2879V25.803H23.0455V23.0455Z" fill="black"/>
<path d="M25.803 23.0455H23.0455V25.803H25.803V23.0455Z" fill="black"/>
<path d="M31.3182 23.0455H28.5606V25.803H31.3182V23.0455Z" fill="black"/>
<path d="M36.8333 23.0455H34.0758V25.803H36.8333V23.0455Z" fill="black"/>
<path d="M42.3485 23.0455H39.5909V25.803H42.3485V23.0455Z" fill="black"/>
<path d="M47.8636 23.0455H45.1061V25.803H47.8636V23.0455Z" fill="black"/>
<path d="M53.3788 23.0455H50.6212V25.803H53.3788V23.0455Z" fill="black"/>
<path d="M58.8939 23.0455H56.1364V25.803H58.8939V23.0455Z" fill="black"/>
<path d="M64.4091 23.0455H61.6515V25.803H64.4091V23.0455Z" fill="black"/>
<path d="M69.9242 23.0455H67.1667V25.803H69.9242V23.0455Z" fill="black"/>
<path d="M75.4394 23.0455H72.6818V25.803H75.4394V23.0455Z" fill="black"/>
<path d="M80.9546 23.0455H78.197V25.803H80.9546V23.0455Z" fill="black"/>
<path d="M83.7121 23.0455H80.9546V25.803H83.7121V23.0455Z" fill="black"/>
<path d="M86.4697 23.0455H83.7121V25.803H86.4697V23.0455Z" fill="black"/>
<path d="M89.2273 23.0455H86.4697V25.803H89.2273V23.0455Z" fill="black"/>
<path d="M91.9849 23.0455H89.2273V25.803H91.9849V23.0455Z" fill="black"/>
<path d="M94.7424 23.0455H91.9849V25.803H94.7424V23.0455Z" fill="black"/>
<path d="M97.5 23.0455H94.7424V25.803H97.5V23.0455Z" fill="black"/>
<path d="M31.3182 25.803H28.5606V28.5606H31.3182V25.803Z" fill="black"/>
<path d="M39.5909 25.803H36.8333V28.5606H39.5909V25.803Z" fill="black"/>
<path d="M47.8636 25.803H45.1061V28.5606H47.8636V25.803Z" fill="black"/>
<path d="M58.8939 25.803H56.1364V28.5606H58.8939V25.803Z" fill="black"/>
<path d="M64.4091 25.803H61.6515V28.5606H64.4091V25.803Z" fill="black"/>
<path d="M69.9242 25.803H67.1667V28.5606H69.9242V25.803Z" fill="black"/>
<path d="M72.6818 25.803H69.9242V28.5606H72.6818V25.803Z" fill="black"/>
<path d="M9.25758 28.5606H6.5V31.3182H9.25758V28.5606Z" fill="black"/>
<path d="M17.5303 28.5606H14.7727V31.3182H17.5303V28.5606Z" fill="black"/>
<path d="M20.2879 28.5606H17.5303V31.3182H20.2879V28.5606Z" fill="black"/>
<path d="M23.0455 28.5606H20.2879V31.3182H23.0455V28.5606Z" fill="black"/>
<path d="M25.803 28.5606H23.0455V31.3182H25.803V28.5606Z" fill="black"/>
<path d="M28.5606 28.5606H25.803V31.3182H28.5606V28.5606Z" fill="black"/>
<path d="M31.3182 28.5606H28.5606V31.3182H31.3182V28.5606Z" fill="black"/>
<path d="M34.0758 28.5606H31.3182V31.3182H34.0758V28.5606Z" fill="black"/>
<path d="M36.8333 28.5606H34.0758V31.3182H36.8333V28.5606Z" fill="black"/>
<path d="M45.1061 28.5606H42.3485V31.3182H45.1061V28.5606Z" fill="black"/>
<path d="M47.8636 28.5606H45.1061V31.3182H47.8636V28.5606Z" fill="black"/>
<path d="M50.6212 28.5606H47.8636V31.3182H50.6212V28.5606Z" fill="black"/>
<path d="M53.3788 28.5606H50.6212V31.3182H53.3788V28.5606Z" fill="black"/>
<path d="M58.8939 28.5606H56.1364V31.3182H58.8939V28.5606Z" fill="black"/>
<path d="M61.6515 28.5606H58.8939V31.3182H61.6515V28.5606Z" fill="black"/>
<path d="M67.1667 28.5606H64.4091V31.3182H67.1667V28.5606Z" fill="black"/>
<path d="M69.9242 28.5606H67.1667V31.3182H69.9242V28.5606Z" fill="black"/>
<path d="M75.4394 28.5606H72.6818V31.3182H75.4394V28.5606Z" fill="black"/>
<path d="M78.197 28.5606H75.4394V31.3182H78.197V28.5606Z" fill="black"/>
<path d="M80.9546 28.5606H78.197V31.3182H80.9546V28.5606Z" fill="black"/>
<path d="M86.4697 28.5606H83.7121V31.3182H86.4697V28.5606Z" fill="black"/>
<path d="M97.5 28.5606H94.7424V31.3182H97.5V28.5606Z" fill="black"/>
<path d="M9.25758 31.3182H6.5V34.0758H9.25758V31.3182Z" fill="black"/>
<path d="M12.0152 31.3182H9.25758V34.0758H12.0152V31.3182Z" fill="black"/>
<path d="M17.5303 31.3182H14.7727V34.0758H17.5303V31.3182Z" fill="black"/>
<path d="M28.5606 31.3182H25.803V34.0758H28.5606V31.3182Z" fill="black"/>
<path d="M31.3182 31.3182H28.5606V34.0758H31.3182V31.3182Z" fill="black"/>
<path d="M34.0758 31.3182H31.3182V34.0758H34.0758V31.3182Z" fill="black"/>
<path d="M36.8333 31.3182H34.0758V34.0758H36.8333V31.3182Z" fill="black"/>
<path d="M39.5909 31.3182H36.8333V34.0758H39.5909V31.3182Z" fill="black"/>
<path d="M42.3485 31.3182H39.5909V34.0758H42.3485V31.3182Z" fill="black"/>
<path d="M53.3788 31.3182H50.6212V34.0758H53.3788V31.3182Z" fill="black"/>
<path d="M61.6515 31.3182H58.8939L58.8939 34.0758H61.6515V31.3182Z" fill="black"/>
<path d="M86.4697 31.3182H83.7121V34.0758H86.4697V31.3182Z" fill="black"/>
<path d="M89.2273 31.3182H86.4697V34.0758H89.2273V31.3182Z" fill="black"/>
<path d="M91.9849 31.3182H89.2273V34.0758H91.9849V31.3182Z" fill="black"/>
<path d="M97.5 31.3182H94.7424V34.0758H97.5V31.3182Z" fill="black"/>
<path d="M12.0152 34.0758H9.25758V36.8333H12.0152V34.0758Z" fill="black"/>
<path d="M20.2879 34.0758H17.5303V36.8333H20.2879V34.0758Z" fill="black"/>
<path d="M25.803 34.0758H23.0455V36.8333H25.803V34.0758Z" fill="black"/>
<path d="M28.5606 34.0758H25.803V36.8333H28.5606V34.0758Z" fill="black"/>
<path d="M31.3182 34.0758H28.5606V36.8333H31.3182V34.0758Z" fill="black"/>
<path d="M39.5909 34.0758H36.8333V36.8333H39.5909V34.0758Z" fill="black"/>
<path d="M42.3485 34.0758H39.5909V36.8333H42.3485V34.0758Z" fill="black"/>
<path d="M45.1061 34.0758H42.3485V36.8333H45.1061V34.0758Z" fill="black"/>
<path d="M50.6212 34.0758H47.8636V36.8333H50.6212V34.0758Z" fill="black"/>
<path d="M56.1364 34.0758H53.3788V36.8333H56.1364V34.0758Z" fill="black"/>
<path d="M64.4091 34.0758H61.6515V36.8333H64.4091V34.0758Z" fill="black"/>
<path d="M67.1667 34.0758H64.4091V36.8333H67.1667V34.0758Z" fill="black"/>
<path d="M69.9242 34.0758H67.1667V36.8333H69.9242V34.0758Z" fill="black"/>
<path d="M72.6818 34.0758H69.9242V36.8333H72.6818V34.0758Z" fill="black"/>
<path d="M75.4394 34.0758H72.6818V36.8333H75.4394V34.0758Z" fill="black"/>
<path d="M83.7121 34.0758H80.9546V36.8333H83.7121V34.0758Z" fill="black"/>
<path d="M86.4697 34.0758H83.7121V36.8333H86.4697V34.0758Z" fill="black"/>
<path d="M91.9849 34.0758H89.2273V36.8333H91.9849V34.0758Z" fill="black"/>
<path d="M12.0152 36.8333H9.25758V39.5909H12.0152V36.8333Z" fill="black"/>
<path d="M14.7727 36.8333H12.0152V39.5909H14.7727V36.8333Z" fill="black"/>
<path d="M28.5606 36.8333H25.803V39.5909H28.5606V36.8333Z" fill="black"/>
<path d="M31.3182 36.8333H28.5606V39.5909H31.3182V36.8333Z" fill="black"/>
<path d="M34.0758 36.8333H31.3182V39.5909H34.0758V36.8333Z" fill="black"/>
<path d="M42.3485 36.8333H39.5909V39.5909H42.3485V36.8333Z" fill="black"/>
<path d="M56.1364 36.8333H53.3788V39.5909H56.1364V36.8333Z" fill="black"/>
<path d="M69.9242 36.8333H67.1667V39.5909H69.9242V36.8333Z" fill="black"/>
<path d="M75.4394 36.8333H72.6818V39.5909H75.4394V36.8333Z" fill="black"/>
<path d="M78.197 36.8333H75.4394V39.5909H78.197V36.8333Z" fill="black"/>
<path d="M89.2273 36.8333H86.4697V39.5909H89.2273V36.8333Z" fill="black"/>
<path d="M94.7424 36.8333H91.9849V39.5909H94.7424V36.8333Z" fill="black"/>
<path d="M12.0152 39.5909H9.25758V42.3485H12.0152V39.5909Z" fill="black"/>
<path d="M20.2879 39.5909H17.5303V42.3485H20.2879V39.5909Z" fill="black"/>
<path d="M25.803 39.5909H23.0455V42.3485H25.803V39.5909Z" fill="black"/>
<path d="M28.5606 39.5909H25.803V42.3485H28.5606V39.5909Z" fill="black"/>
<path d="M31.3182 39.5909H28.5606V42.3485H31.3182V39.5909Z" fill="black"/>
<path d="M39.5909 39.5909H36.8333V42.3485H39.5909V39.5909Z" fill="black"/>
<path d="M42.3485 39.5909H39.5909V42.3485H42.3485V39.5909Z" fill="black"/>
<path d="M45.1061 39.5909H42.3485V42.3485H45.1061V39.5909Z" fill="black"/>
<path d="M53.3788 39.5909H50.6212V42.3485H53.3788V39.5909Z" fill="black"/>
<path d="M58.8939 39.5909H56.1364V42.3485H58.8939V39.5909Z" fill="black"/>
<path d="M64.4091 39.5909H61.6515V42.3485H64.4091V39.5909Z" fill="black"/>
<path d="M69.9242 39.5909H67.1667V42.3485H69.9242V39.5909Z" fill="black"/>
<path d="M80.9546 39.5909H78.197V42.3485H80.9546V39.5909Z" fill="black"/>
<path d="M91.9849 39.5909H89.2273V42.3485H91.9849V39.5909Z" fill="black"/>
<path d="M94.7424 39.5909H91.9849V42.3485H94.7424V39.5909Z" fill="black"/>
<path d="M14.7727 42.3485H12.0152V45.1061H14.7727V42.3485Z" fill="black"/>
<path d="M23.0455 42.3485H20.2879V45.1061H23.0455V42.3485Z" fill="black"/>
<path d="M34.0758 42.3485H31.3182V45.1061H34.0758V42.3485Z" fill="black"/>
<path d="M42.3485 42.3485H39.5909V45.1061H42.3485V42.3485Z" fill="black"/>
<path d="M45.1061 42.3485H42.3485V45.1061H45.1061V42.3485Z" fill="black"/>
<path d="M47.8636 42.3485H45.1061V45.1061H47.8636V42.3485Z" fill="black"/>
<path d="M50.6212 42.3485H47.8636V45.1061H50.6212V42.3485Z" fill="black"/>
<path d="M56.1364 42.3485H53.3788V45.1061H56.1364V42.3485Z" fill="black"/>
<path d="M58.8939 42.3485H56.1364V45.1061H58.8939V42.3485Z" fill="black"/>
<path d="M61.6515 42.3485H58.8939V45.1061H61.6515V42.3485Z" fill="black"/>
<path d="M72.6818 42.3485H69.9242V45.1061H72.6818V42.3485Z" fill="black"/>
<path d="M78.197 42.3485H75.4394V45.1061H78.197V42.3485Z" fill="black"/>
<path d="M80.9546 42.3485H78.197V45.1061H80.9546V42.3485Z" fill="black"/>
<path d="M89.2273 42.3485H86.4697V45.1061H89.2273V42.3485Z" fill="black"/>
<path d="M17.5303 45.1061H14.7727V47.8636H17.5303V45.1061Z" fill="black"/>
<path d="M20.2879 45.1061H17.5303V47.8636H20.2879V45.1061Z" fill="black"/>
<path d="M23.0455 45.1061H20.2879V47.8636H23.0455V45.1061Z" fill="black"/>
<path d="M25.803 45.1061H23.0455V47.8636H25.803V45.1061Z" fill="black"/>
<path d="M28.5606 45.1061H25.803V47.8636H28.5606V45.1061Z" fill="black"/>
<path d="M34.0758 45.1061H31.3182V47.8636H34.0758V45.1061Z" fill="black"/>
<path d="M39.5909 45.1061H36.8333V47.8636H39.5909V45.1061Z" fill="black"/>
<path d="M42.3485 45.1061H39.5909V47.8636H42.3485V45.1061Z" fill="black"/>
<path d="M58.8939 45.1061H56.1364V47.8636H58.8939V45.1061Z" fill="black"/>
<path d="M61.6515 45.1061H58.8939V47.8636H61.6515V45.1061Z" fill="black"/>
<path d="M69.9242 45.1061H67.1667V47.8636H69.9242V45.1061Z" fill="black"/>
<path d="M72.6818 45.1061H69.9242V47.8636H72.6818V45.1061Z" fill="black"/>
<path d="M78.197 45.1061H75.4394V47.8636H78.197V45.1061Z" fill="black"/>
<path d="M86.4697 45.1061H83.7121V47.8636H86.4697V45.1061Z" fill="black"/>
<path d="M89.2273 45.1061H86.4697V47.8636H89.2273V45.1061Z" fill="black"/>
<path d="M94.7424 45.1061H91.9849V47.8636H94.7424V45.1061Z" fill="black"/>
<path d="M97.5 45.1061H94.7424V47.8636H97.5V45.1061Z" fill="black"/>
<path d="M9.25758 47.8636H6.5V50.6212H9.25758V47.8636Z" fill="black"/>
<path d="M17.5303 47.8636H14.7727V50.6212H17.5303V47.8636Z" fill="black"/>
<path d="M28.5606 47.8636H25.803V50.6212H28.5606V47.8636Z" fill="black"/>
<path d="M34.0758 47.8636H31.3182V50.6212H34.0758V47.8636Z" fill="black"/>
<path d="M36.8333 47.8636H34.0758V50.6212H36.8333V47.8636Z" fill="black"/>
<path d="M53.3788 47.8636H50.6212V50.6212H53.3788V47.8636Z" fill="black"/>
<path d="M56.1364 47.8636H53.3788V50.6212H56.1364V47.8636Z" fill="black"/>
<path d="M58.8939 47.8636H56.1364V50.6212H58.8939V47.8636Z" fill="black"/>
<path d="M61.6515 47.8636H58.8939V50.6212H61.6515V47.8636Z" fill="black"/>
<path d="M69.9242 47.8636H67.1667V50.6212H69.9242V47.8636Z" fill="black"/>
<path d="M72.6818 47.8636H69.9242V50.6212H72.6818V47.8636Z" fill="black"/>
<path d="M78.197 47.8636H75.4394V50.6212H78.197V47.8636Z" fill="black"/>
<path d="M80.9546 47.8636H78.197V50.6212H80.9546V47.8636Z" fill="black"/>
<path d="M83.7121 47.8636H80.9546V50.6212H83.7121V47.8636Z" fill="black"/>
<path d="M97.5 47.8636H94.7424V50.6212H97.5V47.8636Z" fill="black"/>
<path d="M14.7727 50.6212H12.0152V53.3788H14.7727V50.6212Z" fill="black"/>
<path d="M23.0455 50.6212H20.2879V53.3788H23.0455V50.6212Z" fill="black"/>
<path d="M25.803 50.6212H23.0455V53.3788H25.803V50.6212Z" fill="black"/>
<path d="M28.5606 50.6212H25.803V53.3788H28.5606V50.6212Z" fill="black"/>
<path d="M31.3182 50.6212H28.5606V53.3788H31.3182V50.6212Z" fill="black"/>
<path d="M36.8333 50.6212H34.0758V53.3788H36.8333V50.6212Z" fill="black"/>
<path d="M39.5909 50.6212H36.8333V53.3788H39.5909V50.6212Z" fill="black"/>
<path d="M45.1061 50.6212H42.3485V53.3788H45.1061V50.6212Z" fill="black"/>
<path d="M47.8636 50.6212H45.1061V53.3788H47.8636V50.6212Z" fill="black"/>
<path d="M56.1364 50.6212H53.3788V53.3788H56.1364V50.6212Z" fill="black"/>
<path d="M58.8939 50.6212H56.1364V53.3788H58.8939V50.6212Z" fill="black"/>
<path d="M61.6515 50.6212H58.8939V53.3788H61.6515V50.6212Z" fill="black"/>
<path d="M64.4091 50.6212H61.6515V53.3788H64.4091V50.6212Z" fill="black"/>
<path d="M72.6818 50.6212H69.9242V53.3788H72.6818V50.6212Z" fill="black"/>
<path d="M75.4394 50.6212H72.6818V53.3788H75.4394V50.6212Z" fill="black"/>
<path d="M80.9546 50.6212H78.197V53.3788H80.9546V50.6212Z" fill="black"/>
<path d="M89.2273 50.6212H86.4697V53.3788H89.2273V50.6212Z" fill="black"/>
<path d="M91.9849 50.6212H89.2273V53.3788H91.9849V50.6212Z" fill="black"/>
<path d="M97.5 50.6212H94.7424V53.3788H97.5V50.6212Z" fill="black"/>
<path d="M9.25758 53.3788H6.5V56.1364H9.25758V53.3788Z" fill="black"/>
<path d="M12.0152 53.3788H9.25758V56.1364H12.0152V53.3788Z" fill="black"/>
<path d="M17.5303 53.3788H14.7727V56.1364H17.5303V53.3788Z" fill="black"/>
<path d="M23.0455 53.3788H20.2879V56.1364H23.0455V53.3788Z" fill="black"/>
<path d="M28.5606 53.3788H25.803V56.1364H28.5606V53.3788Z" fill="black"/>
<path d="M31.3182 53.3788H28.5606V56.1364H31.3182V53.3788Z" fill="black"/>
<path d="M36.8333 53.3788H34.0758V56.1364H36.8333V53.3788Z" fill="black"/>
<path d="M39.5909 53.3788H36.8333V56.1364H39.5909V53.3788Z" fill="black"/>
<path d="M47.8636 53.3788H45.1061V56.1364H47.8636V53.3788Z" fill="black"/>
<path d="M50.6212 53.3788H47.8636V56.1364H50.6212V53.3788Z" fill="black"/>
<path d="M53.3788 53.3788H50.6212V56.1364H53.3788V53.3788Z" fill="black"/>
<path d="M56.1364 53.3788H53.3788V56.1364H56.1364V53.3788Z" fill="black"/>
<path d="M72.6818 53.3788H69.9242V56.1364H72.6818V53.3788Z" fill="black"/>
<path d="M75.4394 53.3788H72.6818V56.1364H75.4394V53.3788Z" fill="black"/>
<path d="M80.9546 53.3788H78.197V56.1364H80.9546V53.3788Z" fill="black"/>
<path d="M83.7121 53.3788H80.9546V56.1364H83.7121V53.3788Z" fill="black"/>
<path d="M91.9849 53.3788H89.2273V56.1364H91.9849V53.3788Z" fill="black"/>
<path d="M94.7424 53.3788H91.9849V56.1364H94.7424V53.3788Z" fill="black"/>
<path d="M97.5 53.3788H94.7424V56.1364H97.5V53.3788Z" fill="black"/>
<path d="M9.25758 56.1364H6.5V58.8939H9.25758V56.1364Z" fill="black"/>
<path d="M17.5303 56.1364H14.7727V58.8939H17.5303V56.1364Z" fill="black"/>
<path d="M20.2879 56.1364H17.5303V58.8939H20.2879V56.1364Z" fill="black"/>
<path d="M23.0455 56.1364H20.2879V58.8939H23.0455V56.1364Z" fill="black"/>
<path d="M25.803 56.1364H23.0455V58.8939H25.803V56.1364Z" fill="black"/>
<path d="M34.0758 56.1364H31.3182V58.8939H34.0758V56.1364Z" fill="black"/>
<path d="M39.5909 56.1364H36.8333V58.8939H39.5909V56.1364Z" fill="black"/>
<path d="M42.3485 56.1364H39.5909V58.8939H42.3485V56.1364Z" fill="black"/>
<path d="M47.8636 56.1364H45.1061V58.8939H47.8636V56.1364Z" fill="black"/>
<path d="M56.1364 56.1364H53.3788V58.8939H56.1364V56.1364Z" fill="black"/>
<path d="M58.8939 56.1364H56.1364V58.8939H58.8939V56.1364Z" fill="black"/>
<path d="M67.1667 56.1364H64.4091V58.8939H67.1667V56.1364Z" fill="black"/>
<path d="M69.9242 56.1364H67.1667V58.8939H69.9242V56.1364Z" fill="black"/>
<path d="M78.197 56.1364H75.4394V58.8939H78.197V56.1364Z" fill="black"/>
<path d="M83.7121 56.1364H80.9546V58.8939H83.7121V56.1364Z" fill="black"/>
<path d="M86.4697 56.1364H83.7121V58.8939H86.4697V56.1364Z" fill="black"/>
<path d="M94.7424 56.1364H91.9849V58.8939H94.7424V56.1364Z" fill="black"/>
<path d="M97.5 56.1364H94.7424V58.8939H97.5V56.1364Z" fill="black"/>
<path d="M12.0152 58.8939L9.25758 58.8939V61.6515H12.0152V58.8939Z" fill="black"/>
<path d="M14.7727 58.8939L12.0152 58.8939V61.6515H14.7727V58.8939Z" fill="black"/>
<path d="M20.2879 58.8939H17.5303V61.6515H20.2879V58.8939Z" fill="black"/>
<path d="M23.0455 58.8939H20.2879V61.6515H23.0455V58.8939Z" fill="black"/>
<path d="M31.3182 58.8939L28.5606 58.8939V61.6515H31.3182V58.8939Z" fill="black"/>
<path d="M39.5909 58.8939H36.8333V61.6515H39.5909V58.8939Z" fill="black"/>
<path d="M42.3485 58.8939H39.5909V61.6515H42.3485V58.8939Z" fill="black"/>
<path d="M45.1061 58.8939H42.3485V61.6515H45.1061V58.8939Z" fill="black"/>
<path d="M47.8636 58.8939H45.1061V61.6515H47.8636V58.8939Z" fill="black"/>
<path d="M50.6212 58.8939L47.8636 58.8939V61.6515H50.6212V58.8939Z" fill="black"/>
<path d="M64.4091 58.8939L61.6515 58.8939V61.6515H64.4091V58.8939Z" fill="black"/>
<path d="M67.1667 58.8939H64.4091V61.6515H67.1667V58.8939Z" fill="black"/>
<path d="M75.4394 58.8939L72.6818 58.8939V61.6515H75.4394V58.8939Z" fill="black"/>
<path d="M86.4697 58.8939H83.7121V61.6515H86.4697V58.8939Z" fill="black"/>
<path d="M89.2273 58.8939L86.4697 58.8939V61.6515H89.2273V58.8939Z" fill="black"/>
<path d="M91.9849 58.8939L89.2273 58.8939V61.6515H91.9849V58.8939Z" fill="black"/>
<path d="M94.7424 58.8939H91.9849V61.6515H94.7424V58.8939Z" fill="black"/>
<path d="M14.7727 61.6515H12.0152V64.4091H14.7727V61.6515Z" fill="black"/>
<path d="M17.5303 61.6515H14.7727V64.4091H17.5303V61.6515Z" fill="black"/>
<path d="M20.2879 61.6515H17.5303V64.4091H20.2879V61.6515Z" fill="black"/>
<path d="M25.803 61.6515H23.0455V64.4091H25.803V61.6515Z" fill="black"/>
<path d="M34.0758 61.6515H31.3182V64.4091H34.0758V61.6515Z" fill="black"/>
<path d="M39.5909 61.6515H36.8333V64.4091H39.5909V61.6515Z" fill="black"/>
<path d="M42.3485 61.6515H39.5909V64.4091H42.3485V61.6515Z" fill="black"/>
<path d="M50.6212 61.6515H47.8636V64.4091H50.6212V61.6515Z" fill="black"/>
<path d="M53.3788 61.6515H50.6212V64.4091H53.3788V61.6515Z" fill="black"/>
<path d="M67.1667 61.6515H64.4091V64.4091H67.1667V61.6515Z" fill="black"/>
<path d="M69.9242 61.6515H67.1667V64.4091H69.9242V61.6515Z" fill="black"/>
<path d="M78.197 61.6515H75.4394V64.4091H78.197V61.6515Z" fill="black"/>
<path d="M80.9546 61.6515H78.197V64.4091H80.9546V61.6515Z" fill="black"/>
<path d="M83.7121 61.6515H80.9546V64.4091H83.7121V61.6515Z" fill="black"/>
<path d="M86.4697 61.6515H83.7121V64.4091H86.4697V61.6515Z" fill="black"/>
<path d="M94.7424 61.6515H91.9849V64.4091H94.7424V61.6515Z" fill="black"/>
<path d="M97.5 61.6515H94.7424V64.4091H97.5V61.6515Z" fill="black"/>
<path d="M9.25758 64.4091H6.5V67.1667H9.25758V64.4091Z" fill="black"/>
<path d="M12.0152 64.4091H9.25758V67.1667H12.0152V64.4091Z" fill="black"/>
<path d="M17.5303 64.4091H14.7727V67.1667H17.5303V64.4091Z" fill="black"/>
<path d="M20.2879 64.4091H17.5303V67.1667H20.2879V64.4091Z" fill="black"/>
<path d="M28.5606 64.4091H25.803V67.1667H28.5606V64.4091Z" fill="black"/>
<path d="M31.3182 64.4091H28.5606V67.1667H31.3182V64.4091Z" fill="black"/>
<path d="M36.8333 64.4091H34.0758V67.1667H36.8333V64.4091Z" fill="black"/>
<path d="M39.5909 64.4091H36.8333V67.1667H39.5909V64.4091Z" fill="black"/>
<path d="M50.6212 64.4091H47.8636V67.1667H50.6212V64.4091Z" fill="black"/>
<path d="M53.3788 64.4091H50.6212V67.1667H53.3788V64.4091Z" fill="black"/>
<path d="M56.1364 64.4091H53.3788V67.1667H56.1364V64.4091Z" fill="black"/>
<path d="M69.9242 64.4091H67.1667V67.1667H69.9242V64.4091Z" fill="black"/>
<path d="M72.6818 64.4091H69.9242V67.1667H72.6818V64.4091Z" fill="black"/>
<path d="M75.4394 64.4091H72.6818V67.1667H75.4394V64.4091Z" fill="black"/>
<path d="M80.9546 64.4091H78.197V67.1667H80.9546V64.4091Z" fill="black"/>
<path d="M83.7121 64.4091H80.9546V67.1667H83.7121V64.4091Z" fill="black"/>
<path d="M89.2273 64.4091H86.4697V67.1667H89.2273V64.4091Z" fill="black"/>
<path d="M91.9849 64.4091H89.2273V67.1667H91.9849V64.4091Z" fill="black"/>
<path d="M94.7424 64.4091H91.9849V67.1667H94.7424V64.4091Z" fill="black"/>
<path d="M97.5 64.4091H94.7424V67.1667H97.5V64.4091Z" fill="black"/>
<path d="M9.25758 67.1667H6.5V69.9242H9.25758V67.1667Z" fill="black"/>
<path d="M12.0152 67.1667H9.25758V69.9242H12.0152V67.1667Z" fill="black"/>
<path d="M14.7727 67.1667H12.0152V69.9242H14.7727V67.1667Z" fill="black"/>
<path d="M25.803 67.1667H23.0455V69.9242H25.803V67.1667Z" fill="black"/>
<path d="M31.3182 67.1667H28.5606V69.9242H31.3182V67.1667Z" fill="black"/>
<path d="M36.8333 67.1667H34.0758V69.9242H36.8333V67.1667Z" fill="black"/>
<path d="M45.1061 67.1667H42.3485V69.9242H45.1061V67.1667Z" fill="black"/>
<path d="M47.8636 67.1667H45.1061V69.9242H47.8636V67.1667Z" fill="black"/>
<path d="M56.1364 67.1667H53.3788V69.9242H56.1364V67.1667Z" fill="black"/>
<path d="M61.6515 67.1667H58.8939V69.9242H61.6515V67.1667Z" fill="black"/>
<path d="M64.4091 67.1667H61.6515V69.9242H64.4091V67.1667Z" fill="black"/>
<path d="M69.9242 67.1667H67.1667V69.9242H69.9242V67.1667Z" fill="black"/>
<path d="M78.197 67.1667H75.4394V69.9242H78.197V67.1667Z" fill="black"/>
<path d="M80.9546 67.1667H78.197V69.9242H80.9546V67.1667Z" fill="black"/>
<path d="M89.2273 67.1667H86.4697V69.9242H89.2273V67.1667Z" fill="black"/>
<path d="M91.9849 67.1667H89.2273V69.9242H91.9849V67.1667Z" fill="black"/>
<path d="M97.5 67.1667H94.7424V69.9242H97.5V67.1667Z" fill="black"/>
<path d="M9.25758 69.9242H6.5V72.6818H9.25758V69.9242Z" fill="black"/>
<path d="M17.5303 69.9242H14.7727V72.6818H17.5303V69.9242Z" fill="black"/>
<path d="M28.5606 69.9242H25.803V72.6818H28.5606V69.9242Z" fill="black"/>
<path d="M34.0758 69.9242H31.3182V72.6818H34.0758V69.9242Z" fill="black"/>
<path d="M36.8333 69.9242H34.0758V72.6818H36.8333V69.9242Z" fill="black"/>
<path d="M53.3788 69.9242H50.6212V72.6818H53.3788V69.9242Z" fill="black"/>
<path d="M56.1364 69.9242H53.3788V72.6818H56.1364V69.9242Z" fill="black"/>
<path d="M58.8939 69.9242H56.1364V72.6818H58.8939L58.8939 69.9242Z" fill="black"/>
<path d="M69.9242 69.9242H67.1667V72.6818H69.9242V69.9242Z" fill="black"/>
<path d="M72.6818 69.9242H69.9242V72.6818H72.6818V69.9242Z" fill="black"/>
<path d="M75.4394 69.9242H72.6818V72.6818H75.4394V69.9242Z" fill="black"/>
<path d="M78.197 69.9242H75.4394V72.6818H78.197V69.9242Z" fill="black"/>
<path d="M83.7121 69.9242H80.9546V72.6818H83.7121V69.9242Z" fill="black"/>
<path d="M89.2273 69.9242H86.4697V72.6818H89.2273V69.9242Z" fill="black"/>
<path d="M91.9849 69.9242H89.2273V72.6818H91.9849V69.9242Z" fill="black"/>
<path d="M9.25758 72.6818H6.5V75.4394H9.25758V72.6818Z" fill="black"/>
<path d="M12.0152 72.6818H9.25758V75.4394H12.0152V72.6818Z" fill="black"/>
<path d="M17.5303 72.6818H14.7727V75.4394H17.5303V72.6818Z" fill="black"/>
<path d="M20.2879 72.6818H17.5303V75.4394H20.2879V72.6818Z" fill="black"/>
<path d="M25.803 72.6818H23.0455V75.4394H25.803V72.6818Z" fill="black"/>
<path d="M31.3182 72.6818H28.5606V75.4394H31.3182V72.6818Z" fill="black"/>
<path d="M42.3485 72.6818H39.5909V75.4394H42.3485V72.6818Z" fill="black"/>
<path d="M50.6212 72.6818H47.8636V75.4394H50.6212V72.6818Z" fill="black"/>
<path d="M53.3788 72.6818H50.6212V75.4394H53.3788V72.6818Z" fill="black"/>
<path d="M58.8939 72.6818H56.1364V75.4394H58.8939V72.6818Z" fill="black"/>
<path d="M61.6515 72.6818H58.8939V75.4394H61.6515V72.6818Z" fill="black"/>
<path d="M64.4091 72.6818H61.6515V75.4394H64.4091V72.6818Z" fill="black"/>
<path d="M67.1667 72.6818H64.4091V75.4394H67.1667V72.6818Z" fill="black"/>
<path d="M75.4394 72.6818H72.6818V75.4394H75.4394V72.6818Z" fill="black"/>
<path d="M78.197 72.6818H75.4394V75.4394H78.197V72.6818Z" fill="black"/>
<path d="M80.9546 72.6818H78.197V75.4394H80.9546V72.6818Z" fill="black"/>
<path d="M83.7121 72.6818H80.9546V75.4394H83.7121V72.6818Z" fill="black"/>
<path d="M86.4697 72.6818H83.7121V75.4394H86.4697V72.6818Z" fill="black"/>
<path d="M94.7424 72.6818H91.9849V75.4394H94.7424V72.6818Z" fill="black"/>
<path d="M97.5 72.6818H94.7424V75.4394H97.5V72.6818Z" fill="black"/>
<path d="M31.3182 75.4394H28.5606V78.197H31.3182V75.4394Z" fill="black"/>
<path d="M34.0758 75.4394H31.3182V78.197H34.0758V75.4394Z" fill="black"/>
<path d="M36.8333 75.4394H34.0758V78.197H36.8333V75.4394Z" fill="black"/>
<path d="M45.1061 75.4394H42.3485V78.197H45.1061V75.4394Z" fill="black"/>
<path d="M56.1364 75.4394H53.3788V78.197H56.1364V75.4394Z" fill="black"/>
<path d="M58.8939 75.4394H56.1364V78.197H58.8939V75.4394Z" fill="black"/>
<path d="M67.1667 75.4394H64.4091V78.197H67.1667V75.4394Z" fill="black"/>
<path d="M69.9242 75.4394H67.1667V78.197H69.9242V75.4394Z" fill="black"/>
<path d="M72.6818 75.4394H69.9242V78.197H72.6818V75.4394Z" fill="black"/>
<path d="M75.4394 75.4394H72.6818V78.197H75.4394V75.4394Z" fill="black"/>
<path d="M86.4697 75.4394H83.7121V78.197H86.4697V75.4394Z" fill="black"/>
<path d="M89.2273 75.4394H86.4697V78.197H89.2273V75.4394Z" fill="black"/>
<path d="M91.9849 75.4394H89.2273V78.197H91.9849V75.4394Z" fill="black"/>
<path d="M94.7424 75.4394H91.9849V78.197H94.7424V75.4394Z" fill="black"/>
<path d="M9.25758 78.197H6.5V80.9546H9.25758V78.197Z" fill="black"/>
<path d="M12.0152 78.197H9.25758V80.9546H12.0152V78.197Z" fill="black"/>
<path d="M14.7727 78.197H12.0152V80.9546H14.7727V78.197Z" fill="black"/>
<path d="M17.5303 78.197H14.7727V80.9546H17.5303V78.197Z" fill="black"/>
<path d="M20.2879 78.197H17.5303V80.9546H20.2879V78.197Z" fill="black"/>
<path d="M23.0455 78.197H20.2879V80.9546H23.0455V78.197Z" fill="black"/>
<path d="M25.803 78.197H23.0455V80.9546H25.803V78.197Z" fill="black"/>
<path d="M31.3182 78.197H28.5606V80.9546H31.3182V78.197Z" fill="black"/>
<path d="M42.3485 78.197H39.5909V80.9546H42.3485V78.197Z" fill="black"/>
<path d="M50.6212 78.197H47.8636V80.9546H50.6212V78.197Z" fill="black"/>
<path d="M53.3788 78.197H50.6212V80.9546H53.3788V78.197Z" fill="black"/>
<path d="M61.6515 78.197H58.8939L58.8939 80.9546H61.6515V78.197Z" fill="black"/>
<path d="M64.4091 78.197H61.6515V80.9546H64.4091V78.197Z" fill="black"/>
<path d="M75.4394 78.197H72.6818V80.9546H75.4394V78.197Z" fill="black"/>
<path d="M80.9546 78.197H78.197V80.9546H80.9546V78.197Z" fill="black"/>
<path d="M86.4697 78.197H83.7121V80.9546H86.4697V78.197Z" fill="black"/>
<path d="M89.2273 78.197H86.4697V80.9546H89.2273V78.197Z" fill="black"/>
<path d="M91.9849 78.197H89.2273V80.9546H91.9849V78.197Z" fill="black"/>
<path d="M97.5 78.197H94.7424V80.9546H97.5V78.197Z" fill="black"/>
<path d="M9.25758 80.9546H6.5V83.7121H9.25758V80.9546Z" fill="black"/>
<path d="M25.803 80.9546H23.0455V83.7121H25.803V80.9546Z" fill="black"/>
<path d="M31.3182 80.9546H28.5606V83.7121H31.3182V80.9546Z" fill="black"/>
<path d="M34.0758 80.9546H31.3182V83.7121H34.0758V80.9546Z" fill="black"/>
<path d="M39.5909 80.9546H36.8333V83.7121H39.5909V80.9546Z" fill="black"/>
<path d="M42.3485 80.9546H39.5909V83.7121H42.3485V80.9546Z" fill="black"/>
<path d="M56.1364 80.9546H53.3788V83.7121H56.1364V80.9546Z" fill="black"/>
<path d="M64.4091 80.9546H61.6515V83.7121H64.4091V80.9546Z" fill="black"/>
<path d="M72.6818 80.9546H69.9242V83.7121H72.6818V80.9546Z" fill="black"/>
<path d="M75.4394 80.9546H72.6818V83.7121H75.4394V80.9546Z" fill="black"/>
<path d="M86.4697 80.9546H83.7121V83.7121H86.4697V80.9546Z" fill="black"/>
<path d="M89.2273 80.9546H86.4697V83.7121H89.2273V80.9546Z" fill="black"/>
<path d="M91.9849 80.9546H89.2273V83.7121H91.9849V80.9546Z" fill="black"/>
<path d="M94.7424 80.9546H91.9849V83.7121H94.7424V80.9546Z" fill="black"/>
<path d="M9.25758 83.7121H6.5V86.4697H9.25758V83.7121Z" fill="black"/>
<path d="M14.7727 83.7121H12.0152V86.4697H14.7727V83.7121Z" fill="black"/>
<path d="M17.5303 83.7121H14.7727V86.4697H17.5303V83.7121Z" fill="black"/>
<path d="M20.2879 83.7121H17.5303V86.4697H20.2879V83.7121Z" fill="black"/>
<path d="M25.803 83.7121H23.0455V86.4697H25.803V83.7121Z" fill="black"/>
<path d="M31.3182 83.7121H28.5606V86.4697H31.3182V83.7121Z" fill="black"/>
<path d="M36.8333 83.7121H34.0758V86.4697H36.8333V83.7121Z" fill="black"/>
<path d="M39.5909 83.7121H36.8333V86.4697H39.5909V83.7121Z" fill="black"/>
<path d="M42.3485 83.7121H39.5909V86.4697H42.3485V83.7121Z" fill="black"/>
<path d="M47.8636 83.7121H45.1061V86.4697H47.8636V83.7121Z" fill="black"/>
<path d="M50.6212 83.7121H47.8636V86.4697H50.6212V83.7121Z" fill="black"/>
<path d="M53.3788 83.7121H50.6212V86.4697H53.3788V83.7121Z" fill="black"/>
<path d="M58.8939 83.7121H56.1364V86.4697H58.8939V83.7121Z" fill="black"/>
<path d="M61.6515 83.7121H58.8939V86.4697H61.6515V83.7121Z" fill="black"/>
<path d="M64.4091 83.7121H61.6515V86.4697H64.4091V83.7121Z" fill="black"/>
<path d="M69.9242 83.7121H67.1667V86.4697H69.9242V83.7121Z" fill="black"/>
<path d="M72.6818 83.7121H69.9242V86.4697H72.6818V83.7121Z" fill="black"/>
<path d="M75.4394 83.7121H72.6818V86.4697H75.4394V83.7121Z" fill="black"/>
<path d="M78.197 83.7121H75.4394V86.4697H78.197V83.7121Z" fill="black"/>
<path d="M80.9546 83.7121H78.197V86.4697H80.9546V83.7121Z" fill="black"/>
<path d="M83.7121 83.7121H80.9546V86.4697H83.7121V83.7121Z" fill="black"/>
<path d="M86.4697 83.7121H83.7121V86.4697H86.4697V83.7121Z" fill="black"/>
<path d="M89.2273 83.7121H86.4697V86.4697H89.2273V83.7121Z" fill="black"/>
<path d="M91.9849 83.7121H89.2273V86.4697H91.9849V83.7121Z" fill="black"/>
<path d="M9.25758 86.4697H6.5V89.2273H9.25758V86.4697Z" fill="black"/>
<path d="M14.7727 86.4697H12.0152V89.2273H14.7727V86.4697Z" fill="black"/>
<path d="M17.5303 86.4697H14.7727V89.2273H17.5303V86.4697Z" fill="black"/>
<path d="M20.2879 86.4697H17.5303V89.2273H20.2879V86.4697Z" fill="black"/>
<path d="M25.803 86.4697H23.0455V89.2273H25.803V86.4697Z" fill="black"/>
<path d="M31.3182 86.4697H28.5606V89.2273H31.3182V86.4697Z" fill="black"/>
<path d="M36.8333 86.4697H34.0758V89.2273H36.8333V86.4697Z" fill="black"/>
<path d="M39.5909 86.4697H36.8333V89.2273H39.5909V86.4697Z" fill="black"/>
<path d="M42.3485 86.4697H39.5909V89.2273H42.3485V86.4697Z" fill="black"/>
<path d="M45.1061 86.4697H42.3485V89.2273H45.1061V86.4697Z" fill="black"/>
<path d="M47.8636 86.4697H45.1061V89.2273H47.8636V86.4697Z" fill="black"/>
<path d="M50.6212 86.4697H47.8636V89.2273H50.6212V86.4697Z" fill="black"/>
<path d="M53.3788 86.4697H50.6212V89.2273H53.3788V86.4697Z" fill="black"/>
<path d="M58.8939 86.4697H56.1364V89.2273H58.8939V86.4697Z" fill="black"/>
<path d="M72.6818 86.4697H69.9242V89.2273H72.6818V86.4697Z" fill="black"/>
<path d="M75.4394 86.4697H72.6818V89.2273H75.4394V86.4697Z" fill="black"/>
<path d="M78.197 86.4697H75.4394V89.2273H78.197V86.4697Z" fill="black"/>
<path d="M80.9546 86.4697H78.197V89.2273H80.9546V86.4697Z" fill="black"/>
<path d="M89.2273 86.4697H86.4697V89.2273H89.2273V86.4697Z" fill="black"/>
<path d="M94.7424 86.4697H91.9849V89.2273H94.7424V86.4697Z" fill="black"/>
<path d="M97.5 86.4697H94.7424V89.2273H97.5V86.4697Z" fill="black"/>
<path d="M9.25758 89.2273H6.5V91.9849H9.25758V89.2273Z" fill="black"/>
<path d="M14.7727 89.2273H12.0152V91.9849H14.7727V89.2273Z" fill="black"/>
<path d="M17.5303 89.2273H14.7727V91.9849H17.5303V89.2273Z" fill="black"/>
<path d="M20.2879 89.2273H17.5303V91.9849H20.2879V89.2273Z" fill="black"/>
<path d="M25.803 89.2273H23.0455V91.9849H25.803V89.2273Z" fill="black"/>
<path d="M45.1061 89.2273H42.3485V91.9849H45.1061V89.2273Z" fill="black"/>
<path d="M47.8636 89.2273H45.1061V91.9849H47.8636V89.2273Z" fill="black"/>
<path d="M56.1364 89.2273H53.3788V91.9849H56.1364V89.2273Z" fill="black"/>
<path d="M67.1667 89.2273H64.4091V91.9849H67.1667V89.2273Z" fill="black"/>
<path d="M78.197 89.2273H75.4394V91.9849H78.197V89.2273Z" fill="black"/>
<path d="M80.9546 89.2273H78.197V91.9849H80.9546V89.2273Z" fill="black"/>
<path d="M89.2273 89.2273H86.4697V91.9849H89.2273V89.2273Z" fill="black"/>
<path d="M91.9849 89.2273H89.2273V91.9849H91.9849V89.2273Z" fill="black"/>
<path d="M9.25758 91.9849H6.5V94.7424H9.25758V91.9849Z" fill="black"/>
<path d="M25.803 91.9849H23.0455V94.7424H25.803V91.9849Z" fill="black"/>
<path d="M47.8636 91.9849H45.1061V94.7424H47.8636V91.9849Z" fill="black"/>
<path d="M53.3788 91.9849H50.6212V94.7424H53.3788V91.9849Z" fill="black"/>
<path d="M64.4091 91.9849H61.6515V94.7424H64.4091V91.9849Z" fill="black"/>
<path d="M75.4394 91.9849H72.6818V94.7424H75.4394V91.9849Z" fill="black"/>
<path d="M86.4697 91.9849H83.7121V94.7424H86.4697V91.9849Z" fill="black"/>
<path d="M89.2273 91.9849H86.4697V94.7424H89.2273V91.9849Z" fill="black"/>
<path d="M9.25758 94.7424H6.5V97.5H9.25758V94.7424Z" fill="black"/>
<path d="M12.0152 94.7424H9.25758V97.5H12.0152V94.7424Z" fill="black"/>
<path d="M14.7727 94.7424H12.0152V97.5H14.7727V94.7424Z" fill="black"/>
<path d="M17.5303 94.7424H14.7727V97.5H17.5303V94.7424Z" fill="black"/>
<path d="M20.2879 94.7424H17.5303V97.5H20.2879V94.7424Z" fill="black"/>
<path d="M23.0455 94.7424H20.2879V97.5H23.0455V94.7424Z" fill="black"/>
<path d="M25.803 94.7424H23.0455V97.5H25.803V94.7424Z" fill="black"/>
<path d="M31.3182 94.7424H28.5606V97.5H31.3182V94.7424Z" fill="black"/>
<path d="M42.3485 94.7424H39.5909V97.5H42.3485V94.7424Z" fill="black"/>
<path d="M53.3788 94.7424H50.6212V97.5H53.3788V94.7424Z" fill="black"/>
<path d="M72.6818 94.7424H69.9242V97.5H72.6818V94.7424Z" fill="black"/>
<path d="M83.7121 94.7424H80.9546V97.5H83.7121V94.7424Z" fill="black"/>
<path d="M86.4697 94.7424H83.7121V97.5H86.4697V94.7424Z" fill="black"/>
<path d="M97.5 94.7424H94.7424V97.5H97.5V94.7424Z" fill="black"/>
</g>
<defs>
<clipPath id="clip0_578_8796">
<rect width="104" height="104" fill="white"/>
</clipPath>
</defs>
</svg>
