<svg width="39" height="38" viewBox="0 0 39 38" fill="none" xmlns="http://www.w3.org/2000/svg">
<path d="M27 6.5H18.875C18.5312 6.5 18.25 6.78125 18.25 7.125C18.25 7.46875 18.5312 7.75 18.875 7.75H27C27.6875 7.75 28.25 8.3125 28.25 9V10.25H10.75V9C10.75 8.3125 11.3125 7.75 12 7.75H16.375C16.7188 7.75 17 7.46875 17 7.125C17 6.78125 16.7188 6.5 16.375 6.5H12C10.6187 6.5 9.5 7.61875 9.5 9V10.875C9.5 11.2188 9.78125 11.5 10.125 11.5H28.875C29.2188 11.5 29.5 11.2188 29.5 10.875V9C29.5 7.61875 28.3813 6.5 27 6.5ZM28.875 12.75C28.5312 12.75 28.25 13.0312 28.25 13.375V29C28.25 29.6875 27.6875 30.25 27 30.25H12C11.3125 30.25 10.75 29.6875 10.75 29V13.375C10.75 13.0312 10.4688 12.75 10.125 12.75C9.78125 12.75 9.5 13.0312 9.5 13.375V29C9.5 30.3813 10.6187 31.5 12 31.5H27C28.3813 31.5 29.5 30.3813 29.5 29V13.375C29.5 13.0312 29.2188 12.75 28.875 12.75Z" fill="#98A2B3"/>
<path d="M26.375 9.625C26.7202 9.625 27 9.34518 27 9C27 8.65482 26.7202 8.375 26.375 8.375C26.0298 8.375 25.75 8.65482 25.75 9C25.75 9.34518 26.0298 9.625 26.375 9.625Z" fill="#98A2B3"/>
<path d="M23.875 9.625C24.2202 9.625 24.5 9.34518 24.5 9C24.5 8.65482 24.2202 8.375 23.875 8.375C23.5298 8.375 23.25 8.65482 23.25 9C23.25 9.34518 23.5298 9.625 23.875 9.625Z" fill="#98A2B3"/>
<path d="M23.9766 24.3312C24.2703 24.5125 24.6578 24.4188 24.8391 24.125C25.4393 23.1472 25.7573 22.0224 25.7578 20.875C25.7578 17.4312 22.9516 14.625 19.5078 14.625C16.0641 14.625 13.2578 17.4312 13.2578 20.875C13.2578 24.3188 16.0641 27.125 19.5078 27.125C20.7203 27.125 21.8953 26.775 22.9078 26.1187C23.1953 25.9312 23.2766 25.5437 23.0891 25.2562C22.9016 24.9687 22.5141 24.8875 22.2266 25.075C21.4199 25.6014 20.4773 25.8816 19.5141 25.8812C16.7578 25.8812 14.5141 23.6375 14.5141 20.8812C14.5141 18.125 16.7578 15.8813 19.5141 15.8813C22.2703 15.8813 24.5141 18.125 24.5141 20.8812C24.5141 21.8 24.2578 22.7 23.7828 23.4812C23.6016 23.775 23.6953 24.1625 23.9891 24.3438L23.9766 24.3312Z" fill="#D0D5DD"/>
<path d="M21.8192 18.5561C21.7614 18.4982 21.6927 18.4522 21.6171 18.4208C21.5415 18.3895 21.4605 18.3733 21.3786 18.3733C21.2968 18.3733 21.2157 18.3895 21.1401 18.4208C21.0645 18.4522 20.9958 18.4982 20.938 18.5561L19.5067 19.9873L18.0755 18.5561C17.9586 18.4392 17.8001 18.3736 17.6349 18.3736C17.4696 18.3736 17.3111 18.4392 17.1942 18.5561C17.0774 18.673 17.0117 18.8315 17.0117 18.9967C17.0117 19.162 17.0774 19.3205 17.1942 19.4373L18.6255 20.8686L17.1942 22.2998C17.107 22.3871 17.0477 22.4984 17.0238 22.6194C17 22.7405 17.0126 22.8659 17.0602 22.9798C17.1077 23.0936 17.188 23.1908 17.2909 23.2589C17.3938 23.327 17.5146 23.363 17.638 23.3623C17.8005 23.3623 17.9567 23.2998 18.0817 23.1811L19.513 21.7498L20.9442 23.1811C21.0692 23.3061 21.2255 23.3623 21.388 23.3623C21.5505 23.3623 21.7067 23.2998 21.8317 23.1811C21.8897 23.1233 21.9356 23.0546 21.967 22.979C21.9984 22.9034 22.0145 22.8223 22.0145 22.7405C22.0145 22.6586 21.9984 22.5776 21.967 22.502C21.9356 22.4263 21.8897 22.3577 21.8317 22.2998L20.4005 20.8686L21.8317 19.4373C21.8897 19.3795 21.9356 19.3108 21.967 19.2352C21.9984 19.1596 22.0145 19.0786 22.0145 18.9967C22.0145 18.9149 21.9984 18.8338 21.967 18.7582C21.9356 18.6826 21.8897 18.6139 21.8317 18.5561H21.8192Z" fill="#D0D5DD"/>
<path d="M1.375 17.75H7.625C7.96875 17.75 8.25 17.4688 8.25 17.125C8.25 16.7812 7.96875 16.5 7.625 16.5H2V15.25C2 14.5625 2.5625 14 3.25 14H7.625C7.96875 14 8.25 13.7188 8.25 13.375C8.25 13.0312 7.96875 12.75 7.625 12.75H3.25C1.86875 12.75 0.75 13.8687 0.75 15.25V17.125C0.75 17.4688 1.03125 17.75 1.375 17.75Z" fill="#98A2B3"/>
<path d="M20.125 32.75C19.7812 32.75 19.5 33.0312 19.5 33.375V35.25C19.5 35.9375 18.9375 36.5 18.25 36.5H13.25C12.9062 36.5 12.625 36.7812 12.625 37.125C12.625 37.4688 12.9062 37.75 13.25 37.75H18.25C19.6313 37.75 20.75 36.6313 20.75 35.25V33.375C20.75 33.0312 20.4688 32.75 20.125 32.75ZM10.75 36.5H3.25C2.5625 36.5 2 35.9375 2 35.25V19.625C2 19.2812 1.71875 19 1.375 19C1.03125 19 0.75 19.2812 0.75 19.625V35.25C0.75 36.6313 1.86875 37.75 3.25 37.75H10.75C11.0938 37.75 11.375 37.4688 11.375 37.125C11.375 36.7812 11.0938 36.5 10.75 36.5Z" fill="#D0D5DD"/>
<path d="M35.75 0.25H20.75C19.3687 0.25 18.25 1.36875 18.25 2.75V4.625C18.25 4.96875 18.5312 5.25 18.875 5.25H37.625C37.9688 5.25 38.25 4.96875 38.25 4.625V2.75C38.25 1.36875 37.1313 0.25 35.75 0.25ZM37 4H19.5V2.75C19.5 2.0625 20.0625 1.5 20.75 1.5H35.75C36.4375 1.5 37 2.0625 37 2.75V4Z" fill="#98A2B3"/>
<path d="M37.625 6.5C37.2812 6.5 37 6.78125 37 7.125V22.75C37 23.4375 36.4375 24 35.75 24H31.375C31.0312 24 30.75 24.2812 30.75 24.625C30.75 24.9688 31.0312 25.25 31.375 25.25H35.75C37.1312 25.25 38.25 24.1313 38.25 22.75V7.125C38.25 6.78125 37.9688 6.5 37.625 6.5Z" fill="#D0D5DD"/>
<path d="M35.125 3.375C35.4702 3.375 35.75 3.09518 35.75 2.75C35.75 2.40482 35.4702 2.125 35.125 2.125C34.7798 2.125 34.5 2.40482 34.5 2.75C34.5 3.09518 34.7798 3.375 35.125 3.375Z" fill="#98A2B3"/>
<path d="M32.625 3.375C32.9702 3.375 33.25 3.09518 33.25 2.75C33.25 2.40482 32.9702 2.125 32.625 2.125C32.2798 2.125 32 2.40482 32 2.75C32 3.09518 32.2798 3.375 32.625 3.375Z" fill="#98A2B3"/>
<path d="M31.375 9.625H34.5C34.8438 9.625 35.125 9.34375 35.125 9C35.125 8.65625 34.8438 8.375 34.5 8.375H31.375C31.0312 8.375 30.75 8.65625 30.75 9C30.75 9.34375 31.0312 9.625 31.375 9.625ZM31.375 13.375H34.5C34.8438 13.375 35.125 13.0938 35.125 12.75C35.125 12.4062 34.8438 12.125 34.5 12.125H31.375C31.0312 12.125 30.75 12.4062 30.75 12.75C30.75 13.0938 31.0312 13.375 31.375 13.375ZM31.375 17.125H34.5C34.8438 17.125 35.125 16.8438 35.125 16.5C35.125 16.1562 34.8438 15.875 34.5 15.875H31.375C31.0312 15.875 30.75 16.1562 30.75 16.5C30.75 16.8438 31.0312 17.125 31.375 17.125ZM31.375 20.875H34.5C34.8438 20.875 35.125 20.5938 35.125 20.25C35.125 19.9062 34.8438 19.625 34.5 19.625H31.375C31.0312 19.625 30.75 19.9062 30.75 20.25C30.75 20.5938 31.0312 20.875 31.375 20.875ZM7.625 20.875H4.5C4.15625 20.875 3.875 21.1562 3.875 21.5C3.875 21.8438 4.15625 22.125 4.5 22.125H7.625C7.96875 22.125 8.25 21.8438 8.25 21.5C8.25 21.1562 7.96875 20.875 7.625 20.875ZM7.625 24.625H4.5C4.15625 24.625 3.875 24.9062 3.875 25.25C3.875 25.5938 4.15625 25.875 4.5 25.875H7.625C7.96875 25.875 8.25 25.5938 8.25 25.25C8.25 24.9062 7.96875 24.625 7.625 24.625ZM7.625 28.375H4.5C4.15625 28.375 3.875 28.6562 3.875 29C3.875 29.3438 4.15625 29.625 4.5 29.625H7.625C7.96875 29.625 8.25 29.3438 8.25 29C8.25 28.6562 7.96875 28.375 7.625 28.375ZM7.625 32.125H4.5C4.15625 32.125 3.875 32.4062 3.875 32.75C3.875 33.0938 4.15625 33.375 4.5 33.375H7.625C7.96875 33.375 8.25 33.0938 8.25 32.75C8.25 32.4062 7.96875 32.125 7.625 32.125Z" fill="#D0D5DD"/>
</svg>
