<svg width="40" height="40" viewBox="0 0 40 40" fill="none" xmlns="http://www.w3.org/2000/svg">
<rect width="40" height="40" rx="20" fill="#1877F2"/>
<g clip-path="url(#clip0_1041_21293)">
<path d="M31 17.9998C31 11.9247 26.0751 6.99984 20 6.99984C13.9249 6.99984 9 11.9247 9 17.9998C9 23.4903 13.0225 28.041 18.2812 28.8662V21.1795H15.4883V17.9998H18.2812V15.5764C18.2812 12.8195 19.9235 11.2967 22.4361 11.2967C23.6396 11.2967 24.8984 11.5116 24.8984 11.5116V14.2186H23.5114C22.1449 14.2186 21.7188 15.0665 21.7188 15.9364V17.9998H24.7695L24.2818 21.1795H21.7188V28.8662C26.9775 28.041 31 23.4903 31 17.9998Z" fill="#1877F2"/>
<path d="M24.2818 21.1797L24.7695 18H21.7188V15.9366C21.7188 15.0667 22.1449 14.2188 23.5114 14.2188H24.8984V11.5117C24.8984 11.5117 23.6396 11.2969 22.4361 11.2969C19.9235 11.2969 18.2813 12.8197 18.2813 15.5766V18H15.4883V21.1797H18.2813V28.8664C18.8413 28.9542 19.4153 29 20 29C20.5847 29 21.1587 28.9542 21.7188 28.8664V21.1797H24.2818Z" fill="white"/>
</g>
<defs>
<clipPath id="clip0_1041_21293">
<rect width="22" height="22" fill="white" transform="translate(9 7)"/>
</clipPath>
</defs>
</svg>
