<svg
  xmlns="http://www.w3.org/2000/svg"
  viewBox="0 0 400 300"
  width="400"
  height="300"
>
  <!-- Background (blue) -->
  <rect width="100%" height="100%" fill="#2563EB" />

  <!-- Centered, BIG, WHITE logo -->
  <g transform="translate(100 70) scale(2)">
    <g id="ocean-waves">
      <!-- Back wave -->
      <path
        d="M 10 85 C 15 83, 18 78, 22 72 C 26 66, 30 62, 35 65 C 40 68, 42 75, 45 82 C 48 89, 50 92, 55 92 C 60 92, 65 88, 70 85 C 75 82, 80 85, 85 88 C 90 91, 95 90, 100 87 C 105 84, 108 85, 112 87 L 112 100 L 10 100 Z"
        fill="#FFFFFF"
      />

      <!-- Middle wave -->
      <path
        d="M 20 90 C 25 88, 28 82, 33 72 C 38 62, 42 55, 48 58 C 54 61, 58 70, 62 80 C 66 90, 70 95, 78 92 C 86 89, 92 82, 98 85 C 104 88, 108 92, 115 90 L 115 100 L 20 100 Z"
        fill="#FFFFFF"
      />

      <!-- Front wave -->
      <path
        d="M 30 92 C 35 90, 40 85, 45 75 C 50 65, 54 52, 60 48 C 66 44, 70 50, 74 60 C 78 70, 82 82, 88 88 C 94 94, 100 96, 106 94 C 112 92, 116 94, 120 95 L 120 100 L 30 100 Z"
        fill="#FFFFFF"
      />
    </g>
  </g>
</svg>
