<svg width="651" height="314" viewBox="0 0 651 314" fill="none" xmlns="http://www.w3.org/2000/svg">
<rect x="1.65818" y="1.65818" width="647.684" height="310.684" rx="14.3418" fill="#F9F9F9"/>
<rect x="1.65818" y="1.65818" width="647.684" height="310.684" rx="14.3418" stroke="#F0F2F5" stroke-width="3.31636"/>
<rect x="6.63281" y="6.63281" width="637.735" height="300.735" rx="8" fill="white"/>
<path d="M177.5 115C177.5 102.021 188.021 91.5 201 91.5H308C320.979 91.5 331.5 102.021 331.5 115C331.5 127.979 320.979 138.5 308 138.5H177.5V115Z" fill="#F9F9F9"/>
<path d="M177.5 115C177.5 102.021 188.021 91.5 201 91.5H308C320.979 91.5 331.5 102.021 331.5 115C331.5 127.979 320.979 138.5 308 138.5H177.5V115Z" stroke="#F2F2F2"/>
<circle cx="223" cy="115" r="6" fill="#E5E5E5"/>
<circle cx="258" cy="115" r="6" fill="#E5E5E5"/>
<circle cx="293" cy="115" r="6" fill="#E5E5E5"/>
<path d="M471.5 163C471.5 150.021 460.979 139.5 448 139.5H341C328.021 139.5 317.5 150.021 317.5 163C317.5 175.979 328.021 186.5 341 186.5H471.5V163Z" fill="#F9F9F9"/>
<path d="M471.5 163C471.5 150.021 460.979 139.5 448 139.5H341C328.021 139.5 317.5 150.021 317.5 163C317.5 175.979 328.021 186.5 341 186.5H471.5V163Z" stroke="#F2F2F2"/>
<circle cx="6" cy="6" r="6" transform="matrix(-1 0 0 1 432 157)" fill="#E5E5E5"/>
<circle cx="6" cy="6" r="6" transform="matrix(-1 0 0 1 397 157)" fill="#E5E5E5"/>
<circle cx="6" cy="6" r="6" transform="matrix(-1 0 0 1 362 157)" fill="#E5E5E5"/>
<rect x="101.5" y="121.5" width="99" height="99" rx="49.5" fill="#F9FDFD"/>
<rect x="101.5" y="121.5" width="99" height="99" rx="49.5" stroke="#E3F4F5"/>
<path d="M132.485 163C132.485 154.163 140.843 147 151.152 147C161.461 147 169.819 154.163 169.819 163M169.819 184.333V186.467C169.819 191.179 165.045 195 159.152 195H153.819M164.485 167.813C164.485 166.891 164.485 166.429 164.624 166.019C165.027 164.824 166.091 164.363 167.157 163.877C168.352 163.331 168.949 163.059 169.544 163.011C170.216 162.957 170.891 163.101 171.467 163.424C172.229 163.851 172.763 164.667 173.307 165.328C175.821 168.384 177.08 169.912 177.539 171.595C177.912 172.955 177.912 174.379 177.539 175.736C176.869 178.195 174.749 180.253 173.179 182.163C172.376 183.136 171.973 183.624 171.467 183.909C170.881 184.234 170.212 184.378 169.544 184.323C168.949 184.275 168.352 184.003 167.155 183.456C166.088 182.971 165.027 182.509 164.624 181.315C164.485 180.904 164.485 180.443 164.485 179.52V167.813ZM137.819 167.813C137.819 166.651 137.787 165.608 136.848 164.792C136.507 164.496 136.053 164.291 135.149 163.877C133.952 163.333 133.355 163.059 132.76 163.011C130.981 162.867 130.024 164.083 129 165.331C126.483 168.384 125.224 169.912 124.763 171.597C124.392 172.953 124.392 174.383 124.763 175.739C125.435 178.195 127.557 180.256 129.125 182.163C130.115 183.363 131.061 184.459 132.76 184.323C133.355 184.275 133.952 184.003 135.149 183.456C136.056 183.045 136.507 182.837 136.848 182.541C137.787 181.725 137.819 180.683 137.819 179.523V167.813Z" stroke="#00B4BE" stroke-width="2.6" stroke-linecap="round" stroke-linejoin="round"/>
<rect x="467.5" y="121.5" width="99" height="99" rx="49.5" fill="#F9FDFD"/>
<rect x="467.5" y="121.5" width="99" height="99" rx="49.5" stroke="#E3F4F5"/>
<path d="M504.85 184.333C511.069 177.821 522.565 177.514 528.85 184.333M543.517 171C543.517 185.727 531.578 197.666 516.85 197.666C502.123 197.666 490.184 185.727 490.184 171C490.184 156.272 502.123 144.333 516.85 144.333C531.578 144.333 543.517 156.272 543.517 171ZM523.504 164.333C523.504 168.013 520.517 171 516.829 171C515.953 171.001 515.084 170.83 514.274 170.495C513.464 170.161 512.728 169.67 512.108 169.051C511.488 168.432 510.996 167.696 510.66 166.887C510.324 166.077 510.152 165.209 510.152 164.333C510.152 160.653 513.138 157.666 516.829 157.666C517.705 157.665 518.573 157.837 519.383 158.172C520.192 158.506 520.928 158.997 521.548 159.616C522.168 160.235 522.66 160.971 522.995 161.78C523.331 162.589 523.504 163.457 523.504 164.333Z" stroke="#00B4BE" stroke-width="2.6" stroke-linecap="round" stroke-linejoin="round"/>
</svg>
