<svg width="638" height="294" viewBox="0 0 638 294" fill="none" xmlns="http://www.w3.org/2000/svg">
<g clip-path="url(#clip0_824_15173)">
<rect width="637.735" height="300.735" rx="8" fill="white"/>
<g clip-path="url(#clip1_824_15173)">
<path d="M0 4.87321C0 0.175473 3.80827 -3.63281 8.506 -3.63281H613.85C618.547 -3.63281 622.356 0.175454 622.356 4.87319V291.861C622.356 296.559 618.547 300.367 613.85 300.367H8.50599C3.80825 300.367 0 296.559 0 291.861V4.87321Z" fill="white"/>
<rect x="0.352809" y="-3.28" width="621.65" height="303.294" stroke="white" stroke-width="0.705619" stroke-linecap="round"/>
<g clip-path="url(#clip2_824_15173)">
<path opacity="0.6" d="M24.3984 16.6238C24.8645 16.7184 25.2429 16.9211 25.5333 17.2318C25.8238 17.5358 25.9691 17.9243 25.9691 18.3972C25.9691 18.7822 25.8644 19.1234 25.6549 19.4206C25.4523 19.7179 25.155 19.951 24.7632 20.1198C24.3781 20.282 23.9255 20.363 23.4053 20.363C22.8852 20.363 22.4292 20.282 22.0373 20.1198C21.6523 19.951 21.355 19.7179 21.1456 19.4206C20.9429 19.1234 20.8416 18.7822 20.8416 18.3972C20.8416 17.931 20.9869 17.546 21.2773 17.242C21.5678 16.9312 21.9461 16.7252 22.4123 16.6238C22.0137 16.5428 21.6861 16.3604 21.4293 16.0766C21.1726 15.7862 21.0443 15.4349 21.0443 15.0228C21.0443 14.6512 21.1389 14.3236 21.328 14.0398C21.5239 13.7561 21.8009 13.5366 22.1589 13.3812C22.517 13.219 22.9325 13.138 23.4053 13.138C23.8782 13.138 24.2937 13.219 24.6517 13.3812C25.0098 13.5366 25.2834 13.7561 25.4725 14.0398C25.6685 14.3236 25.7664 14.6512 25.7664 15.0228C25.7664 15.4281 25.6381 15.7794 25.3813 16.0766C25.1246 16.3671 24.797 16.5495 24.3984 16.6238ZM21.8853 15.0228C21.8853 15.3741 22.0272 15.6612 22.3109 15.8841C22.5947 16.1003 22.9595 16.2084 23.4053 16.2084C23.8512 16.2084 24.216 16.1003 24.4997 15.8841C24.7835 15.6612 24.9253 15.3741 24.9253 15.0228C24.9253 14.6782 24.7835 14.3979 24.4997 14.1817C24.216 13.9588 23.8512 13.8473 23.4053 13.8473C22.9595 13.8473 22.5947 13.9588 22.3109 14.1817C22.0272 14.3979 21.8853 14.6782 21.8853 15.0228ZM23.4053 19.6638C23.9053 19.6638 24.314 19.5422 24.6315 19.299C24.9557 19.0558 25.1179 18.7451 25.1179 18.3668C25.1179 18.1168 25.0436 17.8905 24.8949 17.6878C24.7463 17.4852 24.5403 17.3264 24.2768 17.2116C24.0201 17.0967 23.7296 17.0393 23.4053 17.0393C23.0811 17.0393 22.7872 17.0967 22.5237 17.2116C22.267 17.3264 22.0644 17.4852 21.9157 17.6878C21.7671 17.8905 21.6928 18.1168 21.6928 18.3668C21.6928 18.7451 21.8549 19.0558 22.1792 19.299C22.5035 19.5422 22.9122 19.6638 23.4053 19.6638ZM27.1203 16.5934C27.1203 15.9246 27.2318 15.3302 27.4547 14.81C27.6844 14.2898 28.0019 13.8845 28.4073 13.594C28.8193 13.2967 29.2889 13.1481 29.8158 13.1481C30.336 13.1481 30.7987 13.2967 31.2041 13.594C31.6161 13.8845 31.9337 14.2898 32.1566 14.81C32.3863 15.3302 32.5011 15.9246 32.5011 16.5934V16.9177C32.5011 17.6135 32.3863 18.2215 32.1566 18.7417C31.9337 19.2619 31.6195 19.6638 31.2142 19.9476C30.8089 20.2246 30.3427 20.363 29.8158 20.363C29.2821 20.363 28.8126 20.2246 28.4073 19.9476C28.0019 19.6638 27.6844 19.2619 27.4547 18.7417C27.2318 18.2215 27.1203 17.6135 27.1203 16.9177V16.5934ZM31.6398 16.6238C31.6398 16.0699 31.5621 15.5902 31.4067 15.1849C31.2581 14.7796 31.0453 14.4688 30.7683 14.2526C30.4981 14.0365 30.1806 13.9284 29.8158 13.9284C29.451 13.9284 29.1301 14.0365 28.8531 14.2526C28.5761 14.4688 28.36 14.7796 28.2046 15.1849C28.056 15.5902 27.9817 16.0699 27.9817 16.6238V16.8873C27.9817 17.4413 28.056 17.9209 28.2046 18.3262C28.36 18.7316 28.5761 19.0423 28.8531 19.2585C29.1301 19.4747 29.451 19.5828 29.8158 19.5828C30.1806 19.5828 30.4981 19.4747 30.7683 19.2585C31.0453 19.0423 31.2581 18.7316 31.4067 18.3262C31.5621 17.9209 31.6398 17.4413 31.6398 16.8873V16.6238ZM33.6563 16.5934C33.6563 15.9246 33.7678 15.3302 33.9907 14.81C34.2204 14.2898 34.5379 13.8845 34.9433 13.594C35.3553 13.2967 35.8249 13.1481 36.3518 13.1481C36.872 13.1481 37.3347 13.2967 37.7401 13.594C38.1521 13.8845 38.4697 14.2898 38.6926 14.81C38.9223 15.3302 39.0371 15.9246 39.0371 16.5934V16.9177C39.0371 17.6135 38.9223 18.2215 38.6926 18.7417C38.4697 19.2619 38.1555 19.6638 37.7502 19.9476C37.3449 20.2246 36.8787 20.363 36.3518 20.363C35.8181 20.363 35.3486 20.2246 34.9433 19.9476C34.5379 19.6638 34.2204 19.2619 33.9907 18.7417C33.7678 18.2215 33.6563 17.6135 33.6563 16.9177V16.5934ZM38.1758 16.6238C38.1758 16.0699 38.0981 15.5902 37.9427 15.1849C37.7941 14.7796 37.5813 14.4688 37.3043 14.2526C37.0341 14.0365 36.7166 13.9284 36.3518 13.9284C35.987 13.9284 35.6661 14.0365 35.3891 14.2526C35.1121 14.4688 34.896 14.7796 34.7406 15.1849C34.592 15.5902 34.5177 16.0699 34.5177 16.6238V16.8873C34.5177 17.4413 34.592 17.9209 34.7406 18.3262C34.896 18.7316 35.1121 19.0423 35.3891 19.2585C35.6661 19.4747 35.987 19.5828 36.3518 19.5828C36.7166 19.5828 37.0341 19.4747 37.3043 19.2585C37.5813 19.0423 37.7941 18.7316 37.9427 18.3262C38.0981 17.9209 38.1758 17.4413 38.1758 16.8873V16.6238Z" fill="#070D17"/>
<path opacity="0.6" d="M21.3594 80.3839C21.1837 80.0731 21.0452 79.7117 20.9439 79.2996C20.8493 78.8875 20.802 78.4484 20.802 77.9823C20.802 77.2392 20.9067 76.594 21.1162 76.0468C21.3323 75.4996 21.6431 75.0808 22.0484 74.7903C22.4538 74.493 22.9368 74.3444 23.4975 74.3444C24.1393 74.3444 24.6662 74.5234 25.0783 74.8815C25.4971 75.2328 25.7505 75.7056 25.8383 76.3001H24.9871C24.906 75.9286 24.7338 75.6347 24.4703 75.4185C24.2136 75.2024 23.8758 75.0943 23.457 75.0943C22.849 75.0943 22.3761 75.3442 22.0383 75.8441C21.7073 76.344 21.5418 77.0027 21.5418 77.8201L21.5519 78.1647C21.5722 78.0768 21.5924 78.0127 21.6127 77.9721C21.7748 77.6141 22.0282 77.3304 22.3727 77.1209C22.7172 76.9115 23.1226 76.8068 23.5887 76.8068C24.0548 76.8068 24.4669 76.9048 24.825 77.1007C25.183 77.2966 25.4634 77.5736 25.666 77.9316C25.8687 78.2896 25.97 78.7051 25.97 79.178C25.97 79.6306 25.8653 80.0393 25.6559 80.4041C25.4465 80.7622 25.156 81.0459 24.7844 81.2553C24.4129 81.458 23.9873 81.5593 23.5076 81.5593C23.028 81.5593 22.6058 81.458 22.241 81.2553C21.8829 81.0459 21.5891 80.7554 21.3594 80.3839ZM25.1188 79.178C25.1188 78.6984 24.9736 78.3099 24.6831 78.0127C24.3994 77.7087 24.0143 77.5567 23.5279 77.5567C23.0347 77.5567 22.6362 77.7087 22.3322 78.0127C22.0282 78.3167 21.8762 78.7119 21.8762 79.1983C21.8762 79.6779 22.0248 80.0664 22.322 80.3636C22.6193 80.6608 23.0111 80.8095 23.4975 80.8095C23.9839 80.8095 24.3757 80.6575 24.673 80.3535C24.9702 80.0495 25.1188 79.6576 25.1188 79.178ZM27.1203 77.7897C27.1203 77.1209 27.2318 76.5264 27.4547 76.0063C27.6844 75.4861 28.0019 75.0808 28.4073 74.7903C28.8193 74.493 29.2889 74.3444 29.8158 74.3444C30.336 74.3444 30.7987 74.493 31.2041 74.7903C31.6161 75.0808 31.9337 75.4861 32.1566 76.0063C32.3863 76.5264 32.5011 77.1209 32.5011 77.7897V78.114C32.5011 78.8098 32.3863 79.4178 32.1566 79.938C31.9337 80.4582 31.6195 80.8601 31.2142 81.1439C30.8089 81.4208 30.3427 81.5593 29.8158 81.5593C29.2821 81.5593 28.8126 81.4208 28.4073 81.1439C28.0019 80.8601 27.6844 80.4582 27.4547 79.938C27.2318 79.4178 27.1203 78.8098 27.1203 78.114V77.7897ZM31.6398 77.8201C31.6398 77.2662 31.5621 76.7865 31.4067 76.3812C31.2581 75.9759 31.0453 75.6651 30.7683 75.4489C30.4981 75.2328 30.1806 75.1247 29.8158 75.1247C29.451 75.1247 29.1301 75.2328 28.8531 75.4489C28.5761 75.6651 28.36 75.9759 28.2046 76.3812C28.056 76.7865 27.9817 77.2662 27.9817 77.8201V78.0836C27.9817 78.6376 28.056 79.1172 28.2046 79.5225C28.36 79.9279 28.5761 80.2386 28.8531 80.4548C29.1301 80.671 29.451 80.7791 29.8158 80.7791C30.1806 80.7791 30.4981 80.671 30.7683 80.4548C31.0453 80.2386 31.2581 79.9279 31.4067 79.5225C31.5621 79.1172 31.6398 78.6376 31.6398 78.0836V77.8201ZM33.6563 77.7897C33.6563 77.1209 33.7678 76.5264 33.9907 76.0063C34.2204 75.4861 34.5379 75.0808 34.9433 74.7903C35.3553 74.493 35.8249 74.3444 36.3518 74.3444C36.872 74.3444 37.3347 74.493 37.7401 74.7903C38.1521 75.0808 38.4697 75.4861 38.6926 76.0063C38.9223 76.5264 39.0371 77.1209 39.0371 77.7897V78.114C39.0371 78.8098 38.9223 79.4178 38.6926 79.938C38.4697 80.4582 38.1555 80.8601 37.7502 81.1439C37.3449 81.4208 36.8787 81.5593 36.3518 81.5593C35.8181 81.5593 35.3486 81.4208 34.9433 81.1439C34.5379 80.8601 34.2204 80.4582 33.9907 79.938C33.7678 79.4178 33.6563 78.8098 33.6563 78.114V77.7897ZM38.1758 77.8201C38.1758 77.2662 38.0981 76.7865 37.9427 76.3812C37.7941 75.9759 37.5813 75.6651 37.3043 75.4489C37.0341 75.2328 36.7166 75.1247 36.3518 75.1247C35.987 75.1247 35.6661 75.2328 35.3891 75.4489C35.1121 75.6651 34.896 75.9759 34.7406 76.3812C34.592 76.7865 34.5177 77.2662 34.5177 77.8201V78.0836C34.5177 78.6376 34.592 79.1172 34.7406 79.5225C34.896 79.9279 35.1121 80.2386 35.3891 80.4548C35.6661 80.671 35.987 80.7791 36.3518 80.7791C36.7166 80.7791 37.0341 80.671 37.3043 80.4548C37.5813 80.2386 37.7941 79.9279 37.9427 79.5225C38.0981 79.1172 38.1758 78.6376 38.1758 78.0836V77.8201Z" fill="#070D17"/>
<path opacity="0.6" d="M20.4896 140.202L24.0464 135.601H25.0597V140.181H26.2048V140.962H25.0597V142.694H24.2085V140.962H20.4896V140.202ZM21.4016 140.181H24.2085V136.554L21.4016 140.181ZM27.1203 138.986C27.1203 138.317 27.2318 137.722 27.4547 137.202C27.6844 136.682 28.0019 136.277 28.4073 135.986C28.8193 135.689 29.2889 135.54 29.8158 135.54C30.336 135.54 30.7987 135.689 31.2041 135.986C31.6161 136.277 31.9337 136.682 32.1566 137.202C32.3863 137.722 32.5011 138.317 32.5011 138.986V139.31C32.5011 140.006 32.3863 140.614 32.1566 141.134C31.9337 141.654 31.6195 142.056 31.2142 142.34C30.8089 142.617 30.3427 142.755 29.8158 142.755C29.2821 142.755 28.8126 142.617 28.4073 142.34C28.0019 142.056 27.6844 141.654 27.4547 141.134C27.2318 140.614 27.1203 140.006 27.1203 139.31V138.986ZM31.6398 139.016C31.6398 138.462 31.5621 137.982 31.4067 137.577C31.2581 137.172 31.0453 136.861 30.7683 136.645C30.4981 136.429 30.1806 136.32 29.8158 136.32C29.451 136.32 29.1301 136.429 28.8531 136.645C28.5761 136.861 28.36 137.172 28.2046 137.577C28.056 137.982 27.9817 138.462 27.9817 139.016V139.279C27.9817 139.833 28.056 140.313 28.2046 140.718C28.36 141.124 28.5761 141.434 28.8531 141.651C29.1301 141.867 29.451 141.975 29.8158 141.975C30.1806 141.975 30.4981 141.867 30.7683 141.651C31.0453 141.434 31.2581 141.124 31.4067 140.718C31.5621 140.313 31.6398 139.833 31.6398 139.279V139.016ZM33.6563 138.986C33.6563 138.317 33.7678 137.722 33.9907 137.202C34.2204 136.682 34.5379 136.277 34.9433 135.986C35.3553 135.689 35.8249 135.54 36.3518 135.54C36.872 135.54 37.3347 135.689 37.7401 135.986C38.1521 136.277 38.4697 136.682 38.6926 137.202C38.9223 137.722 39.0371 138.317 39.0371 138.986V139.31C39.0371 140.006 38.9223 140.614 38.6926 141.134C38.4697 141.654 38.1555 142.056 37.7502 142.34C37.3449 142.617 36.8787 142.755 36.3518 142.755C35.8181 142.755 35.3486 142.617 34.9433 142.34C34.5379 142.056 34.2204 141.654 33.9907 141.134C33.7678 140.614 33.6563 140.006 33.6563 139.31V138.986ZM38.1758 139.016C38.1758 138.462 38.0981 137.982 37.9427 137.577C37.7941 137.172 37.5813 136.861 37.3043 136.645C37.0341 136.429 36.7166 136.32 36.3518 136.32C35.987 136.32 35.6661 136.429 35.3891 136.645C35.1121 136.861 34.896 137.172 34.7406 137.577C34.592 137.982 34.5177 138.462 34.5177 139.016V139.279C34.5177 139.833 34.592 140.313 34.7406 140.718C34.896 141.124 35.1121 141.434 35.3891 141.651C35.6661 141.867 35.987 141.975 36.3518 141.975C36.7166 141.975 37.0341 141.867 37.3043 141.651C37.5813 141.434 37.7941 141.124 37.9427 140.718C38.0981 140.313 38.1758 139.833 38.1758 139.279V139.016Z" fill="#070D17"/>
<path opacity="0.6" d="M23.8632 200.78C24.2617 200.435 24.5624 200.124 24.765 199.847C24.9677 199.564 25.069 199.246 25.069 198.895C25.069 198.456 24.9272 198.111 24.6434 197.861C24.3665 197.611 23.9915 197.486 23.5186 197.486C23.0593 197.486 22.6911 197.628 22.4141 197.912C22.1371 198.196 21.9986 198.581 21.9986 199.067V199.199H21.1474V199.016C21.1474 198.571 21.2454 198.175 21.4413 197.831C21.6372 197.486 21.9142 197.216 22.2722 197.02C22.637 196.824 23.0525 196.726 23.5186 196.726C24.2753 196.726 24.8664 196.919 25.292 197.304C25.7243 197.689 25.9405 198.206 25.9405 198.854C25.9405 199.192 25.8729 199.5 25.7378 199.776C25.6095 200.053 25.4406 200.307 25.2312 200.536C25.0217 200.759 24.7481 201.016 24.4104 201.307L22.2824 203.11H25.9912V203.891H21.1069V203.171L23.8632 200.78ZM27.1203 200.182C27.1203 199.513 27.2318 198.919 27.4547 198.398C27.6844 197.878 28.0019 197.473 28.4073 197.182C28.8193 196.885 29.2889 196.736 29.8158 196.736C30.336 196.736 30.7987 196.885 31.2041 197.182C31.6161 197.473 31.9337 197.878 32.1566 198.398C32.3863 198.919 32.5011 199.513 32.5011 200.182V200.506C32.5011 201.202 32.3863 201.81 32.1566 202.33C31.9337 202.85 31.6195 203.252 31.2142 203.536C30.8089 203.813 30.3427 203.951 29.8158 203.951C29.2821 203.951 28.8126 203.813 28.4073 203.536C28.0019 203.252 27.6844 202.85 27.4547 202.33C27.2318 201.81 27.1203 201.202 27.1203 200.506V200.182ZM31.6398 200.212C31.6398 199.658 31.5621 199.179 31.4067 198.773C31.2581 198.368 31.0453 198.057 30.7683 197.841C30.4981 197.625 30.1806 197.517 29.8158 197.517C29.451 197.517 29.1301 197.625 28.8531 197.841C28.5761 198.057 28.36 198.368 28.2046 198.773C28.056 199.179 27.9817 199.658 27.9817 200.212V200.476C27.9817 201.03 28.056 201.509 28.2046 201.915C28.36 202.32 28.5761 202.631 28.8531 202.847C29.1301 203.063 29.451 203.171 29.8158 203.171C30.1806 203.171 30.4981 203.063 30.7683 202.847C31.0453 202.631 31.2581 202.32 31.4067 201.915C31.5621 201.509 31.6398 201.03 31.6398 200.476V200.212ZM33.6563 200.182C33.6563 199.513 33.7678 198.919 33.9907 198.398C34.2204 197.878 34.5379 197.473 34.9433 197.182C35.3553 196.885 35.8249 196.736 36.3518 196.736C36.872 196.736 37.3347 196.885 37.7401 197.182C38.1521 197.473 38.4697 197.878 38.6926 198.398C38.9223 198.919 39.0371 199.513 39.0371 200.182V200.506C39.0371 201.202 38.9223 201.81 38.6926 202.33C38.4697 202.85 38.1555 203.252 37.7502 203.536C37.3449 203.813 36.8787 203.951 36.3518 203.951C35.8181 203.951 35.3486 203.813 34.9433 203.536C34.5379 203.252 34.2204 202.85 33.9907 202.33C33.7678 201.81 33.6563 201.202 33.6563 200.506V200.182ZM38.1758 200.212C38.1758 199.658 38.0981 199.179 37.9427 198.773C37.7941 198.368 37.5813 198.057 37.3043 197.841C37.0341 197.625 36.7166 197.517 36.3518 197.517C35.987 197.517 35.6661 197.625 35.3891 197.841C35.1121 198.057 34.896 198.368 34.7406 198.773C34.592 199.179 34.5177 199.658 34.5177 200.212V200.476C34.5177 201.03 34.592 201.509 34.7406 201.915C34.896 202.32 35.1121 202.631 35.3891 202.847C35.6661 203.063 35.987 203.171 36.3518 203.171C36.7166 203.171 37.0341 203.063 37.3043 202.847C37.5813 202.631 37.7941 202.32 37.9427 201.915C38.0981 201.509 38.1758 201.03 38.1758 200.476V200.212Z" fill="#070D17"/>
<path opacity="0.6" d="M33.6563 261.378C33.6563 260.709 33.7678 260.114 33.9907 259.594C34.2204 259.074 34.5379 258.669 34.9433 258.378C35.3553 258.081 35.8249 257.932 36.3518 257.932C36.872 257.932 37.3347 258.081 37.7401 258.378C38.1521 258.669 38.4697 259.074 38.6926 259.594C38.9223 260.114 39.0371 260.709 39.0371 261.378V261.702C39.0371 262.398 38.9223 263.006 38.6926 263.526C38.4697 264.046 38.1555 264.448 37.7502 264.732C37.3449 265.009 36.8787 265.147 36.3518 265.147C35.8181 265.147 35.3486 265.009 34.9433 264.732C34.5379 264.448 34.2204 264.046 33.9907 263.526C33.7678 263.006 33.6563 262.398 33.6563 261.702V261.378ZM38.1758 261.408C38.1758 260.854 38.0981 260.374 37.9427 259.969C37.7941 259.564 37.5813 259.253 37.3043 259.037C37.0341 258.821 36.7166 258.713 36.3518 258.713C35.987 258.713 35.6661 258.821 35.3891 259.037C35.1121 259.253 34.896 259.564 34.7406 259.969C34.592 260.374 34.5177 260.854 34.5177 261.408V261.671C34.5177 262.225 34.592 262.705 34.7406 263.11C34.896 263.516 35.1121 263.827 35.3891 264.043C35.6661 264.259 35.987 264.367 36.3518 264.367C36.7166 264.367 37.0341 264.259 37.3043 264.043C37.5813 263.827 37.7941 263.516 37.9427 263.11C38.0981 262.705 38.1758 262.225 38.1758 261.671V261.408Z" fill="#070D17"/>
<path d="M53.0943 119.322L47.9851 125.246L47.5938 265.086H599.779V235.274L594.67 238.659C593.645 240.634 590.965 245.43 589.56 248.815C588.156 252.201 585.768 256.433 584.451 258.126H579.342H574.233H569.124L564.014 264.896C561.82 263.204 562.066 259.48 558.905 258.126C555.745 256.771 554.381 251.355 553.796 248.815L548.687 228.503L543.578 231.888C540.944 230.76 539.873 228.503 538.468 228.503C537.064 228.503 535.554 225.682 533.359 224.271L528.25 228.503L523.141 235.274L518.032 244.584L512.922 231.888L507.813 235.274L502.704 231.888L497.595 228.503L492.486 214.961L487.376 206.497C485.328 203.676 483.672 198.034 482.267 198.034C480.863 198.034 477.743 195.212 477.158 193.802L472.049 181.953L466.94 187.877L461.83 193.802L456.721 198.034L451.612 187.877L446.503 181.953L441.394 176.028L436.284 166.718L431.175 159.101L426.066 137.942L420.957 133.71L415.848 137.942L410.738 146.405H405.629L400.52 154.023L395.411 146.405L390.302 142.174L385.192 159.101L380.083 146.405H374.974L369.865 142.174H364.756L359.646 154.023L354.537 164.179H349.428L344.319 203.112H339.21L334.1 224.271L328.991 219.193L323.882 214.961L318.773 203.112L313.664 187.877L308.554 176.028L303.445 154.023H298.336L293.227 164.179L288.118 170.104L283.008 164.179L277.899 170.104L272.79 176.028H267.681L262.572 219.193L257.462 224.271H252.353H247.244L242.135 235.274H237.026L231.916 248.815L226.807 244.584L221.698 231.888L216.589 228.503H211.48L206.37 214.961L201.261 164.179L196.152 154.023L191.043 133.71L185.934 105.78L180.824 110.012L175.715 114.243L170.606 102.394H165.497L160.388 114.243L155.278 130.324L150.169 142.174L145.06 154.023L139.951 176.028L134.842 193.802L129.732 203.112H124.623C122.867 203.112 121.709 199.726 119.514 198.034H114.405L109.296 203.112H104.186H99.0771C97.0285 200.573 95.3726 195.156 93.9679 193.802C92.5632 192.448 89.444 181.388 88.8587 176.028L83.7495 125.246H78.6403L73.5311 85.467L68.4219 79.5425L63.3127 85.467H58.2035L53.0943 119.322Z" fill="url(#paint0_linear_824_15173)" fill-opacity="0.3"/>
<path d="M47.9805 125.247L53.0897 119.322L58.1989 85.4675H63.3081L68.4173 79.543L73.5265 85.4675L78.6357 125.247H83.7449L88.8541 176.029C89.4394 181.389 92.5586 192.448 93.9633 193.802C95.368 195.156 97.0239 200.573 99.0725 203.112C99.2188 203.112 101.021 203.112 104.182 203.112C107.342 203.112 107.974 203.112 109.291 203.112L114.4 198.034H119.509C121.704 199.727 122.863 203.112 124.618 203.112C126.374 203.112 127.24 203.112 129.728 203.112L134.837 193.802L139.946 176.029L145.055 154.023L150.165 142.174L155.274 130.325L160.383 114.244L165.492 102.395H170.601L175.711 114.244L180.82 110.012L185.929 105.78L191.038 133.71L196.147 154.023L201.257 164.179L206.366 214.961L211.475 228.503H216.584L221.693 231.889L226.803 244.584L231.912 248.816L237.021 235.274H242.13L247.239 224.271H252.349H257.458L262.567 219.193L267.676 176.029H272.785L277.895 170.104L283.004 164.179L288.113 170.104L293.222 164.179L298.331 154.023H303.441L308.55 176.029L313.659 187.878L318.768 203.112L323.877 214.961L328.987 219.193L334.096 224.271L339.205 203.112H344.314L349.423 164.179H354.533L359.642 154.023L364.751 142.174H369.86L374.969 146.406H380.079L385.188 159.101L390.297 142.174L395.406 146.406L400.515 154.023L405.625 146.406H410.734L415.843 137.942L420.952 133.71L426.061 137.942L431.171 159.101L436.28 166.719L441.389 176.029L446.498 181.953L451.607 187.878L456.717 198.034L461.826 193.802L466.935 187.878L472.044 181.953L477.153 193.802C477.739 195.213 480.858 198.034 482.263 198.034C483.667 198.034 485.323 203.677 487.372 206.498L492.481 214.961L497.59 228.503L502.699 231.889L507.809 235.274L512.918 231.889L518.027 244.584L523.136 235.274L528.245 228.503L533.355 224.271C535.55 225.682 537.059 228.503 538.464 228.503C539.869 228.503 540.939 230.76 543.573 231.889L548.682 228.503L553.791 248.816C554.377 251.355 555.74 256.772 558.901 258.126C562.061 259.48 561.815 263.204 564.01 264.897L569.119 258.126H574.228H579.337H584.447C585.764 256.433 588.151 252.201 589.556 248.816C590.961 245.431 593.641 240.634 594.665 238.66L599.774 235.274" stroke="#0088FF" stroke-width="1.41124" stroke-linecap="round"/>
</g>
<g clip-path="url(#clip3_824_15173)">
<path opacity="0.6" d="M65.1206 274.171V278.689C65.1206 279.145 65.0024 279.491 64.766 279.727C64.5295 279.964 64.1833 280.082 63.7273 280.082H62.9589V279.39H63.6344C63.899 279.39 64.0904 279.33 64.2086 279.212C64.3269 279.088 64.386 278.894 64.386 278.63V274.171H65.1206ZM70.3613 279.449V280.082H69.9813C69.7055 280.082 69.5085 280.026 69.3902 279.913C69.272 279.801 69.2101 279.634 69.2045 279.415C68.8723 279.893 68.391 280.133 67.7605 280.133C67.2819 280.133 66.8963 280.02 66.6036 279.795C66.3165 279.57 66.1729 279.263 66.1729 278.874C66.1729 278.441 66.3193 278.109 66.612 277.878C66.9104 277.647 67.3411 277.532 67.904 277.532H69.1707V277.236C69.1707 276.955 69.075 276.735 68.8836 276.578C68.6978 276.42 68.436 276.341 68.0982 276.341C67.7999 276.341 67.5522 276.409 67.3551 276.544C67.1637 276.673 67.0455 276.848 67.0005 277.067H66.308C66.3587 276.645 66.5445 276.316 66.8653 276.079C67.1919 275.843 67.6141 275.725 68.132 275.725C68.6837 275.725 69.1088 275.86 69.4071 276.13C69.7111 276.395 69.8631 276.777 69.8631 277.278V279.136C69.8631 279.345 69.9588 279.449 70.1502 279.449H70.3613ZM69.1707 278.114H67.8365C67.1947 278.114 66.8738 278.354 66.8738 278.832C66.8738 279.046 66.9582 279.218 67.1271 279.347C67.296 279.477 67.524 279.542 67.8111 279.542C68.2333 279.542 68.5655 279.432 68.8076 279.212C69.0496 278.987 69.1707 278.692 69.1707 278.326V278.114ZM73.1737 275.725C73.6972 275.725 74.1166 275.882 74.4319 276.198C74.7528 276.513 74.9132 277.008 74.9132 277.684V280.082H74.2208V277.726C74.2208 277.281 74.1195 276.944 73.9168 276.713C73.7198 276.476 73.4326 276.358 73.0555 276.358C72.6501 276.358 72.332 276.499 72.1012 276.78C71.8704 277.062 71.755 277.445 71.755 277.929V280.082H71.0626V275.775H71.6621L71.755 276.358C72.0815 275.936 72.5544 275.725 73.1737 275.725Z" fill="#070D17"/>
<path opacity="0.6" d="M108.825 274.171H112.498V274.846H109.559V276.822H111.991V277.498H109.559V280.082H108.825V274.171ZM112.88 277.929C112.88 277.49 112.965 277.104 113.133 276.772C113.308 276.44 113.55 276.184 113.86 276.003C114.169 275.818 114.524 275.725 114.924 275.725C115.318 275.725 115.667 275.806 115.971 275.97C116.275 276.133 116.514 276.369 116.689 276.679C116.863 276.989 116.956 277.352 116.967 277.768C116.967 277.83 116.962 277.929 116.95 278.064H113.606V278.123C113.618 278.545 113.747 278.883 113.995 279.136C114.243 279.39 114.566 279.516 114.966 279.516C115.276 279.516 115.537 279.44 115.751 279.288C115.971 279.131 116.117 278.914 116.19 278.638H116.891C116.807 279.077 116.596 279.437 116.258 279.719C115.92 279.995 115.506 280.133 115.017 280.133C114.589 280.133 114.214 280.043 113.893 279.862C113.573 279.677 113.322 279.418 113.142 279.086C112.967 278.748 112.88 278.362 112.88 277.929ZM116.249 277.49C116.216 277.124 116.078 276.839 115.836 276.637C115.599 276.434 115.298 276.333 114.932 276.333C114.606 276.333 114.319 276.44 114.071 276.654C113.823 276.868 113.682 277.146 113.649 277.49H116.249ZM120.097 275.725C120.496 275.725 120.851 275.812 121.161 275.986C121.476 276.161 121.721 276.414 121.895 276.746C122.075 277.079 122.165 277.473 122.165 277.929C122.165 278.362 122.075 278.745 121.895 279.077C121.721 279.409 121.476 279.668 121.161 279.854C120.845 280.04 120.491 280.133 120.097 280.133C119.747 280.133 119.449 280.071 119.201 279.947C118.954 279.817 118.759 279.643 118.619 279.423L118.526 280.082H117.926V274.171H118.619V276.468C118.979 275.972 119.472 275.725 120.097 275.725ZM120.029 279.516C120.457 279.516 120.8 279.37 121.059 279.077C121.324 278.779 121.456 278.396 121.456 277.929C121.456 277.461 121.324 277.081 121.059 276.789C120.8 276.49 120.457 276.341 120.029 276.341C119.753 276.341 119.505 276.409 119.286 276.544C119.072 276.673 118.906 276.859 118.788 277.101C118.669 277.338 118.61 277.608 118.61 277.912C118.61 278.221 118.669 278.5 118.788 278.748C118.906 278.99 119.072 279.178 119.286 279.314C119.505 279.449 119.753 279.516 120.029 279.516Z" fill="#070D17"/>
<path opacity="0.6" d="M154.843 274.171H155.772L157.866 279.077L159.935 274.171H160.847V280.082H160.129V275.421L158.17 280.082H157.52L155.561 275.421V280.082H154.843V274.171ZM166.089 279.449V280.082H165.709C165.433 280.082 165.236 280.026 165.117 279.913C164.999 279.801 164.937 279.634 164.932 279.415C164.6 279.893 164.118 280.133 163.488 280.133C163.009 280.133 162.624 280.02 162.331 279.795C162.044 279.57 161.9 279.263 161.9 278.874C161.9 278.441 162.046 278.109 162.339 277.878C162.638 277.647 163.068 277.532 163.631 277.532H164.898V277.236C164.898 276.955 164.802 276.735 164.611 276.578C164.425 276.42 164.163 276.341 163.825 276.341C163.527 276.341 163.279 276.409 163.082 276.544C162.891 276.673 162.773 276.848 162.728 277.067H162.035C162.086 276.645 162.272 276.316 162.593 276.079C162.919 275.843 163.341 275.725 163.859 275.725C164.411 275.725 164.836 275.86 165.134 276.13C165.438 276.395 165.59 276.777 165.59 277.278V279.136C165.59 279.345 165.686 279.449 165.877 279.449H166.089ZM164.898 278.114H163.564C162.922 278.114 162.601 278.354 162.601 278.832C162.601 279.046 162.685 279.218 162.854 279.347C163.023 279.477 163.251 279.542 163.538 279.542C163.961 279.542 164.293 279.432 164.535 279.212C164.777 278.987 164.898 278.692 164.898 278.326V278.114ZM168.977 275.775V276.451H168.631C168.22 276.451 167.924 276.589 167.744 276.865C167.569 277.141 167.482 277.481 167.482 277.886V280.082H166.79V275.775H167.389L167.482 276.426C167.606 276.229 167.767 276.071 167.964 275.953C168.161 275.834 168.434 275.775 168.783 275.775H168.977Z" fill="#070D17"/>
<path opacity="0.6" d="M201.259 280.082L203.513 274.171H204.383L206.629 280.082H205.844L205.219 278.486H202.644L202.019 280.082H201.259ZM202.863 277.819H205L203.927 274.973L202.863 277.819ZM209.536 275.725C209.936 275.725 210.29 275.812 210.6 275.986C210.915 276.161 211.16 276.414 211.335 276.746C211.515 277.079 211.605 277.473 211.605 277.929C211.605 278.362 211.515 278.745 211.335 279.077C211.16 279.409 210.915 279.668 210.6 279.854C210.285 280.04 209.93 280.133 209.536 280.133C209.187 280.133 208.888 280.071 208.641 279.947C208.393 279.817 208.199 279.643 208.058 279.423V281.771H207.366V275.775H207.965L208.058 276.468C208.418 275.972 208.911 275.725 209.536 275.725ZM209.468 279.516C209.896 279.516 210.24 279.37 210.499 279.077C210.763 278.779 210.895 278.396 210.895 277.929C210.895 277.461 210.763 277.081 210.499 276.789C210.24 276.49 209.896 276.341 209.468 276.341C209.192 276.341 208.945 276.409 208.725 276.544C208.511 276.673 208.345 276.859 208.227 277.101C208.109 277.338 208.05 277.608 208.05 277.912C208.05 278.221 208.109 278.5 208.227 278.748C208.345 278.99 208.511 279.178 208.725 279.314C208.945 279.449 209.192 279.516 209.468 279.516ZM214.752 275.775V276.451H214.406C213.995 276.451 213.699 276.589 213.519 276.865C213.345 277.141 213.257 277.481 213.257 277.886V280.082H212.565V275.775H213.165L213.257 276.426C213.381 276.229 213.542 276.071 213.739 275.953C213.936 275.834 214.209 275.775 214.558 275.775H214.752Z" fill="#070D17"/>
<path opacity="0.6" d="M246.905 274.171H247.834L249.928 279.077L251.997 274.171H252.909V280.082H252.191V275.421L250.232 280.082H249.582L247.623 275.421V280.082H246.905V274.171ZM258.15 279.449V280.082H257.77C257.494 280.082 257.297 280.026 257.179 279.913C257.061 279.801 256.999 279.634 256.993 279.415C256.661 279.893 256.18 280.133 255.549 280.133C255.071 280.133 254.685 280.02 254.392 279.795C254.105 279.57 253.962 279.263 253.962 278.874C253.962 278.441 254.108 278.109 254.401 277.878C254.699 277.647 255.13 277.532 255.693 277.532H256.96V277.236C256.96 276.955 256.864 276.735 256.672 276.578C256.487 276.42 256.225 276.341 255.887 276.341C255.589 276.341 255.341 276.409 255.144 276.544C254.953 276.673 254.834 276.848 254.789 277.067H254.097C254.148 276.645 254.333 276.316 254.654 276.079C254.981 275.843 255.403 275.725 255.921 275.725C256.473 275.725 256.898 275.86 257.196 276.13C257.5 276.395 257.652 276.777 257.652 277.278V279.136C257.652 279.345 257.748 279.449 257.939 279.449H258.15ZM256.96 278.114H255.625C254.984 278.114 254.663 278.354 254.663 278.832C254.663 279.046 254.747 279.218 254.916 279.347C255.085 279.477 255.313 279.542 255.6 279.542C256.022 279.542 256.354 279.432 256.596 279.212C256.838 278.987 256.96 278.692 256.96 278.326V278.114ZM259.032 275.775L260.357 279.288L261.641 275.775H262.376L260.391 280.808C260.29 281.067 260.2 281.261 260.121 281.391C260.042 281.52 259.944 281.616 259.825 281.678C259.707 281.74 259.55 281.771 259.353 281.771H258.525V281.138H259.141C259.277 281.138 259.378 281.124 259.445 281.095C259.513 281.067 259.567 281.019 259.606 280.952C259.651 280.89 259.704 280.783 259.766 280.631L259.986 280.116L258.297 275.775H259.032Z" fill="#070D17"/>
<path opacity="0.6" d="M296.755 274.171V278.689C296.755 279.145 296.637 279.491 296.4 279.727C296.164 279.964 295.818 280.082 295.362 280.082H294.593V279.39H295.269C295.533 279.39 295.725 279.33 295.843 279.212C295.961 279.088 296.02 278.894 296.02 278.63V274.171H296.755ZM301.675 275.775V280.082H301.075L300.982 279.508C300.656 279.924 300.197 280.133 299.606 280.133C299.094 280.133 298.683 279.975 298.373 279.66C298.063 279.345 297.909 278.849 297.909 278.174V275.775H298.601V278.131C298.601 278.576 298.697 278.917 298.888 279.153C299.085 279.384 299.364 279.499 299.724 279.499C300.118 279.499 300.425 279.359 300.645 279.077C300.87 278.796 300.982 278.413 300.982 277.929V275.775H301.675ZM304.899 275.725C305.422 275.725 305.842 275.882 306.157 276.198C306.478 276.513 306.638 277.008 306.638 277.684V280.082H305.946V277.726C305.946 277.281 305.845 276.944 305.642 276.713C305.445 276.476 305.158 276.358 304.781 276.358C304.375 276.358 304.057 276.499 303.826 276.78C303.595 277.062 303.48 277.445 303.48 277.929V280.082H302.788V275.775H303.387L303.48 276.358C303.807 275.936 304.279 275.725 304.899 275.725Z" fill="#070D17"/>
<path opacity="0.6" d="M344.637 274.171V278.689C344.637 279.145 344.519 279.491 344.282 279.727C344.046 279.964 343.7 280.082 343.244 280.082H342.475V279.39H343.151C343.416 279.39 343.607 279.33 343.725 279.212C343.843 279.088 343.902 278.894 343.902 278.63V274.171H344.637ZM349.557 275.775V280.082H348.957L348.865 279.508C348.538 279.924 348.079 280.133 347.488 280.133C346.976 280.133 346.565 279.975 346.255 279.66C345.946 279.345 345.791 278.849 345.791 278.174V275.775H346.483V278.131C346.483 278.576 346.579 278.917 346.77 279.153C346.967 279.384 347.246 279.499 347.606 279.499C348 279.499 348.307 279.359 348.527 279.077C348.752 278.796 348.865 278.413 348.865 277.929V275.775H349.557ZM350.67 274.171H351.362V280.082H350.67V274.171Z" fill="#070D17"/>
<path opacity="0.6" d="M385.753 280.082L388.008 274.171H388.878L391.124 280.082H390.339L389.714 278.486H387.138L386.513 280.082H385.753ZM387.358 277.819H389.494L388.422 274.973L387.358 277.819ZM395.427 275.775V280.082H394.828L394.735 279.508C394.408 279.924 393.949 280.133 393.358 280.133C392.846 280.133 392.435 279.975 392.125 279.66C391.816 279.345 391.661 278.849 391.661 278.174V275.775H392.353V278.131C392.353 278.576 392.449 278.917 392.641 279.153C392.838 279.384 393.116 279.499 393.477 279.499C393.871 279.499 394.177 279.359 394.397 279.077C394.622 278.796 394.735 278.413 394.735 277.929V275.775H395.427ZM400.627 275.775V279.871C400.627 281.171 399.915 281.822 398.491 281.822C397.933 281.822 397.477 281.695 397.123 281.442C396.774 281.188 396.571 280.828 396.515 280.361H397.224C397.28 280.631 397.424 280.839 397.655 280.986C397.885 281.132 398.181 281.205 398.541 281.205C399.47 281.205 399.935 280.752 399.935 279.846V279.339C399.625 279.868 399.132 280.133 398.457 280.133C398.057 280.133 397.7 280.045 397.384 279.871C397.075 279.696 396.83 279.443 396.65 279.111C396.475 278.779 396.388 278.385 396.388 277.929C396.388 277.495 396.475 277.112 396.65 276.78C396.83 276.448 397.078 276.189 397.393 276.003C397.708 275.818 398.063 275.725 398.457 275.725C398.806 275.725 399.104 275.795 399.352 275.936C399.6 276.071 399.794 276.265 399.935 276.518L400.028 275.775H400.627ZM398.524 279.516C398.8 279.516 399.045 279.452 399.259 279.322C399.479 279.187 399.648 279.001 399.766 278.765C399.884 278.523 399.943 278.25 399.943 277.946C399.943 277.636 399.884 277.36 399.766 277.118C399.648 276.87 399.479 276.679 399.259 276.544C399.045 276.409 398.8 276.341 398.524 276.341C398.097 276.341 397.75 276.49 397.486 276.789C397.227 277.081 397.097 277.461 397.097 277.929C397.097 278.396 397.227 278.779 397.486 279.077C397.75 279.37 398.097 279.516 398.524 279.516Z" fill="#070D17"/>
<path opacity="0.6" d="M433.184 278.148C433.213 278.548 433.373 278.869 433.666 279.111C433.958 279.347 434.33 279.466 434.78 279.466C435.186 279.466 435.512 279.378 435.76 279.204C436.013 279.024 436.14 278.776 436.14 278.461C436.14 278.23 436.07 278.047 435.929 277.912C435.794 277.777 435.616 277.678 435.397 277.616C435.183 277.549 434.89 277.484 434.519 277.422C433.927 277.321 433.457 277.155 433.108 276.924C432.759 276.693 432.585 276.319 432.585 275.801C432.585 275.469 432.669 275.176 432.838 274.922C433.007 274.664 433.243 274.464 433.547 274.323C433.857 274.182 434.209 274.112 434.603 274.112C435.02 274.112 435.388 274.188 435.709 274.34C436.03 274.492 436.283 274.706 436.469 274.982C436.655 275.252 436.759 275.564 436.782 275.919H436.055C436.01 275.576 435.856 275.3 435.591 275.091C435.326 274.883 434.997 274.779 434.603 274.779C434.209 274.779 433.897 274.866 433.666 275.041C433.435 275.21 433.319 275.449 433.319 275.758C433.319 275.984 433.387 276.161 433.522 276.29C433.657 276.414 433.832 276.51 434.046 276.578C434.26 276.64 434.552 276.701 434.924 276.763C435.515 276.865 435.988 277.034 436.343 277.27C436.697 277.501 436.875 277.875 436.875 278.393C436.875 278.731 436.785 279.032 436.604 279.297C436.43 279.561 436.182 279.767 435.861 279.913C435.546 280.06 435.183 280.133 434.772 280.133C434.31 280.133 433.908 280.051 433.564 279.888C433.221 279.719 432.954 279.485 432.762 279.187C432.576 278.883 432.475 278.537 432.458 278.148H433.184ZM437.723 277.929C437.723 277.49 437.807 277.104 437.976 276.772C438.15 276.44 438.393 276.184 438.702 276.003C439.012 275.818 439.366 275.725 439.766 275.725C440.16 275.725 440.509 275.806 440.813 275.97C441.117 276.133 441.357 276.369 441.531 276.679C441.706 276.989 441.798 277.352 441.81 277.768C441.81 277.83 441.804 277.929 441.793 278.064H438.449V278.123C438.46 278.545 438.59 278.883 438.837 279.136C439.085 279.39 439.409 279.516 439.808 279.516C440.118 279.516 440.38 279.44 440.594 279.288C440.813 279.131 440.96 278.914 441.033 278.638H441.734C441.649 279.077 441.438 279.437 441.1 279.719C440.763 279.995 440.349 280.133 439.859 280.133C439.431 280.133 439.057 280.043 438.736 279.862C438.415 279.677 438.165 279.418 437.984 279.086C437.81 278.748 437.723 278.362 437.723 277.929ZM441.092 277.49C441.058 277.124 440.92 276.839 440.678 276.637C440.442 276.434 440.141 276.333 439.775 276.333C439.448 276.333 439.161 276.44 438.913 276.654C438.666 276.868 438.525 277.146 438.491 277.49H441.092ZM444.939 275.725C445.339 275.725 445.693 275.812 446.003 275.986C446.318 276.161 446.563 276.414 446.738 276.746C446.918 277.079 447.008 277.473 447.008 277.929C447.008 278.362 446.918 278.745 446.738 279.077C446.563 279.409 446.318 279.668 446.003 279.854C445.688 280.04 445.333 280.133 444.939 280.133C444.59 280.133 444.292 280.071 444.044 279.947C443.796 279.817 443.602 279.643 443.461 279.423V281.771H442.769V275.775H443.368L443.461 276.468C443.821 275.972 444.314 275.725 444.939 275.725ZM444.871 279.516C445.299 279.516 445.643 279.37 445.902 279.077C446.166 278.779 446.299 278.396 446.299 277.929C446.299 277.461 446.166 277.081 445.902 276.789C445.643 276.49 445.299 276.341 444.871 276.341C444.596 276.341 444.348 276.409 444.128 276.544C443.914 276.673 443.748 276.859 443.63 277.101C443.512 277.338 443.453 277.608 443.453 277.912C443.453 278.221 443.512 278.5 443.63 278.748C443.748 278.99 443.914 279.178 444.128 279.314C444.348 279.449 444.596 279.516 444.871 279.516Z" fill="#070D17"/>
<path opacity="0.6" d="M485.033 277.126C485.033 277.701 484.912 278.216 484.67 278.672C484.433 279.128 484.101 279.485 483.673 279.744C483.245 280.003 482.758 280.133 482.212 280.133C481.666 280.133 481.179 280.003 480.751 279.744C480.324 279.485 479.989 279.128 479.747 278.672C479.51 278.216 479.392 277.701 479.392 277.126C479.392 276.552 479.51 276.037 479.747 275.581C479.989 275.125 480.324 274.768 480.751 274.509C481.179 274.25 481.666 274.12 482.212 274.12C482.758 274.12 483.245 274.25 483.673 274.509C484.101 274.768 484.433 275.125 484.67 275.581C484.912 276.037 485.033 276.552 485.033 277.126ZM480.143 277.126C480.143 277.577 480.231 277.979 480.405 278.334C480.58 278.683 480.822 278.959 481.131 279.162C481.447 279.359 481.807 279.457 482.212 279.457C482.618 279.457 482.975 279.359 483.285 279.162C483.6 278.959 483.845 278.683 484.019 278.334C484.194 277.979 484.281 277.577 484.281 277.126C484.281 276.676 484.194 276.276 484.019 275.927C483.845 275.573 483.6 275.297 483.285 275.1C482.975 274.897 482.618 274.796 482.212 274.796C481.807 274.796 481.447 274.897 481.131 275.1C480.822 275.297 480.58 275.573 480.405 275.927C480.231 276.276 480.143 276.676 480.143 277.126ZM489.871 278.596C489.781 279.074 489.57 279.452 489.238 279.727C488.906 279.998 488.483 280.133 487.971 280.133C487.555 280.133 487.189 280.04 486.873 279.854C486.558 279.668 486.313 279.409 486.139 279.077C485.964 278.739 485.877 278.354 485.877 277.92C485.877 277.487 485.964 277.104 486.139 276.772C486.319 276.44 486.569 276.184 486.89 276.003C487.211 275.818 487.58 275.725 487.996 275.725C488.503 275.725 488.92 275.86 489.246 276.13C489.578 276.4 489.787 276.772 489.871 277.245H489.17C489.103 276.969 488.962 276.749 488.748 276.586C488.534 276.423 488.275 276.341 487.971 276.341C487.56 276.341 487.225 276.488 486.966 276.78C486.713 277.073 486.586 277.453 486.586 277.92C486.586 278.393 486.713 278.779 486.966 279.077C487.225 279.37 487.56 279.516 487.971 279.516C488.286 279.516 488.551 279.435 488.765 279.271C488.979 279.108 489.117 278.883 489.179 278.596H489.871ZM491.128 276.409H490.351V275.775H491.128V274.568H491.82V275.775H492.909V276.409H491.82V278.95C491.82 279.131 491.854 279.26 491.921 279.339C491.995 279.412 492.118 279.449 492.293 279.449H493.045V280.082H492.251C491.845 280.082 491.556 279.992 491.381 279.812C491.212 279.632 491.128 279.347 491.128 278.959V276.409Z" fill="#070D17"/>
<path opacity="0.6" d="M525.486 280.082V274.171H526.161L529.336 278.731V274.171H530.054V280.082H529.379L526.203 275.522V280.082H525.486ZM533.252 280.133C532.836 280.133 532.464 280.04 532.138 279.854C531.817 279.668 531.566 279.409 531.386 279.077C531.206 278.745 531.116 278.362 531.116 277.929C531.116 277.495 531.206 277.112 531.386 276.78C531.566 276.448 531.817 276.189 532.138 276.003C532.464 275.818 532.836 275.725 533.252 275.725C533.669 275.725 534.038 275.818 534.359 276.003C534.685 276.189 534.939 276.448 535.119 276.78C535.299 277.112 535.389 277.495 535.389 277.929C535.389 278.362 535.299 278.745 535.119 279.077C534.939 279.409 534.685 279.668 534.359 279.854C534.038 280.04 533.669 280.133 533.252 280.133ZM533.252 279.516C533.534 279.516 533.782 279.449 533.996 279.314C534.215 279.178 534.384 278.99 534.502 278.748C534.62 278.506 534.68 278.233 534.68 277.929C534.68 277.625 534.62 277.352 534.502 277.11C534.384 276.868 534.215 276.679 533.996 276.544C533.782 276.409 533.534 276.341 533.252 276.341C532.971 276.341 532.72 276.409 532.501 276.544C532.287 276.679 532.121 276.868 532.003 277.11C531.884 277.352 531.825 277.625 531.825 277.929C531.825 278.233 531.884 278.506 532.003 278.748C532.121 278.99 532.287 279.178 532.501 279.314C532.72 279.449 532.971 279.516 533.252 279.516ZM535.756 275.775H536.499L537.8 279.297L539.092 275.775H539.818L538.205 280.082H537.369L535.756 275.775Z" fill="#070D17"/>
<path opacity="0.6" d="M571.62 274.171H573.368C573.976 274.171 574.502 274.295 574.947 274.542C575.397 274.785 575.74 275.128 575.977 275.573C576.219 276.017 576.34 276.535 576.34 277.126C576.34 277.712 576.219 278.23 575.977 278.68C575.74 279.125 575.397 279.471 574.947 279.719C574.502 279.961 573.976 280.082 573.368 280.082H571.62V274.171ZM573.368 279.406C574.071 279.406 574.617 279.201 575.006 278.79C575.394 278.379 575.588 277.825 575.588 277.126C575.588 276.423 575.394 275.868 575.006 275.463C574.623 275.052 574.077 274.846 573.368 274.846H572.354V279.406H573.368ZM577.184 277.929C577.184 277.49 577.268 277.104 577.437 276.772C577.612 276.44 577.854 276.184 578.164 276.003C578.473 275.818 578.828 275.725 579.228 275.725C579.622 275.725 579.971 275.806 580.275 275.97C580.579 276.133 580.818 276.369 580.992 276.679C581.167 276.989 581.26 277.352 581.271 277.768C581.271 277.83 581.265 277.929 581.254 278.064H577.91V278.123C577.921 278.545 578.051 278.883 578.299 279.136C578.546 279.39 578.87 279.516 579.27 279.516C579.579 279.516 579.841 279.44 580.055 279.288C580.275 279.131 580.421 278.914 580.494 278.638H581.195C581.111 279.077 580.9 279.437 580.562 279.719C580.224 279.995 579.81 280.133 579.32 280.133C578.893 280.133 578.518 280.043 578.197 279.862C577.876 279.677 577.626 279.418 577.446 279.086C577.271 278.748 577.184 278.362 577.184 277.929ZM580.553 277.49C580.52 277.124 580.382 276.839 580.14 276.637C579.903 276.434 579.602 276.333 579.236 276.333C578.909 276.333 578.622 276.44 578.375 276.654C578.127 276.868 577.986 277.146 577.952 277.49H580.553ZM586.072 278.596C585.982 279.074 585.771 279.452 585.439 279.727C585.107 279.998 584.685 280.133 584.172 280.133C583.756 280.133 583.39 280.04 583.075 279.854C582.759 279.668 582.514 279.409 582.34 279.077C582.165 278.739 582.078 278.354 582.078 277.92C582.078 277.487 582.165 277.104 582.34 276.772C582.52 276.44 582.771 276.184 583.091 276.003C583.412 275.818 583.781 275.725 584.198 275.725C584.704 275.725 585.121 275.86 585.447 276.13C585.78 276.4 585.988 276.772 586.072 277.245H585.371C585.304 276.969 585.163 276.749 584.949 276.586C584.735 276.423 584.476 276.341 584.172 276.341C583.761 276.341 583.426 276.488 583.167 276.78C582.914 277.073 582.787 277.453 582.787 277.92C582.787 278.393 582.914 278.779 583.167 279.077C583.426 279.37 583.761 279.516 584.172 279.516C584.488 279.516 584.752 279.435 584.966 279.271C585.18 279.108 585.318 278.883 585.38 278.596H586.072Z" fill="#070D17"/>
</g>
</g>
<path d="M0 -3.63281H622.356H0ZM622.356 291.861C622.356 296.734 618.406 300.684 613.533 300.684H8.82267C3.95004 300.684 0 296.734 0 291.861C0 296.384 3.80827 300.051 8.506 300.051H613.85C618.547 300.051 622.356 296.384 622.356 291.861ZM0 300.367V-3.63281V300.367ZM622.356 -3.63281V300.367V-3.63281Z" fill="#E4E7EC"/>
<line x1="299.25" y1="257" x2="299.25" y2="160" stroke="#008791" stroke-width="1.5" stroke-dasharray="2 2"/>
<g filter="url(#filter0_d_824_15173)">
<circle cx="299" cy="156" r="7" fill="white"/>
<circle cx="299" cy="156" r="5.5" stroke="#0088FF" stroke-width="3"/>
</g>
<rect x="254" y="81" width="89" height="56" rx="10" fill="#0088FF"/>
<path opacity="0.8" d="M280.336 93.6H281.428L283.396 100.656L285.46 93.6H286.516L288.508 100.656L290.488 93.6H291.568L289.108 102H287.86L285.94 95.34L284.032 102H282.784L280.336 93.6ZM297.801 101.1V102H297.261C296.869 102 296.589 101.92 296.421 101.76C296.253 101.6 296.165 101.364 296.157 101.052C295.685 101.732 295.001 102.072 294.105 102.072C293.425 102.072 292.877 101.912 292.461 101.592C292.053 101.272 291.849 100.836 291.849 100.284C291.849 99.668 292.057 99.196 292.473 98.868C292.897 98.54 293.509 98.376 294.309 98.376H296.109V97.956C296.109 97.556 295.973 97.244 295.701 97.02C295.437 96.796 295.065 96.684 294.585 96.684C294.161 96.684 293.809 96.78 293.529 96.972C293.257 97.156 293.089 97.404 293.025 97.716H292.041C292.113 97.116 292.377 96.648 292.833 96.312C293.297 95.976 293.897 95.808 294.633 95.808C295.417 95.808 296.021 96 296.445 96.384C296.877 96.76 297.093 97.304 297.093 98.016V100.656C297.093 100.952 297.229 101.1 297.501 101.1H297.801ZM296.109 99.204H294.213C293.301 99.204 292.845 99.544 292.845 100.224C292.845 100.528 292.965 100.772 293.205 100.956C293.445 101.14 293.769 101.232 294.177 101.232C294.777 101.232 295.249 101.076 295.593 100.764C295.937 100.444 296.109 100.024 296.109 99.504V99.204ZM298.678 93.6H299.662V102H298.678V93.6ZM301.13 93.6H302.114V102H301.13V93.6ZM303.366 98.94C303.366 98.316 303.486 97.768 303.726 97.296C303.974 96.824 304.318 96.46 304.758 96.204C305.198 95.94 305.702 95.808 306.27 95.808C306.83 95.808 307.326 95.924 307.758 96.156C308.19 96.388 308.53 96.724 308.778 97.164C309.026 97.604 309.158 98.12 309.174 98.712C309.174 98.8 309.166 98.94 309.15 99.132H304.398V99.216C304.414 99.816 304.598 100.296 304.95 100.656C305.302 101.016 305.762 101.196 306.33 101.196C306.77 101.196 307.142 101.088 307.446 100.872C307.758 100.648 307.966 100.34 308.07 99.948H309.066C308.946 100.572 308.646 101.084 308.166 101.484C307.686 101.876 307.098 102.072 306.402 102.072C305.794 102.072 305.262 101.944 304.806 101.688C304.35 101.424 303.994 101.056 303.738 100.584C303.49 100.104 303.366 99.556 303.366 98.94ZM308.154 98.316C308.106 97.796 307.91 97.392 307.566 97.104C307.23 96.816 306.802 96.672 306.282 96.672C305.818 96.672 305.41 96.824 305.058 97.128C304.706 97.432 304.506 97.828 304.458 98.316H308.154ZM310.754 96.78H309.65V95.88H310.754V94.164H311.738V95.88H313.286V96.78H311.738V100.392C311.738 100.648 311.786 100.832 311.882 100.944C311.986 101.048 312.162 101.1 312.41 101.1H313.478V102H312.35C311.774 102 311.362 101.872 311.114 101.616C310.874 101.36 310.754 100.956 310.754 100.404V96.78Z" fill="white"/>
<path d="M277.6 117.552C278.325 117.68 278.949 117.851 279.472 118.064C279.995 118.277 280.421 118.592 280.752 119.008C281.083 119.424 281.248 119.973 281.248 120.656C281.248 121.253 281.099 121.797 280.8 122.288C280.512 122.768 280.101 123.168 279.568 123.488C279.045 123.797 278.443 123.989 277.76 124.064V125.712H276.208V124.032C275.12 123.883 274.251 123.472 273.6 122.8C272.96 122.128 272.629 121.301 272.608 120.32L274.416 120.352C274.469 121.013 274.736 121.547 275.216 121.952C275.707 122.347 276.341 122.544 277.12 122.544C277.803 122.544 278.352 122.4 278.768 122.112C279.195 121.813 279.408 121.403 279.408 120.88C279.408 120.507 279.291 120.213 279.056 120C278.832 119.776 278.523 119.605 278.128 119.488C277.733 119.371 277.179 119.248 276.464 119.12C275.739 118.992 275.115 118.827 274.592 118.624C274.08 118.411 273.659 118.091 273.328 117.664C273.008 117.237 272.848 116.677 272.848 115.984C272.848 115.109 273.152 114.379 273.76 113.792C274.379 113.195 275.195 112.837 276.208 112.72V111.072H277.76V112.768C278.731 112.928 279.509 113.317 280.096 113.936C280.693 114.544 281.013 115.285 281.056 116.16H279.248C279.184 115.584 278.933 115.12 278.496 114.768C278.059 114.416 277.504 114.24 276.832 114.24C276.181 114.24 275.659 114.384 275.264 114.672C274.88 114.949 274.688 115.344 274.688 115.856C274.688 116.219 274.8 116.507 275.024 116.72C275.259 116.933 275.568 117.093 275.952 117.2C276.336 117.307 276.885 117.424 277.6 117.552ZM288.58 118.208C289.273 118.347 289.849 118.645 290.308 119.104C290.777 119.552 291.012 120.144 291.012 120.88C291.012 121.52 290.836 122.085 290.484 122.576C290.142 123.056 289.652 123.429 289.012 123.696C288.382 123.963 287.646 124.096 286.804 124.096C285.524 124.096 284.505 123.771 283.748 123.12C283.001 122.459 282.628 121.557 282.628 120.416H284.404C284.414 121.099 284.649 121.637 285.108 122.032C285.566 122.427 286.169 122.624 286.916 122.624C287.577 122.624 288.121 122.453 288.548 122.112C288.985 121.771 289.204 121.317 289.204 120.752C289.204 120.219 288.99 119.803 288.564 119.504C288.148 119.195 287.55 119.04 286.772 119.04H285.748V117.568H286.66C287.396 117.568 287.956 117.408 288.34 117.088C288.734 116.768 288.932 116.341 288.932 115.808C288.932 115.307 288.74 114.912 288.356 114.624C287.972 114.325 287.476 114.176 286.868 114.176C286.228 114.176 285.7 114.347 285.284 114.688C284.878 115.019 284.67 115.472 284.66 116.048H282.916C282.926 115.013 283.284 114.197 283.988 113.6C284.692 113.003 285.63 112.704 286.804 112.704C287.614 112.704 288.313 112.827 288.9 113.072C289.497 113.317 289.95 113.669 290.26 114.128C290.58 114.576 290.74 115.093 290.74 115.68C290.74 116.352 290.542 116.907 290.148 117.344C289.764 117.771 289.241 118.059 288.58 118.208ZM293.155 121.936C293.582 121.936 293.929 122.112 294.195 122.464C294.462 122.816 294.595 123.253 294.595 123.776C294.595 124.544 294.366 125.141 293.907 125.568C293.449 125.995 292.819 126.213 292.019 126.224V125.296C292.489 125.285 292.841 125.163 293.075 124.928C293.31 124.693 293.427 124.416 293.427 124.096C293.427 124 293.422 123.931 293.411 123.888C293.273 123.995 293.097 124.048 292.883 124.048C292.606 124.048 292.377 123.963 292.195 123.792C292.025 123.611 291.939 123.355 291.939 123.024C291.939 122.715 292.051 122.459 292.275 122.256C292.499 122.043 292.793 121.936 293.155 121.936ZM296.143 122.288C295.834 121.797 295.599 121.227 295.439 120.576C295.279 119.925 295.199 119.227 295.199 118.48C295.199 117.275 295.375 116.24 295.727 115.376C296.079 114.512 296.586 113.851 297.247 113.392C297.908 112.933 298.698 112.704 299.615 112.704C300.65 112.704 301.508 112.987 302.191 113.552C302.884 114.117 303.3 114.891 303.439 115.872H301.679C301.562 115.339 301.311 114.923 300.927 114.624C300.554 114.325 300.074 114.176 299.487 114.176C298.644 114.176 297.988 114.523 297.519 115.216C297.05 115.899 296.815 116.827 296.815 118V118.432C296.826 118.411 296.836 118.379 296.847 118.336C296.868 118.283 296.9 118.224 296.943 118.16C297.199 117.659 297.578 117.264 298.079 116.976C298.591 116.688 299.178 116.544 299.839 116.544C300.575 116.544 301.231 116.704 301.807 117.024C302.383 117.333 302.826 117.776 303.135 118.352C303.455 118.917 303.615 119.573 303.615 120.32C303.615 121.045 303.444 121.696 303.103 122.272C302.772 122.848 302.298 123.296 301.679 123.616C301.071 123.936 300.378 124.096 299.599 124.096C298.842 124.096 298.17 123.941 297.583 123.632C296.996 123.312 296.516 122.864 296.143 122.288ZM301.855 120.32C301.855 119.637 301.652 119.083 301.247 118.656C300.842 118.219 300.303 118 299.631 118C298.948 118 298.394 118.219 297.967 118.656C297.54 119.083 297.327 119.643 297.327 120.336C297.327 121.019 297.535 121.573 297.951 122C298.367 122.427 298.911 122.64 299.583 122.64C300.266 122.64 300.815 122.427 301.231 122C301.647 121.563 301.855 121.003 301.855 120.32ZM309.684 116.448C310.388 116.448 311.018 116.608 311.572 116.928C312.138 117.248 312.58 117.696 312.9 118.272C313.22 118.848 313.38 119.504 313.38 120.24C313.38 121.051 313.199 121.744 312.837 122.32C312.474 122.896 311.983 123.333 311.364 123.632C310.746 123.931 310.063 124.08 309.316 124.08C308.495 124.08 307.775 123.92 307.156 123.6C306.548 123.28 306.074 122.848 305.732 122.304C305.391 121.749 305.199 121.136 305.156 120.464H306.916C306.98 121.072 307.231 121.579 307.668 121.984C308.106 122.389 308.655 122.592 309.316 122.592C309.711 122.592 310.079 122.501 310.42 122.32C310.772 122.139 311.055 121.872 311.268 121.52C311.482 121.168 311.588 120.741 311.588 120.24C311.588 119.557 311.38 118.997 310.964 118.56C310.559 118.123 310.015 117.904 309.332 117.904C308.884 117.904 308.442 118.005 308.004 118.208C307.567 118.411 307.258 118.768 307.076 119.28L305.364 119.248L305.7 112.8H312.676V114.352H307.332L307.124 117.472C307.444 117.12 307.828 116.864 308.276 116.704C308.724 116.533 309.194 116.448 309.684 116.448ZM314.753 118.144C314.753 117.077 314.935 116.133 315.297 115.312C315.671 114.48 316.193 113.84 316.865 113.392C317.537 112.933 318.305 112.704 319.169 112.704C320.023 112.704 320.78 112.933 321.441 113.392C322.113 113.84 322.636 114.48 323.009 115.312C323.383 116.133 323.569 117.077 323.569 118.144V118.656C323.569 119.765 323.383 120.731 323.009 121.552C322.647 122.373 322.129 123.003 321.457 123.44C320.796 123.877 320.033 124.096 319.169 124.096C318.295 124.096 317.521 123.877 316.849 123.44C316.188 123.003 315.671 122.373 315.297 121.552C314.935 120.731 314.753 119.765 314.753 118.656V118.144ZM321.793 118.208C321.793 116.971 321.553 116.005 321.073 115.312C320.604 114.608 319.969 114.256 319.169 114.256C318.369 114.256 317.729 114.608 317.249 115.312C316.769 116.005 316.529 116.971 316.529 118.208V118.592C316.529 119.829 316.769 120.8 317.249 121.504C317.729 122.197 318.369 122.544 319.169 122.544C319.969 122.544 320.604 122.197 321.073 121.504C321.553 120.8 321.793 119.829 321.793 118.592V118.208Z" fill="white"/>
<path d="M298.134 144.5C298.519 145.167 299.481 145.167 299.866 144.5L304.196 137C304.581 136.333 304.1 135.5 303.33 135.5H294.67C293.9 135.5 293.419 136.333 293.804 137L298.134 144.5Z" fill="#0088FF"/>
</g>
<defs>
<filter id="filter0_d_824_15173" x="288" y="149" width="22" height="22" filterUnits="userSpaceOnUse" color-interpolation-filters="sRGB">
<feFlood flood-opacity="0" result="BackgroundImageFix"/>
<feColorMatrix in="SourceAlpha" type="matrix" values="0 0 0 0 0 0 0 0 0 0 0 0 0 0 0 0 0 0 127 0" result="hardAlpha"/>
<feOffset dy="4"/>
<feGaussianBlur stdDeviation="2"/>
<feColorMatrix type="matrix" values="0 0 0 0 0.376471 0 0 0 0 0.356863 0 0 0 0 1 0 0 0 0.17 0"/>
<feBlend mode="normal" in2="BackgroundImageFix" result="effect1_dropShadow_824_15173"/>
<feBlend mode="normal" in="SourceGraphic" in2="effect1_dropShadow_824_15173" result="shape"/>
</filter>
<linearGradient id="paint0_linear_824_15173" x1="323.686" y1="79.5425" x2="323.686" y2="265.086" gradientUnits="userSpaceOnUse">
<stop stop-color="#00B4BE" stop-opacity="0.1"/>
<stop offset="1" stop-color="white"/>
</linearGradient>
<clipPath id="clip0_824_15173">
<rect width="637.735" height="300.735" rx="8" fill="white"/>
</clipPath>
<clipPath id="clip1_824_15173">
<path d="M0 4.87321C0 0.175473 3.80827 -3.63281 8.506 -3.63281H613.85C618.547 -3.63281 622.356 0.175454 622.356 4.87319V291.861C622.356 296.559 618.547 300.367 613.85 300.367H8.50599C3.80825 300.367 0 296.559 0 291.861V4.87321Z" fill="white"/>
</clipPath>
<clipPath id="clip2_824_15173">
<rect width="588.486" height="251.784" fill="white" transform="translate(16.9336 13.3022)"/>
</clipPath>
<clipPath id="clip3_824_15173">
<rect width="588.486" height="12.7011" fill="white" transform="translate(16.9336 270.731)"/>
</clipPath>
</defs>
</svg>
