<svg width="1440" height="1024" viewBox="0 0 1440 1024" fill="none" xmlns="http://www.w3.org/2000/svg">
<g clip-path="url(#clip0_618_75)">
<rect width="1440" height="1024" fill="#00B4BE"/>
<g opacity="0.2">
<g opacity="0.010101">
<path d="M603.522 658.208L1106.61 214.535C1120.09 202.645 1139.92 201.371 1154.1 211.483L1635.96 555.145C1648.44 564.041 1653.69 579.776 1649.14 594.625L1445.92 1257.96C1441.38 1272.81 1427.98 1283.66 1412.32 1285.17L807.225 1343.78C789.419 1345.5 773.256 1334.79 768.523 1318.12L591.887 696.189C588.04 682.645 592.566 667.87 603.522 658.208Z" stroke="url(#paint0_linear_618_75)" stroke-width="6.03877" style="mix-blend-mode:soft-light"/>
</g>
<g opacity="0.020202">
<path d="M601.534 647.957L1109.63 214.104C1123.29 202.447 1143.13 201.56 1157.14 211.98L1631.53 564.839C1643.84 573.995 1648.84 589.848 1644.06 604.62L1431.12 1263.95C1426.35 1278.72 1412.81 1289.31 1397.16 1290.53L793.657 1337.41C775.835 1338.8 759.846 1327.74 755.385 1310.94L589.337 685.721C585.719 672.096 590.462 657.411 601.534 647.957Z" stroke="url(#paint1_linear_618_75)" stroke-width="6.03877" style="mix-blend-mode:soft-light"/>
</g>
<g opacity="0.030303">
<path d="M599.69 637.793L1112.62 213.859C1126.44 202.439 1146.29 201.94 1160.12 212.663L1626.94 574.576C1639.08 583.987 1643.81 599.955 1638.82 614.649L1416.25 1269.76C1411.26 1284.46 1397.58 1294.8 1381.94 1295.71L780.206 1330.91C762.377 1331.96 746.572 1320.56 742.384 1303.63L586.935 675.336C583.545 661.634 588.504 647.038 599.69 637.793Z" stroke="url(#paint2_linear_618_75)" stroke-width="6.03877" style="mix-blend-mode:soft-light"/>
</g>
<g opacity="0.040404">
<path d="M597.993 627.717L1115.58 213.795C1129.56 202.618 1149.4 202.507 1163.04 213.529L1622.17 584.348C1634.14 594.013 1638.61 610.092 1633.4 624.705L1401.32 1275.41C1396.1 1290.03 1382.3 1300.11 1366.67 1300.73L766.878 1324.28C749.05 1324.98 733.437 1313.24 729.526 1296.2L584.682 665.037C581.52 651.258 586.694 636.753 597.993 627.717Z" stroke="url(#paint3_linear_618_75)" stroke-width="6.03877" style="mix-blend-mode:soft-light"/>
</g>
<g opacity="0.050505">
<path d="M596.436 617.73L1118.5 213.911C1132.63 202.981 1152.45 203.258 1165.9 214.574L1617.24 594.151C1629.03 604.067 1633.24 620.254 1627.81 634.783L1386.32 1280.89C1380.89 1295.42 1366.96 1305.25 1351.34 1305.56L753.669 1317.51C735.851 1317.87 720.44 1305.8 716.806 1288.64L582.572 654.824C579.638 640.97 585.025 626.557 596.436 617.73Z" stroke="url(#paint4_linear_618_75)" stroke-width="6.03877" style="mix-blend-mode:soft-light"/>
</g>
<g opacity="0.0606061">
<path d="M595.016 607.837L1121.37 214.208C1135.65 203.528 1155.44 204.193 1168.7 215.798L1612.14 603.984C1623.75 614.146 1627.69 630.438 1622.05 644.881L1371.26 1286.2C1365.62 1300.65 1351.56 1310.22 1335.97 1310.23L740.58 1310.62C722.781 1310.63 707.581 1298.23 704.227 1280.97L580.601 644.701C577.895 630.775 583.496 616.453 595.016 607.837Z" stroke="url(#paint5_linear_618_75)" stroke-width="6.03877" style="mix-blend-mode:soft-light"/>
</g>
<g opacity="0.0707071">
<path d="M593.739 598.041L1124.2 214.683C1138.63 204.26 1158.38 205.312 1171.43 217.199L1606.87 613.842C1618.3 624.248 1621.98 640.642 1616.12 654.996L1356.16 1291.34C1350.3 1305.69 1336.11 1315 1320.56 1314.71L727.621 1303.59C709.85 1303.26 694.869 1290.54 691.796 1273.18L578.775 634.671C576.298 620.674 582.111 606.444 593.739 598.041Z" stroke="url(#paint6_linear_618_75)" stroke-width="6.03877" style="mix-blend-mode:soft-light"/>
</g>
<g opacity="0.0808081">
<path d="M592.596 588.346L1126.99 215.34C1141.55 205.176 1161.25 206.614 1174.08 218.779L1601.44 623.726C1612.68 634.372 1616.09 650.863 1610.01 665.126L1341 1296.31C1334.92 1310.57 1320.62 1319.62 1305.1 1319.02L714.786 1296.44C697.052 1295.76 682.298 1282.73 679.508 1265.27L577.085 624.739C574.836 610.674 580.862 596.537 592.596 588.346Z" stroke="url(#paint7_linear_618_75)" stroke-width="6.03877" style="mix-blend-mode:soft-light"/>
</g>
<g opacity="0.0909091">
<path d="M591.588 578.751L1129.72 216.172C1144.42 206.272 1164.05 208.095 1176.67 220.532L1595.84 633.626C1606.88 644.509 1610.03 661.095 1603.73 675.265L1325.8 1301.1C1319.5 1315.27 1305.09 1324.05 1289.61 1323.16L702.079 1289.17C684.391 1288.14 669.873 1274.8 667.366 1257.26L575.532 614.905C573.511 600.772 579.748 586.728 591.588 578.751Z" stroke="url(#paint8_linear_618_75)" stroke-width="6.03877" style="mix-blend-mode:soft-light"/>
</g>
<g opacity="0.10101">
<path d="M590.708 569.262L1132.4 217.182C1147.22 207.549 1166.78 209.756 1179.18 222.457L1590.07 643.543C1600.92 654.659 1603.79 671.336 1597.29 685.41L1310.54 1305.71C1304.04 1319.79 1289.51 1328.31 1274.08 1327.11L689.498 1281.77C671.865 1280.4 657.591 1266.76 655.368 1249.14L574.108 605.172C572.316 590.974 578.765 577.025 590.708 569.262Z" stroke="url(#paint9_linear_618_75)" stroke-width="6.03877" style="mix-blend-mode:soft-light"/>
</g>
<g opacity="0.111111">
<path d="M589.963 559.882L1135.03 218.369C1149.97 209.008 1169.45 211.595 1181.62 224.556L1584.14 653.475C1594.79 664.82 1597.39 681.584 1590.67 695.559L1295.25 1310.15C1288.53 1324.13 1273.9 1332.39 1258.52 1330.89L677.053 1274.26C659.483 1272.55 645.462 1258.6 643.524 1240.91L572.821 595.545C571.259 581.283 577.918 567.429 589.963 559.882Z" stroke="url(#paint10_linear_618_75)" stroke-width="6.03877" style="mix-blend-mode:soft-light"/>
</g>
<g opacity="0.121212">
<path d="M589.342 550.609L1137.6 219.728C1152.66 210.642 1172.04 213.607 1183.97 226.82L1578.04 663.413C1588.48 674.983 1590.81 691.831 1583.88 705.705L1279.92 1314.42C1272.99 1328.29 1258.26 1336.29 1242.93 1334.49L664.737 1266.62C647.239 1264.57 633.478 1250.34 631.825 1232.58L571.659 586.021C570.326 571.698 577.197 557.939 589.342 550.609Z" stroke="url(#paint11_linear_618_75)" stroke-width="6.03877" style="mix-blend-mode:soft-light"/>
</g>
<g opacity="0.131313">
<path d="M588.848 541.454L1140.11 221.265C1155.27 212.458 1174.56 215.798 1186.25 229.256L1571.78 673.361C1582.01 685.154 1584.07 702.081 1576.93 715.852L1264.55 1318.51C1257.42 1332.28 1242.58 1340.01 1227.32 1337.91L652.556 1258.88C635.139 1256.49 621.645 1241.97 620.279 1224.16L570.625 576.612C569.522 562.228 576.603 548.566 588.848 541.454Z" stroke="url(#paint12_linear_618_75)" stroke-width="6.03877" style="mix-blend-mode:soft-light"/>
</g>
<g opacity="0.141414">
<path d="M588.475 532.413L1142.56 222.974C1157.82 214.447 1177 218.16 1188.43 231.856L1565.35 683.311C1575.37 695.321 1577.15 712.325 1569.8 725.989L1249.15 1322.42C1241.8 1336.08 1226.88 1343.55 1211.68 1341.15L640.508 1251.02C623.18 1248.29 609.96 1233.5 608.881 1215.63L569.712 567.312C568.84 552.87 576.132 539.306 588.475 532.413Z" stroke="url(#paint13_linear_618_75)" stroke-width="6.03877" style="mix-blend-mode:soft-light"/>
</g>
<g opacity="0.151515">
<path d="M588.224 523.489L1144.94 224.853C1160.3 216.612 1179.36 220.693 1190.54 234.62L1558.76 693.261C1568.57 705.484 1570.07 722.56 1562.51 736.116L1233.72 1326.15C1226.17 1339.71 1211.15 1346.9 1196.02 1344.21L628.597 1243.06C611.367 1239.99 598.429 1224.93 597.637 1207.02L568.923 558.126C568.281 543.627 575.785 530.162 588.224 523.489Z" stroke="url(#paint14_linear_618_75)" stroke-width="6.03877" style="mix-blend-mode:soft-light"/>
</g>
<g opacity="0.161616">
<path d="M588.089 514.688L1147.25 226.905C1162.7 218.951 1181.63 223.397 1192.55 237.547L1552 703.208C1561.59 715.641 1562.81 732.785 1555.05 746.23L1218.26 1329.71C1210.5 1343.15 1195.39 1350.08 1180.35 1347.08L616.823 1234.98C599.698 1231.58 587.049 1216.26 586.543 1198.31L568.25 549.059C567.84 534.505 575.555 521.139 588.089 514.688Z" stroke="url(#paint15_linear_618_75)" stroke-width="6.03877" style="mix-blend-mode:soft-light"/>
</g>
<g opacity="0.171717">
<path d="M588.069 506.011L1149.49 229.126C1165.03 221.463 1183.82 226.269 1194.48 240.635L1545.08 713.149C1554.45 725.787 1555.39 742.995 1547.42 756.327L1202.78 1333.08C1194.81 1346.41 1179.62 1353.07 1164.66 1349.78L605.186 1226.81C588.176 1223.07 575.821 1207.5 575.602 1189.52L567.693 540.11C567.515 525.503 575.441 512.239 588.069 506.011Z" stroke="url(#paint16_linear_618_75)" stroke-width="6.03877" style="mix-blend-mode:soft-light"/>
</g>
<g opacity="0.181818">
<path d="M588.17 497.46L1151.67 231.516C1167.28 224.145 1185.92 229.307 1196.31 243.882L1538 723.081C1547.15 735.919 1547.81 753.188 1539.64 766.403L1187.29 1336.28C1179.11 1349.49 1163.84 1355.88 1148.96 1352.29L593.698 1218.53C576.81 1214.46 564.756 1198.65 564.823 1180.65L567.257 531.283C567.312 516.625 575.45 503.463 588.17 497.46Z" stroke="url(#paint17_linear_618_75)" stroke-width="6.03877" style="mix-blend-mode:soft-light"/>
</g>
<g opacity="0.191919">
<path d="M588.374 489.036L1153.76 234.071C1169.45 226.995 1187.93 232.508 1198.05 247.283L1530.76 732.998C1539.68 746.033 1540.05 763.358 1531.68 776.453L1171.77 1339.3C1163.39 1352.39 1148.04 1358.5 1133.25 1354.63L582.343 1210.15C565.585 1205.75 553.838 1189.71 554.191 1171.69L566.925 522.579C567.214 507.871 575.564 494.813 588.374 489.036Z" stroke="url(#paint18_linear_618_75)" stroke-width="6.03877" style="mix-blend-mode:soft-light"/>
</g>
<g opacity="0.20202">
<path d="M588.692 480.741L1155.78 236.79C1171.53 230.012 1189.85 235.871 1199.7 250.838L1523.35 742.898C1532.05 756.125 1532.14 773.501 1523.56 786.475L1156.24 1342.13C1147.66 1355.11 1132.23 1360.94 1117.54 1356.78L571.136 1201.67C554.516 1196.95 543.08 1180.68 543.719 1162.66L566.706 513.999C567.229 499.243 575.792 486.29 588.692 480.741Z" stroke="url(#paint19_linear_618_75)" stroke-width="6.03877" style="mix-blend-mode:soft-light"/>
</g>
<g opacity="0.212121">
<path d="M589.112 472.583L1157.72 239.677C1173.53 233.198 1191.68 239.399 1201.24 254.55L1515.79 752.782C1524.26 766.197 1524.06 783.621 1515.28 796.47L1140.69 1344.79C1131.91 1357.64 1116.41 1363.21 1101.83 1358.75L560.071 1193.1C543.596 1188.06 532.478 1171.58 533.401 1153.55L566.591 505.55C567.349 490.749 576.125 477.903 589.112 472.583Z" stroke="url(#paint20_linear_618_75)" stroke-width="6.03877" style="mix-blend-mode:soft-light"/>
</g>
<g opacity="0.222222">
<path d="M589.635 464.557L1159.57 242.723C1175.44 236.546 1193.4 243.082 1202.69 258.41L1508.07 762.642C1516.3 776.239 1515.81 793.706 1506.83 806.428L1125.14 1347.27C1116.16 1359.99 1100.59 1365.28 1086.11 1360.53L549.15 1184.44C532.827 1179.09 522.031 1162.39 523.238 1144.37L566.577 497.229C567.572 482.384 576.561 469.646 589.635 464.557Z" stroke="url(#paint21_linear_618_75)" stroke-width="6.03877" style="mix-blend-mode:soft-light"/>
</g>
<g opacity="0.232323">
<path d="M590.261 456.672L1161.34 245.933C1177.26 240.059 1195.04 246.924 1204.03 262.42L1500.19 772.477C1508.19 786.254 1507.41 803.759 1498.23 816.351L1109.58 1349.57C1100.41 1362.16 1084.77 1367.17 1070.4 1362.14L538.379 1175.69C522.215 1170.02 511.745 1153.13 513.235 1135.13L566.668 489.041C567.899 474.155 577.103 461.528 590.261 456.672Z" stroke="url(#paint22_linear_618_75)" stroke-width="6.03877" style="mix-blend-mode:soft-light"/>
</g>
<g opacity="0.242424">
<path d="M590.983 448.925L1163.02 249.302C1178.98 243.732 1196.57 250.922 1205.27 266.577L1492.15 782.284C1499.91 796.234 1498.84 813.773 1489.46 826.233L1094.02 1351.68C1084.65 1364.14 1068.95 1368.88 1054.7 1363.56L527.751 1166.85C511.755 1160.88 501.615 1143.8 503.386 1125.81L566.854 480.988C568.323 466.061 577.741 453.546 590.983 448.925Z" stroke="url(#paint23_linear_618_75)" stroke-width="6.03877" style="mix-blend-mode:soft-light"/>
</g>
<g opacity="0.252525">
<path d="M591.801 441.321L1164.62 252.828C1180.61 247.565 1197.99 255.072 1206.41 270.878L1483.96 792.059C1491.48 806.178 1490.11 823.746 1480.54 836.07L1078.46 1353.62C1068.89 1365.94 1053.14 1370.41 1039.01 1364.8L517.275 1157.93C501.452 1151.66 491.646 1134.4 493.697 1116.44L567.136 473.069C568.844 458.105 578.479 445.705 591.801 441.321Z" stroke="url(#paint24_linear_618_75)" stroke-width="6.03877" style="mix-blend-mode:soft-light"/>
</g>
<g opacity="0.262626">
<path d="M592.715 433.857L1166.12 256.508C1182.15 251.552 1199.32 259.37 1207.44 275.32L1475.62 801.797C1482.89 816.08 1481.23 833.673 1471.46 845.857L1062.91 1355.38C1053.14 1367.56 1037.34 1371.75 1023.33 1365.86L506.951 1148.93C491.307 1142.36 481.839 1124.93 484.168 1107L567.514 465.285C569.462 450.287 579.312 438.002 592.715 433.857Z" stroke="url(#paint25_linear_618_75)" stroke-width="6.03877" style="mix-blend-mode:soft-light"/>
</g>
<g opacity="0.272727">
<path d="M593.714 426.543L1167.53 260.347C1183.58 255.699 1200.54 263.822 1208.37 279.906L1467.12 811.501C1474.15 825.943 1472.19 843.556 1462.23 855.598L1047.36 1356.96C1037.4 1369 1021.54 1372.91 1007.66 1366.74L496.774 1139.85C481.316 1132.99 472.188 1115.4 474.794 1097.51L567.978 457.645C570.167 442.613 580.234 430.448 593.714 426.543Z" stroke="url(#paint26_linear_618_75)" stroke-width="6.03877" style="mix-blend-mode:soft-light"/>
</g>
<g opacity="0.282828">
<path d="M594.798 419.377L1168.84 264.337C1184.91 259.999 1201.64 268.419 1209.17 284.63L1458.46 821.163C1465.24 835.759 1463 853.387 1452.84 865.284L1031.82 1358.36C1021.66 1370.25 1005.76 1373.88 992.013 1367.44L486.746 1130.7C471.48 1123.55 462.696 1105.81 465.576 1087.97L568.527 450.144C570.958 435.082 581.242 423.038 594.798 419.377Z" stroke="url(#paint27_linear_618_75)" stroke-width="6.03877" style="mix-blend-mode:soft-light"/>
</g>
<g opacity="0.292929">
<path d="M595.973 412.361L1170.06 268.48C1186.14 264.451 1202.64 273.163 1209.88 289.491L1449.66 830.782C1456.19 845.528 1453.65 863.165 1443.3 874.914L1016.3 1359.58C1005.95 1371.33 989.999 1374.68 976.391 1367.96L476.877 1121.48C461.809 1114.04 453.37 1096.17 456.524 1078.37L569.167 442.787C571.841 427.697 582.343 415.777 595.973 412.361Z" stroke="url(#paint28_linear_618_75)" stroke-width="6.03877" style="mix-blend-mode:soft-light"/>
</g>
<g opacity="0.30303">
<path d="M597.226 405.494L1171.18 272.769C1187.25 269.051 1203.53 278.047 1210.46 294.485L1440.71 840.351C1446.99 855.242 1444.15 872.883 1433.61 884.481L1000.79 1360.62C990.245 1372.21 974.255 1375.29 960.789 1368.3L467.158 1112.18C452.293 1104.47 444.202 1086.47 447.627 1068.73L569.884 435.572C572.803 420.456 583.524 408.662 597.226 405.494Z" stroke="url(#paint29_linear_618_75)" stroke-width="6.03877" style="mix-blend-mode:soft-light"/>
</g>
<g opacity="0.313131">
<path d="M598.555 398.782L1172.19 277.207C1188.26 273.799 1204.3 283.074 1210.94 299.612L1431.6 849.873C1437.63 864.903 1434.5 882.544 1423.76 893.988L985.293 1361.48C974.56 1372.92 958.532 1375.71 945.213 1368.46L457.591 1102.82C442.935 1094.84 435.193 1076.72 438.887 1059.04L570.679 428.504C573.843 413.366 584.784 401.701 598.555 398.782Z" stroke="url(#paint30_linear_618_75)" stroke-width="6.03877" style="mix-blend-mode:soft-light"/>
</g>
<g opacity="0.323232">
<path d="M599.968 392.224L1173.1 281.789C1189.17 278.693 1204.97 288.238 1211.3 304.869L1422.36 859.34C1428.13 874.505 1424.7 892.141 1413.78 903.426L969.826 1362.17C958.904 1373.45 942.842 1375.96 929.673 1368.44L448.187 1093.4C433.744 1085.15 426.352 1066.92 430.313 1049.32L571.557 421.581C574.968 406.423 586.128 394.891 599.968 392.224Z" stroke="url(#paint31_linear_618_75)" stroke-width="6.03877" style="mix-blend-mode:soft-light"/>
</g>
<g opacity="0.333333">
<path d="M601.442 385.825L1173.9 286.516C1189.95 283.73 1205.5 293.539 1211.53 310.255L1412.96 868.753C1418.48 884.047 1414.75 901.672 1403.64 912.796L954.371 1362.68C943.262 1373.8 927.169 1376.03 914.155 1368.24L438.927 1083.92C424.703 1075.41 417.662 1057.07 421.887 1039.55L572.498 414.808C576.156 399.633 587.537 388.237 601.442 385.825Z" stroke="url(#paint32_linear_618_75)" stroke-width="6.03877" style="mix-blend-mode:soft-light"/>
</g>
<g opacity="0.343434">
<path d="M602.993 379.582L1174.59 291.383C1190.63 288.908 1205.93 298.973 1211.65 315.766L1403.42 878.106C1408.68 893.525 1404.65 911.133 1393.36 922.093L938.951 1363.01C927.656 1373.97 911.535 1375.91 898.68 1367.86L429.831 1074.38C415.83 1065.61 409.141 1047.19 413.628 1029.75L573.516 408.183C577.423 392.995 589.025 381.737 602.993 379.582Z" stroke="url(#paint33_linear_618_75)" stroke-width="6.03877" style="mix-blend-mode:soft-light"/>
</g>
<g opacity="0.353535">
<path d="M604.611 373.502L1175.17 296.392C1191.19 294.228 1206.23 304.542 1211.66 321.404L1393.75 887.401C1398.74 902.938 1394.42 920.525 1382.94 931.317L923.56 1363.17C912.081 1373.96 895.935 1375.62 883.243 1367.31L420.893 1064.78C407.119 1055.77 400.782 1037.27 405.528 1019.92L574.603 401.712C578.76 386.513 590.583 375.398 604.611 373.502Z" stroke="url(#paint34_linear_618_75)" stroke-width="6.03877" style="mix-blend-mode:soft-light"/>
</g>
<g opacity="0.363636">
<path d="M606.288 367.58L1175.64 301.534C1191.62 299.68 1206.41 310.237 1211.53 327.159L1383.92 896.627C1388.66 912.279 1384.03 929.838 1372.37 940.458L908.195 1363.15C896.533 1373.77 880.366 1375.14 867.84 1366.58L412.106 1055.14C398.563 1045.88 392.579 1027.31 397.581 1010.06L575.748 395.39C580.156 380.183 592.202 369.214 606.288 367.58Z" stroke="url(#paint35_linear_618_75)" stroke-width="6.03877" style="mix-blend-mode:soft-light"/>
</g>
<g opacity="0.373737">
<path d="M608.03 361.825L1176 306.816C1191.95 305.272 1206.47 316.064 1211.29 333.039L1373.96 905.791C1378.44 921.552 1373.51 939.078 1361.67 949.523L892.87 1362.96C881.026 1373.4 864.842 1374.49 852.487 1365.68L403.482 1045.45C390.174 1035.96 384.543 1017.32 389.798 1000.17L576.961 389.225C581.621 374.013 593.889 363.195 608.03 361.825Z" stroke="url(#paint36_linear_618_75)" stroke-width="6.03877" style="mix-blend-mode:soft-light"/>
</g>
<g opacity="0.383838">
<path d="M609.832 356.231L1176.24 312.227C1192.15 310.991 1206.41 322.012 1210.93 339.032L1363.86 914.881C1368.08 930.745 1362.85 948.233 1350.83 958.499L877.584 1362.59C865.561 1372.86 849.362 1373.66 837.181 1364.6L395.019 1035.72C381.95 1025.99 376.669 1007.31 382.175 990.26L578.236 383.21C583.149 367.998 595.639 357.333 609.832 356.231Z" stroke="url(#paint37_linear_618_75)" stroke-width="6.03877" style="mix-blend-mode:soft-light"/>
</g>
<g opacity="0.393939">
<path d="M611.682 350.803L1176.36 317.77C1192.22 316.843 1206.21 328.084 1210.43 345.142L1353.62 923.901C1357.57 939.863 1352.05 957.306 1339.85 967.39L862.331 1362.05C850.13 1372.14 833.92 1372.66 821.917 1363.35L386.707 1025.94C373.88 1016 368.95 997.264 374.703 980.33L579.559 377.353C584.726 362.143 597.439 351.637 611.682 350.803Z" stroke="url(#paint38_linear_618_75)" stroke-width="6.03877" style="mix-blend-mode:soft-light"/>
</g>
<g opacity="0.40404">
<path d="M613.591 345.541L1176.37 323.44C1192.17 322.819 1205.89 334.275 1209.82 351.363L1343.26 932.843C1346.94 948.899 1341.12 966.291 1328.74 976.189L847.126 1361.34C834.75 1371.24 818.533 1371.47 806.711 1361.92L378.561 1016.13C365.979 1005.96 361.398 987.197 367.396 970.381L580.943 371.649C586.366 356.447 599.301 346.102 613.591 345.541Z" stroke="url(#paint39_linear_618_75)" stroke-width="6.03877" style="mix-blend-mode:soft-light"/>
</g>
<g opacity="0.414141">
<path d="M615.548 340.45L1176.25 329.24C1192 328.925 1205.45 340.587 1209.07 357.698L1332.76 941.71C1336.18 957.855 1330.05 975.191 1317.5 984.899L831.968 1360.46C819.417 1370.17 803.197 1370.12 791.559 1360.33L370.575 1006.28C358.241 995.907 354.008 977.114 360.247 960.422L582.379 366.107C588.057 350.914 601.215 340.737 615.548 340.45Z" stroke="url(#paint40_linear_618_75)" stroke-width="6.03877" style="mix-blend-mode:soft-light"/>
</g>
<g opacity="0.424242">
<path d="M617.551 335.527L1176.01 335.161C1191.7 335.151 1204.87 347.014 1208.2 364.14L1322.13 950.496C1325.28 966.723 1318.86 983.998 1306.14 993.512L816.856 1359.42C804.134 1368.93 787.912 1368.59 776.463 1358.57L362.748 996.403C350.664 985.825 346.778 967.015 353.255 950.452L583.862 360.721C589.797 345.543 603.178 335.536 617.551 335.527Z" stroke="url(#paint41_linear_618_75)" stroke-width="6.03877" style="mix-blend-mode:soft-light"/>
</g>
<g opacity="0.434343">
<path d="M619.59 330.772L1175.64 341.202C1191.26 341.495 1204.16 353.551 1207.19 370.686L1311.36 959.197C1314.25 975.502 1307.53 992.708 1294.64 1002.03L801.788 1358.2C788.896 1367.51 772.678 1366.88 761.42 1356.63L355.074 986.496C343.243 975.719 339.701 956.899 346.413 940.471L585.384 355.491C591.577 340.332 605.18 330.501 619.59 330.772Z" stroke="url(#paint42_linear_618_75)" stroke-width="6.03877" style="mix-blend-mode:soft-light"/>
</g>
<g opacity="0.444444">
<path d="M621.672 326.189L1175.15 347.364C1190.69 347.958 1203.32 360.201 1206.06 377.337L1300.47 967.813C1303.09 984.19 1296.07 1001.32 1283.01 1010.44L786.776 1356.81C773.716 1365.93 757.505 1365.01 746.442 1354.53L347.563 976.565C335.987 965.596 332.788 946.776 339.73 930.486L586.953 350.423C593.404 335.286 607.229 325.636 621.672 326.189Z" stroke="url(#paint43_linear_618_75)" stroke-width="6.03877" style="mix-blend-mode:soft-light"/>
</g>
<g opacity="0.454545">
<path d="M623.788 321.78L1174.53 353.643C1189.99 354.538 1202.34 366.96 1204.79 384.092L1289.46 976.344C1291.81 992.788 1284.49 1009.84 1271.27 1018.75L771.817 1355.27C758.592 1364.18 742.391 1362.97 731.526 1352.26L340.21 966.616C328.891 955.461 326.032 936.648 333.202 920.502L588.56 345.516C595.27 330.406 609.316 320.943 623.788 321.78Z" stroke="url(#paint44_linear_618_75)" stroke-width="6.03877" style="mix-blend-mode:soft-light"/>
</g>
<g opacity="0.464646">
<path d="M625.939 317.54L1173.78 360.034C1189.16 361.227 1201.22 373.822 1203.38 390.942L1278.32 984.78C1280.4 1001.29 1272.79 1018.25 1259.4 1026.95L756.917 1353.55C743.529 1362.25 727.341 1360.75 716.677 1349.82L333.018 956.645C321.957 945.31 319.436 926.512 326.83 910.516L590.204 340.766C597.174 325.688 611.44 316.416 625.939 317.54Z" stroke="url(#paint45_linear_618_75)" stroke-width="6.03877" style="mix-blend-mode:soft-light"/>
</g>
<g opacity="0.474747">
<path d="M628.119 313.474L1172.9 366.535C1188.19 368.024 1199.97 380.786 1201.85 397.888L1267.06 993.122C1268.87 1009.68 1260.97 1026.56 1247.42 1035.05L742.075 1351.67C728.527 1360.16 712.357 1358.37 701.897 1347.22L325.984 946.66C315.184 935.151 312.997 916.376 320.612 900.533L591.883 336.177C599.113 321.136 613.599 312.059 628.119 313.474Z" stroke="url(#paint46_linear_618_75)" stroke-width="6.03877" style="mix-blend-mode:soft-light"/>
</g>
<g opacity="0.484848">
<path d="M630.327 309.583L1171.88 373.146C1187.08 374.93 1198.59 387.853 1200.18 404.93L1255.68 1001.37C1257.22 1017.98 1249.03 1034.76 1235.32 1043.03L727.297 1349.63C713.591 1357.9 697.442 1355.82 687.189 1344.46L319.111 936.665C308.572 924.989 306.718 906.244 314.55 890.559L593.594 331.751C601.085 316.751 615.789 307.876 630.327 309.583Z" stroke="url(#paint47_linear_618_75)" stroke-width="6.03877" style="mix-blend-mode:soft-light"/>
</g>
<g opacity="0.494949">
<path d="M632.564 305.865L1170.74 379.863C1185.85 381.939 1197.07 395.016 1198.37 412.063L1244.19 1009.52C1245.46 1026.18 1236.98 1042.85 1223.12 1050.9L712.587 1347.43C698.726 1355.48 682.603 1353.11 672.56 1341.54L312.402 926.661C302.125 914.823 300.6 896.116 308.645 880.594L595.339 327.486C603.091 312.531 618.013 303.864 632.564 305.865Z" stroke="url(#paint48_linear_618_75)" stroke-width="6.03877" style="mix-blend-mode:soft-light"/>
</g>
<g opacity="0.50505">
<path d="M634.813 302.324L1169.46 386.684C1184.46 389.051 1195.4 402.275 1196.43 419.286L1232.57 1017.57C1233.58 1034.27 1224.8 1050.83 1210.79 1058.65L697.936 1345.07C683.923 1352.89 667.828 1350.23 657.998 1338.45L305.843 916.654C295.829 904.66 294.63 885.997 302.885 870.642L597.102 323.384C605.115 308.48 620.253 300.026 634.813 302.324Z" stroke="url(#paint49_linear_618_75)" stroke-width="6.03877" style="mix-blend-mode:soft-light"/>
</g>
<g opacity="0.515152">
<path d="M637.081 298.958L1168.04 393.605C1182.94 396.261 1193.59 409.626 1194.34 426.597L1220.85 1025.52C1221.59 1042.25 1212.52 1058.69 1198.36 1066.29L683.355 1342.55C669.193 1350.15 653.131 1347.19 643.516 1335.21L299.443 906.645C289.694 894.502 288.817 875.891 297.278 860.707L598.89 319.444C607.164 304.597 622.516 296.362 637.081 298.958Z" stroke="url(#paint50_linear_618_75)" stroke-width="6.03877" style="mix-blend-mode:soft-light"/>
</g>
<g opacity="0.525253">
<path d="M639.364 295.767L1166.49 400.624C1181.27 403.565 1191.65 417.067 1192.12 433.99L1209.01 1033.36C1209.48 1050.12 1200.13 1066.44 1185.82 1073.8L668.845 1339.87C654.537 1347.24 638.512 1343.99 629.115 1331.81L293.202 896.638C283.718 884.351 283.16 865.798 291.823 850.789L600.7 315.666C609.235 300.88 624.799 292.87 639.364 295.767Z" stroke="url(#paint51_linear_618_75)" stroke-width="6.03877" style="mix-blend-mode:soft-light"/>
</g>
<g opacity="0.535354">
<path d="M641.658 292.754L1164.8 407.74C1179.46 410.964 1189.56 424.596 1189.76 441.467L1197.06 1041.09C1197.27 1057.88 1187.63 1074.07 1173.18 1081.19L654.408 1337.05C639.957 1344.17 623.973 1340.63 614.796 1328.26L287.118 886.638C277.898 874.213 277.656 855.724 286.517 840.894L602.527 312.053C611.323 297.334 627.098 289.554 641.658 292.754Z" stroke="url(#paint52_linear_618_75)" stroke-width="6.03877" style="mix-blend-mode:soft-light"/>
</g>
<g opacity="0.545455">
<path d="M643.963 289.915L1162.97 414.945C1177.52 418.451 1187.33 432.207 1187.26 449.02L1185.01 1048.72C1184.95 1065.53 1175.03 1081.57 1160.44 1088.46L640.049 1334.06C625.459 1340.95 609.519 1337.11 600.565 1324.55L281.193 876.644C272.239 864.087 272.308 845.668 281.364 831.022L604.373 308.599C613.429 293.953 629.412 286.41 643.963 289.915Z" stroke="url(#paint53_linear_618_75)" stroke-width="6.03877" style="mix-blend-mode:soft-light"/>
</g>
<g opacity="0.555556">
<path d="M646.266 287.254L1160.99 422.242C1175.42 426.026 1184.95 439.901 1184.62 456.652L1172.85 1056.23C1172.52 1073.06 1162.32 1088.96 1147.6 1095.6L625.76 1330.93C611.034 1337.57 595.143 1333.43 586.414 1320.69L275.417 866.664C266.728 853.98 267.106 835.638 276.352 821.178L606.225 305.31C615.541 290.742 631.73 283.442 646.266 287.254Z" stroke="url(#paint54_linear_618_75)" stroke-width="6.03877" style="mix-blend-mode:soft-light"/>
</g>
<g opacity="0.565657">
<path d="M648.579 284.77L1158.88 429.626C1173.18 433.686 1182.43 447.676 1181.84 464.359L1160.6 1063.63C1160 1080.47 1149.52 1096.22 1134.67 1102.61L611.558 1327.64C596.701 1334.03 580.862 1329.61 572.361 1316.68L269.805 856.7C261.382 843.895 262.063 825.635 271.496 811.365L608.096 302.185C617.672 287.701 634.063 280.649 648.579 284.77Z" stroke="url(#paint55_linear_618_75)" stroke-width="6.03877" style="mix-blend-mode:soft-light"/>
</g>
<g opacity="0.575758">
<path d="M650.883 282.461L1156.62 437.093C1170.79 441.425 1179.76 455.523 1178.91 472.135L1148.24 1070.91C1147.38 1087.76 1136.62 1103.35 1121.64 1109.49L597.43 1324.21C582.444 1330.35 566.662 1325.62 558.391 1312.52L264.338 846.753C256.181 833.831 257.162 815.659 266.778 801.583L609.967 299.221C619.801 284.826 636.391 278.03 650.883 282.461Z" stroke="url(#paint56_linear_618_75)" stroke-width="6.03877" style="mix-blend-mode:soft-light"/>
</g>
<g opacity="0.585859">
<path d="M653.185 280.33L1154.22 444.641C1168.26 449.245 1176.94 463.446 1175.84 479.981L1135.78 1078.08C1134.65 1094.92 1123.63 1110.35 1108.52 1116.23L583.386 1320.63C568.276 1326.51 552.556 1321.49 544.516 1308.22L259.028 836.829C251.135 823.797 252.413 805.717 262.208 791.838L611.845 296.42C621.936 282.121 638.723 275.587 653.185 280.33Z" stroke="url(#paint57_linear_618_75)" stroke-width="6.03877" style="mix-blend-mode:soft-light"/>
</g>
<g opacity="0.59596">
<path d="M655.481 278.374L1151.68 452.268C1165.58 457.139 1173.98 471.439 1172.62 487.894L1123.23 1085.13C1121.84 1101.96 1110.54 1117.23 1095.31 1122.85L569.43 1316.91C554.199 1322.53 538.544 1317.21 530.738 1303.77L253.872 826.93C246.244 813.792 247.814 795.81 257.784 782.131L613.728 293.782C624.076 279.585 641.055 273.319 655.481 278.374Z" stroke="url(#paint58_linear_618_75)" stroke-width="6.03877" style="mix-blend-mode:soft-light"/>
</g>
<g opacity="0.606061">
<path d="M657.767 276.597L1148.99 459.971C1162.75 465.107 1170.88 479.501 1169.27 495.871L1110.59 1092.05C1108.93 1108.88 1097.37 1123.97 1082.02 1129.32L555.56 1313.04C540.213 1318.4 524.629 1312.78 517.059 1299.17L248.868 817.061C241.504 803.822 243.362 785.943 253.504 772.468L615.611 291.308C626.215 277.218 643.383 271.227 657.767 276.597Z" stroke="url(#paint59_linear_618_75)" stroke-width="6.03877" style="mix-blend-mode:soft-light"/>
</g>
<g opacity="0.616162">
<path d="M660.041 274.993L1146.16 467.745C1159.77 473.142 1167.63 487.626 1165.77 503.908L1097.86 1098.85C1095.94 1115.67 1084.11 1130.57 1068.65 1135.66L541.779 1309.03C526.321 1314.12 510.811 1308.21 503.479 1294.44L244.015 807.221C236.914 793.887 239.057 776.115 249.366 762.846L617.493 288.994C628.35 275.018 645.703 269.308 660.041 274.993Z" stroke="url(#paint60_linear_618_75)" stroke-width="6.03877" style="mix-blend-mode:soft-light"/>
</g>
<g opacity="0.626263">
<path d="M662.292 273.566L1143.18 475.589C1156.64 481.246 1164.22 495.814 1162.12 512.004L1085.03 1105.53C1082.85 1122.32 1070.76 1137.04 1055.2 1141.85L528.084 1304.88C512.518 1309.7 497.088 1303.49 489.995 1289.57L239.307 797.418C232.468 783.993 234.892 766.333 245.363 753.273L619.365 286.843C630.475 272.987 648.008 267.565 662.292 273.566Z" stroke="url(#paint61_linear_618_75)" stroke-width="6.03877" style="mix-blend-mode:soft-light"/>
</g>
<g opacity="0.636364">
<path d="M664.527 272.314L1140.05 483.5C1153.37 489.413 1160.67 504.062 1158.33 520.156L1072.12 1112.08C1069.68 1128.85 1057.34 1143.37 1041.67 1147.91L514.484 1300.6C498.815 1305.14 483.468 1298.64 476.617 1284.56L234.749 787.653C228.173 774.142 230.872 756.597 241.504 743.75L621.233 284.853C632.593 271.125 650.301 265.996 664.527 272.314Z" stroke="url(#paint62_linear_618_75)" stroke-width="6.03877" style="mix-blend-mode:soft-light"/>
</g>
<g opacity="0.646465">
<path d="M666.733 271.236L1136.78 491.474C1149.93 497.64 1156.96 512.364 1154.38 528.36L1059.13 1118.5C1056.42 1135.24 1043.83 1149.56 1028.06 1153.82L500.971 1296.18C485.204 1300.43 469.945 1293.64 463.337 1279.42L230.332 777.929C224.017 764.336 226.988 746.911 237.775 734.278L623.085 283.024C634.693 269.429 652.571 264.6 666.733 271.236Z" stroke="url(#paint63_linear_618_75)" stroke-width="6.03877" style="mix-blend-mode:soft-light"/>
</g>
<g opacity="0.656566">
<path d="M668.918 270.331L1133.35 499.507C1146.36 505.923 1153.11 520.72 1150.29 536.613L1046.05 1124.79C1043.09 1141.5 1030.25 1155.61 1014.39 1159.58L487.558 1291.62C471.699 1295.6 456.533 1288.5 450.169 1274.14L226.067 768.248C220.011 754.578 223.251 737.277 234.19 724.861L624.93 281.355C636.784 267.9 654.828 263.378 668.918 270.331Z" stroke="url(#paint64_linear_618_75)" stroke-width="6.03877" style="mix-blend-mode:soft-light"/>
</g>
<g opacity="0.666667">
<path d="M671.079 269.598L1129.79 507.598C1142.63 514.261 1149.12 529.126 1146.07 544.914L1032.91 1130.95C1029.69 1147.62 1016.6 1161.51 1000.65 1165.2L474.247 1286.93C458.3 1290.62 443.232 1283.23 437.114 1268.73L221.95 758.614C216.154 744.872 219.657 727.697 230.744 715.5L626.765 279.846C638.863 266.537 657.066 262.328 671.079 269.598Z" stroke="url(#paint65_linear_618_75)" stroke-width="6.03877" style="mix-blend-mode:soft-light"/>
</g>
<g opacity="0.676768">
<path d="M673.201 269.04L1126.07 515.744C1138.75 522.651 1144.96 537.581 1141.68 553.26L1019.68 1136.98C1016.2 1153.6 1002.88 1167.28 986.847 1170.67L461.026 1282.12C444.997 1285.51 430.031 1277.83 424.161 1263.19L217.969 749.032C212.43 735.222 216.193 718.177 227.424 706.203L628.577 278.498C640.916 265.342 659.272 261.452 673.201 269.04Z" stroke="url(#paint66_linear_618_75)" stroke-width="6.03877" style="mix-blend-mode:soft-light"/>
</g>
<g opacity="0.686869">
<path d="M675.293 268.652L1122.2 523.94C1134.71 531.088 1140.66 546.079 1137.16 561.647L1006.38 1142.87C1002.65 1159.44 989.088 1172.89 972.98 1176L447.909 1277.17C431.802 1280.27 416.945 1272.3 411.323 1257.53L214.132 739.502C208.851 725.627 212.87 708.716 224.241 696.966L630.373 277.307C642.95 264.311 661.453 260.746 675.293 268.652Z" stroke="url(#paint67_linear_618_75)" stroke-width="6.03877" style="mix-blend-mode:soft-light"/>
</g>
<g opacity="0.69697">
<path d="M677.346 268.433L1118.19 532.184C1130.53 539.57 1136.21 554.618 1132.48 570.072L993.008 1148.62C989.027 1165.14 975.233 1178.36 959.054 1181.17L434.893 1272.1C418.714 1274.9 403.969 1266.63 398.597 1251.74L210.435 730.028C205.409 716.092 209.68 699.318 221.188 687.794L632.146 276.275C644.959 263.445 663.602 260.211 677.346 268.433Z" stroke="url(#paint68_linear_618_75)" stroke-width="6.03877" style="mix-blend-mode:soft-light"/>
</g>
<g opacity="0.707071">
<path d="M679.357 268.389L1114.02 540.477C1126.19 548.098 1131.61 563.2 1127.66 578.538L979.568 1154.24C975.335 1170.7 961.315 1183.68 945.07 1186.19L421.977 1266.91C405.732 1269.41 391.105 1260.85 385.985 1245.84L206.875 720.618C202.103 706.625 206.622 689.99 218.263 678.695L633.895 275.404C646.939 262.747 665.716 259.85 679.357 268.389Z" stroke="url(#paint69_linear_618_75)" stroke-width="6.03877" style="mix-blend-mode:soft-light"/>
</g>
<g opacity="0.717172">
<path d="M681.324 268.508L1109.7 548.807C1121.7 556.659 1126.85 571.813 1122.69 587.032L966.061 1159.72C961.578 1176.11 947.336 1188.85 931.031 1191.06L409.165 1261.59C392.859 1263.79 378.355 1254.93 373.487 1239.8L203.45 711.265C198.931 697.219 203.694 680.726 215.464 669.661L635.617 274.685C648.889 262.208 667.791 259.654 681.324 268.508Z" stroke="url(#paint70_linear_618_75)" stroke-width="6.03877" style="mix-blend-mode:soft-light"/>
</g>
<g opacity="0.727273">
<path d="M683.246 268.799L1105.23 557.18C1117.06 565.261 1121.94 580.462 1117.57 595.56L952.493 1165.06C947.761 1181.38 933.303 1193.88 916.943 1195.77L396.459 1256.15C380.099 1258.05 365.723 1248.9 361.109 1233.66L200.162 701.981C195.895 687.885 200.898 671.537 212.794 660.704L637.312 274.127C650.809 261.836 669.83 259.63 683.246 268.799Z" stroke="url(#paint71_linear_618_75)" stroke-width="6.03877" style="mix-blend-mode:soft-light"/>
</g>
<g opacity="0.737374">
<path d="M685.121 269.254L1100.62 565.588C1112.27 573.895 1116.89 589.141 1112.3 604.115L938.865 1170.26C933.886 1186.51 919.218 1198.75 902.809 1200.33L383.861 1250.6C367.453 1252.18 353.21 1242.75 348.85 1227.4L197.008 692.764C192.991 678.622 198.231 662.421 210.249 651.822L638.978 273.724C652.696 261.626 671.827 259.773 685.121 269.254Z" stroke="url(#paint72_linear_618_75)" stroke-width="6.03877" style="mix-blend-mode:soft-light"/>
</g>
<g opacity="0.747475">
<path d="M686.939 269.876L1095.85 574.029C1107.32 582.559 1111.68 597.846 1106.88 612.696L925.173 1175.31C919.948 1191.49 905.075 1203.46 888.624 1204.74L371.365 1244.93C354.914 1246.2 340.81 1236.48 336.706 1221.03L193.979 683.618C190.212 669.434 195.685 653.382 207.821 643.019L640.605 273.476C654.539 261.578 673.773 260.084 686.939 269.876Z" stroke="url(#paint73_linear_618_75)" stroke-width="6.03877" style="mix-blend-mode:soft-light"/>
</g>
<g opacity="0.757576">
<path d="M688.711 270.658L1090.94 582.497C1102.22 591.246 1106.32 606.573 1101.32 621.295L911.434 1180.22C905.966 1196.31 890.893 1208.02 874.406 1208.99L358.987 1239.14C342.5 1240.1 328.539 1230.09 324.692 1214.54L191.089 674.543C187.57 660.319 193.272 644.418 205.523 634.293L642.207 273.379C656.353 261.687 675.681 260.556 688.711 270.658Z" stroke="url(#paint74_linear_618_75)" stroke-width="6.03877" style="mix-blend-mode:soft-light"/>
</g>
<g opacity="0.767677">
<path d="M690.423 271.606L1085.87 590.995C1096.97 599.96 1100.82 615.324 1095.61 629.917L897.639 1184.98C891.929 1200.99 876.661 1212.43 860.145 1213.08L346.715 1233.24C330.199 1233.89 316.387 1223.59 312.797 1207.95L188.323 665.547C185.05 651.287 190.978 635.539 203.34 625.653L643.768 273.438C658.122 261.96 677.535 261.197 690.423 271.606Z" stroke="url(#paint75_linear_618_75)" stroke-width="6.03877" style="mix-blend-mode:soft-light"/>
</g>
<g opacity="0.777778">
<path d="M692.075 272.714L1080.66 599.516C1091.57 608.694 1095.16 624.092 1089.75 638.554L883.793 1189.6C877.844 1205.52 862.388 1216.69 845.849 1217.02L334.555 1227.24C318.016 1227.57 304.358 1216.99 301.027 1201.25L185.682 656.63C182.655 642.336 188.805 626.744 201.275 617.098L645.291 273.65C659.847 262.39 679.337 262.001 692.075 272.714Z" stroke="url(#paint76_linear_618_75)" stroke-width="6.03877" style="mix-blend-mode:soft-light"/>
</g>
<g opacity="0.787879">
<path d="M693.666 273.983L1075.3 608.059C1086.02 617.447 1089.35 632.876 1083.75 647.206L869.9 1194.08C863.713 1209.9 848.075 1220.79 831.519 1220.8L322.507 1221.13C305.952 1221.14 292.455 1210.27 289.382 1194.46L183.166 647.796C180.383 633.471 186.752 618.036 199.326 608.632L646.773 274.014C661.526 262.981 681.083 262.968 693.666 273.983Z" stroke="url(#paint77_linear_618_75)" stroke-width="6.03877" style="mix-blend-mode:soft-light"/>
</g>
<g opacity="0.79798">
<path d="M695.192 275.408L1069.78 616.617C1080.32 626.212 1083.39 641.671 1077.59 655.867L855.961 1198.4C849.539 1214.12 833.724 1224.73 817.159 1224.41L310.573 1214.91C294.008 1214.6 280.676 1203.45 277.862 1187.56L180.771 639.044C178.231 624.692 184.816 609.414 197.491 600.254L648.211 274.527C663.157 263.726 682.771 264.094 695.192 275.408Z" stroke="url(#paint78_linear_618_75)" stroke-width="6.03877" style="mix-blend-mode:soft-light"/>
</g>
<g opacity="0.808081">
<path d="M696.656 276.991L1064.12 625.191C1074.47 634.991 1077.29 650.476 1071.3 664.537L841.984 1202.58C835.328 1218.2 819.344 1228.51 802.776 1227.88L298.757 1208.59C282.189 1207.96 269.028 1196.53 266.475 1180.56L178.5 630.38C176.201 616.003 182.999 600.885 195.772 591.97L649.608 275.191C664.741 264.629 684.403 265.381 696.656 276.991Z" stroke="url(#paint79_linear_618_75)" stroke-width="6.03877" style="mix-blend-mode:soft-light"/>
</g>
<g opacity="0.818182">
<path d="M698.045 278.727L1058.31 633.775C1068.46 643.775 1071.03 659.286 1064.85 673.209L827.962 1206.6C821.074 1222.11 804.926 1232.13 788.362 1231.17L287.052 1202.17C270.488 1201.21 257.503 1189.51 255.21 1173.47L176.342 621.804C174.283 607.404 181.29 592.447 194.157 583.778L650.953 276.003C666.267 265.685 685.967 266.824 698.045 278.727Z" stroke="url(#paint80_linear_618_75)" stroke-width="6.03877" style="mix-blend-mode:soft-light"/>
</g>
<g opacity="0.828283">
<path d="M699.366 280.617L1052.36 642.367C1062.31 652.566 1064.63 668.099 1058.26 681.884L813.906 1210.48C806.789 1225.88 790.484 1235.6 773.931 1234.31L275.467 1195.65C258.914 1194.37 246.112 1182.39 244.079 1166.28L174.303 613.32C172.483 598.9 179.697 584.106 192.654 575.684L652.253 276.962C667.742 266.895 687.469 268.425 699.366 280.617Z" stroke="url(#paint81_linear_618_75)" stroke-width="6.03877" style="mix-blend-mode:soft-light"/>
</g>
<g opacity="0.838384">
<path d="M700.615 282.658L1046.26 650.966C1056.01 661.36 1058.08 676.914 1051.52 690.559L799.818 1214.21C792.473 1229.49 776.018 1238.91 759.483 1237.3L264.001 1189.04C247.467 1187.43 234.852 1175.17 233.081 1159.01L172.379 604.931C170.797 590.493 178.215 575.862 191.26 567.689L653.504 278.07C669.163 268.259 688.907 270.182 700.615 282.658Z" stroke="url(#paint82_linear_618_75)" stroke-width="6.03877" style="mix-blend-mode:soft-light"/>
</g>
<g opacity="0.848485">
<path d="M701.784 284.849L1040 659.566C1049.56 670.153 1051.38 685.726 1044.63 699.23L785.692 1217.78C778.123 1232.94 761.524 1242.05 745.014 1240.12L252.649 1182.33C236.14 1180.39 223.718 1167.87 222.208 1151.64L170.562 596.638C169.217 582.185 176.835 567.719 189.964 559.795L654.697 279.323C670.519 269.774 690.269 272.092 701.784 284.849Z" stroke="url(#paint83_linear_618_75)" stroke-width="6.03877" style="mix-blend-mode:soft-light"/>
</g>
<g opacity="0.858586">
<path d="M702.88 287.186L1033.61 668.165C1042.97 678.941 1044.54 694.531 1037.61 707.893L771.544 1221.2C763.752 1236.24 747.016 1245.04 730.539 1242.78L241.423 1175.52C224.946 1173.26 212.723 1160.47 211.475 1144.19L168.86 588.443C167.751 573.976 175.567 559.676 188.778 552.003L655.842 280.719C671.82 271.438 691.566 274.153 702.88 287.186Z" stroke="url(#paint84_linear_618_75)" stroke-width="6.03877" style="mix-blend-mode:soft-light"/>
</g>
<g opacity="0.868687">
<path d="M703.891 289.671L1027.07 676.761C1036.22 687.723 1037.54 703.329 1030.43 716.547L757.363 1224.47C749.351 1239.38 732.485 1247.87 716.048 1245.27L230.312 1168.63C213.875 1166.04 201.856 1152.99 200.87 1136.66L167.26 580.35C166.385 565.872 174.397 551.739 187.686 544.318L656.925 282.26C673.053 273.253 692.783 276.366 703.891 289.671Z" stroke="url(#paint85_linear_618_75)" stroke-width="6.03877" style="mix-blend-mode:soft-light"/>
</g>
<g opacity="0.878788">
<path d="M704.822 292.3L1020.38 685.352C1029.33 696.498 1030.4 712.116 1023.12 725.19L743.161 1227.59C734.93 1242.36 717.941 1250.54 701.551 1247.62L219.323 1161.66C202.933 1158.73 191.124 1145.42 190.4 1129.06L165.766 572.362C165.125 557.875 173.329 543.91 186.693 536.741L657.951 283.945C674.223 275.217 693.926 278.729 704.822 292.3Z" stroke="url(#paint86_linear_618_75)" stroke-width="6.03877" style="mix-blend-mode:soft-light"/>
</g>
<g opacity="0.888889">
<path d="M705.669 295.07L1013.55 693.931C1022.3 705.257 1023.12 720.888 1015.66 733.816L728.938 1230.55C720.491 1245.19 703.387 1253.04 687.051 1249.79L208.459 1154.59C192.123 1151.34 180.529 1137.78 180.067 1121.37L164.376 564.477C163.968 549.983 172.363 536.186 185.798 529.271L658.919 285.77C675.326 277.325 694.992 281.237 705.669 295.07Z" stroke="url(#paint87_linear_618_75)" stroke-width="6.03877" style="mix-blend-mode:soft-light"/>
</g>
<g opacity="0.89899">
<path d="M706.429 297.979L1006.58 702.497C1015.11 714.002 1015.69 729.643 1008.06 742.424L714.694 1233.36C706.035 1247.85 688.821 1255.39 672.547 1251.81L197.715 1147.44C181.441 1143.87 170.067 1130.05 169.867 1113.61L163.085 556.699C162.908 542.2 171.491 528.573 184.996 521.913L659.823 287.735C676.359 279.58 695.976 283.891 706.429 297.979Z" stroke="url(#paint88_linear_618_75)" stroke-width="6.03877" style="mix-blend-mode:soft-light"/>
</g>
<g opacity="0.909091">
<path d="M707.102 301.028L999.462 711.05C1007.79 722.73 1008.12 738.379 1000.31 751.012L700.435 1236.02C691.565 1250.37 674.25 1257.58 658.045 1253.67L187.096 1140.22C170.891 1136.31 159.743 1122.25 159.805 1105.78L161.892 549.033C161.946 534.531 170.715 521.074 184.285 514.67L660.664 289.841C677.322 281.979 696.879 286.691 707.102 301.028Z" stroke="url(#paint89_linear_618_75)" stroke-width="6.03877" style="mix-blend-mode:soft-light"/>
</g>
<g opacity="0.919192">
<path d="M707.69 304.209L992.21 719.581C1000.33 731.433 1000.42 747.089 992.432 759.573L686.168 1238.52C677.09 1252.72 659.681 1259.6 643.552 1255.37L176.606 1132.91C160.477 1128.68 149.561 1114.37 149.885 1097.88L160.8 541.474C161.085 526.971 170.038 513.686 183.67 507.538L661.444 292.081C678.217 284.518 697.702 289.628 707.69 304.209Z" stroke="url(#paint90_linear_618_75)" stroke-width="6.03877" style="mix-blend-mode:soft-light"/>
</g>
<g opacity="0.929293">
<path d="M708.179 307.528L984.81 728.094C992.718 740.115 992.559 755.777 984.405 768.111L671.883 1240.87C662.6 1254.91 645.103 1261.46 629.058 1256.91L166.235 1125.53C150.189 1120.98 139.51 1106.42 140.095 1089.91L159.794 534.033C160.308 519.53 169.443 506.417 183.135 500.527L662.15 294.462C679.03 287.201 698.432 292.709 708.179 307.528Z" stroke="url(#paint91_linear_618_75)" stroke-width="6.03877" style="mix-blend-mode:soft-light"/>
</g>
<g opacity="0.939394">
<path d="M708.577 310.977L977.272 736.581C984.967 748.769 984.563 764.434 976.241 776.617L657.591 1243.06C648.105 1256.95 630.528 1263.17 614.573 1258.29L155.99 1118.08C140.035 1113.2 129.597 1098.41 130.444 1081.88L158.88 526.706C159.622 512.205 168.937 499.265 182.686 493.633L662.789 296.977C679.767 290.023 699.075 295.926 708.577 310.977Z" stroke="url(#paint92_linear_618_75)" stroke-width="6.03877" style="mix-blend-mode:soft-light"/>
</g>
<g opacity="0.949495">
<path d="M708.884 314.558L969.6 745.044C977.081 757.396 976.433 773.063 967.942 785.094L643.297 1245.1C633.611 1258.82 615.962 1264.71 600.105 1259.51L145.876 1110.55C130.02 1105.35 119.829 1090.33 120.936 1073.79L158.058 519.498C159.029 505.001 168.522 492.234 182.325 486.862L663.36 299.629C680.43 292.985 699.632 299.283 708.884 314.558Z" stroke="url(#paint93_linear_618_75)" stroke-width="6.03877" style="mix-blend-mode:soft-light"/>
</g>
<g opacity="0.959596">
<path d="M709.094 318.262L961.792 753.473C969.057 765.986 968.164 781.654 959.507 793.532L629.001 1246.98C619.117 1260.54 601.403 1266.1 585.652 1260.58L135.89 1102.96C120.139 1097.44 110.2 1082.19 111.568 1065.65L157.323 512.405C158.521 497.914 168.19 485.321 182.044 480.209L663.86 302.41C681.013 296.08 700.098 302.769 709.094 318.262Z" stroke="url(#paint94_linear_618_75)" stroke-width="6.03877" style="mix-blend-mode:soft-light"/>
</g>
<g opacity="0.969697">
<path d="M709.199 322.094L953.839 761.871C960.888 774.543 959.75 790.211 950.928 801.933L614.696 1248.71C604.618 1262.1 586.846 1267.32 571.207 1261.48L126.023 1095.3C110.385 1089.46 100.703 1073.99 102.331 1057.44L156.664 505.434C158.089 490.95 167.933 478.533 181.834 473.682L664.278 305.325C681.506 299.313 700.463 306.389 709.199 322.094Z" stroke="url(#paint95_linear_618_75)" stroke-width="6.03877" style="mix-blend-mode:soft-light"/>
</g>
<g opacity="0.979798">
<path d="M709.213 326.045L945.76 770.231C952.591 783.059 951.207 798.724 942.221 810.291L600.401 1250.28C590.132 1263.5 572.308 1268.38 556.79 1262.23L116.293 1087.57C100.775 1081.41 91.3538 1065.73 93.242 1049.19L156.093 498.583C157.745 484.108 167.762 471.866 181.708 467.277L664.628 308.367C681.923 302.676 700.741 310.137 709.213 326.045Z" stroke="url(#paint96_linear_618_75)" stroke-width="6.03877" style="mix-blend-mode:soft-light"/>
</g>
<g opacity="0.989899">
<path d="M709.122 330.121L937.543 778.557C944.155 791.538 942.526 807.199 933.377 818.608L586.107 1251.7C575.649 1264.74 557.782 1269.29 542.39 1262.82L106.688 1079.78C91.2962 1073.32 82.1418 1057.42 84.2891 1040.88L155.597 491.859C157.475 477.394 167.663 465.329 181.652 461.003L664.896 311.541C682.25 306.174 700.919 314.017 709.122 330.121Z" stroke="url(#paint97_linear_618_75)" stroke-width="6.03877" style="mix-blend-mode:soft-light"/>
</g>
<path d="M708.927 334.315L929.192 786.841C935.584 799.972 933.71 815.628 924.399 826.88L571.819 1252.97C561.175 1265.83 543.272 1270.04 528.014 1263.26L97.2111 1071.94C81.953 1065.16 73.0696 1049.06 75.4755 1032.54L155.176 485.26C157.28 470.808 167.638 458.92 181.666 454.857L665.084 314.844C682.489 309.803 700.997 318.022 708.927 334.315Z" stroke="url(#paint98_linear_618_75)" stroke-width="6.03877" style="mix-blend-mode:soft-light"/>
</g>
</g>
<defs>
<linearGradient id="paint0_linear_618_75" x1="582.138" y1="673.116" x2="1639.46" y2="997.026" gradientUnits="userSpaceOnUse">
<stop stop-color="#B5E8E4"/>
<stop offset="0.464195" stop-color="#C3EEE8"/>
<stop offset="1" stop-color="#DEF3FD"/>
</linearGradient>
<linearGradient id="paint1_linear_618_75" x1="579.984" y1="662.452" x2="1629.75" y2="1001.5" gradientUnits="userSpaceOnUse">
<stop stop-color="#B5E8E4"/>
<stop offset="0.464195" stop-color="#C3EEE8"/>
<stop offset="1" stop-color="#DEF3FD"/>
</linearGradient>
<linearGradient id="paint2_linear_618_75" x1="577.978" y1="651.876" x2="1620.07" y2="1005.92" gradientUnits="userSpaceOnUse">
<stop stop-color="#B5E8E4"/>
<stop offset="0.464195" stop-color="#C3EEE8"/>
<stop offset="1" stop-color="#DEF3FD"/>
</linearGradient>
<linearGradient id="paint3_linear_618_75" x1="576.122" y1="641.387" x2="1610.41" y2="1010.28" gradientUnits="userSpaceOnUse">
<stop stop-color="#B5E8E4"/>
<stop offset="0.464195" stop-color="#C3EEE8"/>
<stop offset="1" stop-color="#DEF3FD"/>
</linearGradient>
<linearGradient id="paint4_linear_618_75" x1="574.408" y1="630.987" x2="1600.77" y2="1014.6" gradientUnits="userSpaceOnUse">
<stop stop-color="#B5E8E4"/>
<stop offset="0.464195" stop-color="#C3EEE8"/>
<stop offset="1" stop-color="#DEF3FD"/>
</linearGradient>
<linearGradient id="paint5_linear_618_75" x1="572.837" y1="620.68" x2="1591.15" y2="1018.88" gradientUnits="userSpaceOnUse">
<stop stop-color="#B5E8E4"/>
<stop offset="0.464195" stop-color="#C3EEE8"/>
<stop offset="1" stop-color="#DEF3FD"/>
</linearGradient>
<linearGradient id="paint6_linear_618_75" x1="571.411" y1="610.469" x2="1581.55" y2="1023.12" gradientUnits="userSpaceOnUse">
<stop stop-color="#B5E8E4"/>
<stop offset="0.464195" stop-color="#C3EEE8"/>
<stop offset="1" stop-color="#DEF3FD"/>
</linearGradient>
<linearGradient id="paint7_linear_618_75" x1="570.122" y1="600.359" x2="1571.96" y2="1027.34" gradientUnits="userSpaceOnUse">
<stop stop-color="#B5E8E4"/>
<stop offset="0.464195" stop-color="#C3EEE8"/>
<stop offset="1" stop-color="#DEF3FD"/>
</linearGradient>
<linearGradient id="paint8_linear_618_75" x1="568.971" y1="590.349" x2="1562.39" y2="1031.54" gradientUnits="userSpaceOnUse">
<stop stop-color="#B5E8E4"/>
<stop offset="0.464195" stop-color="#C3EEE8"/>
<stop offset="1" stop-color="#DEF3FD"/>
</linearGradient>
<linearGradient id="paint9_linear_618_75" x1="567.951" y1="580.443" x2="1552.82" y2="1035.71" gradientUnits="userSpaceOnUse">
<stop stop-color="#B5E8E4"/>
<stop offset="0.464195" stop-color="#C3EEE8"/>
<stop offset="1" stop-color="#DEF3FD"/>
</linearGradient>
<linearGradient id="paint10_linear_618_75" x1="567.07" y1="570.646" x2="1543.27" y2="1039.88" gradientUnits="userSpaceOnUse">
<stop stop-color="#B5E8E4"/>
<stop offset="0.464195" stop-color="#C3EEE8"/>
<stop offset="1" stop-color="#DEF3FD"/>
</linearGradient>
<linearGradient id="paint11_linear_618_75" x1="566.315" y1="560.955" x2="1533.72" y2="1044.04" gradientUnits="userSpaceOnUse">
<stop stop-color="#B5E8E4"/>
<stop offset="0.464195" stop-color="#C3EEE8"/>
<stop offset="1" stop-color="#DEF3FD"/>
</linearGradient>
<linearGradient id="paint12_linear_618_75" x1="565.69" y1="551.381" x2="1524.18" y2="1048.2" gradientUnits="userSpaceOnUse">
<stop stop-color="#B5E8E4"/>
<stop offset="0.464195" stop-color="#C3EEE8"/>
<stop offset="1" stop-color="#DEF3FD"/>
</linearGradient>
<linearGradient id="paint13_linear_618_75" x1="565.189" y1="541.919" x2="1514.64" y2="1052.36" gradientUnits="userSpaceOnUse">
<stop stop-color="#B5E8E4"/>
<stop offset="0.464195" stop-color="#C3EEE8"/>
<stop offset="1" stop-color="#DEF3FD"/>
</linearGradient>
<linearGradient id="paint14_linear_618_75" x1="564.812" y1="532.575" x2="1505.09" y2="1056.53" gradientUnits="userSpaceOnUse">
<stop stop-color="#B5E8E4"/>
<stop offset="0.464195" stop-color="#C3EEE8"/>
<stop offset="1" stop-color="#DEF3FD"/>
</linearGradient>
<linearGradient id="paint15_linear_618_75" x1="564.555" y1="523.351" x2="1495.53" y2="1060.72" gradientUnits="userSpaceOnUse">
<stop stop-color="#B5E8E4"/>
<stop offset="0.464195" stop-color="#C3EEE8"/>
<stop offset="1" stop-color="#DEF3FD"/>
</linearGradient>
<linearGradient id="paint16_linear_618_75" x1="564.415" y1="514.25" x2="1485.96" y2="1064.92" gradientUnits="userSpaceOnUse">
<stop stop-color="#B5E8E4"/>
<stop offset="0.464195" stop-color="#C3EEE8"/>
<stop offset="1" stop-color="#DEF3FD"/>
</linearGradient>
<linearGradient id="paint17_linear_618_75" x1="564.399" y1="505.273" x2="1476.38" y2="1069.14" gradientUnits="userSpaceOnUse">
<stop stop-color="#B5E8E4"/>
<stop offset="0.464195" stop-color="#C3EEE8"/>
<stop offset="1" stop-color="#DEF3FD"/>
</linearGradient>
<linearGradient id="paint18_linear_618_75" x1="564.489" y1="496.421" x2="1466.77" y2="1073.39" gradientUnits="userSpaceOnUse">
<stop stop-color="#B5E8E4"/>
<stop offset="0.464195" stop-color="#C3EEE8"/>
<stop offset="1" stop-color="#DEF3FD"/>
</linearGradient>
<linearGradient id="paint19_linear_618_75" x1="564.694" y1="487.697" x2="1457.14" y2="1077.66" gradientUnits="userSpaceOnUse">
<stop stop-color="#B5E8E4"/>
<stop offset="0.464195" stop-color="#C3EEE8"/>
<stop offset="1" stop-color="#DEF3FD"/>
</linearGradient>
<linearGradient id="paint20_linear_618_75" x1="565.006" y1="479.108" x2="1447.48" y2="1081.97" gradientUnits="userSpaceOnUse">
<stop stop-color="#B5E8E4"/>
<stop offset="0.464195" stop-color="#C3EEE8"/>
<stop offset="1" stop-color="#DEF3FD"/>
</linearGradient>
<linearGradient id="paint21_linear_618_75" x1="565.423" y1="470.649" x2="1437.79" y2="1086.31" gradientUnits="userSpaceOnUse">
<stop stop-color="#B5E8E4"/>
<stop offset="0.464195" stop-color="#C3EEE8"/>
<stop offset="1" stop-color="#DEF3FD"/>
</linearGradient>
<linearGradient id="paint22_linear_618_75" x1="565.946" y1="462.328" x2="1428.05" y2="1090.69" gradientUnits="userSpaceOnUse">
<stop stop-color="#B5E8E4"/>
<stop offset="0.464195" stop-color="#C3EEE8"/>
<stop offset="1" stop-color="#DEF3FD"/>
</linearGradient>
<linearGradient id="paint23_linear_618_75" x1="566.567" y1="454.144" x2="1418.27" y2="1095.11" gradientUnits="userSpaceOnUse">
<stop stop-color="#B5E8E4"/>
<stop offset="0.464195" stop-color="#C3EEE8"/>
<stop offset="1" stop-color="#DEF3FD"/>
</linearGradient>
<linearGradient id="paint24_linear_618_75" x1="567.288" y1="446.099" x2="1408.44" y2="1099.58" gradientUnits="userSpaceOnUse">
<stop stop-color="#B5E8E4"/>
<stop offset="0.464195" stop-color="#C3EEE8"/>
<stop offset="1" stop-color="#DEF3FD"/>
</linearGradient>
<linearGradient id="paint25_linear_618_75" x1="568.106" y1="438.193" x2="1398.56" y2="1104.08" gradientUnits="userSpaceOnUse">
<stop stop-color="#B5E8E4"/>
<stop offset="0.464195" stop-color="#C3EEE8"/>
<stop offset="1" stop-color="#DEF3FD"/>
</linearGradient>
<linearGradient id="paint26_linear_618_75" x1="569.015" y1="430.434" x2="1388.61" y2="1108.63" gradientUnits="userSpaceOnUse">
<stop stop-color="#B5E8E4"/>
<stop offset="0.464195" stop-color="#C3EEE8"/>
<stop offset="1" stop-color="#DEF3FD"/>
</linearGradient>
<linearGradient id="paint27_linear_618_75" x1="570.01" y1="422.819" x2="1378.58" y2="1113.23" gradientUnits="userSpaceOnUse">
<stop stop-color="#B5E8E4"/>
<stop offset="0.464195" stop-color="#C3EEE8"/>
<stop offset="1" stop-color="#DEF3FD"/>
</linearGradient>
<linearGradient id="paint28_linear_618_75" x1="571.1" y1="415.352" x2="1368.5" y2="1117.88" gradientUnits="userSpaceOnUse">
<stop stop-color="#B5E8E4"/>
<stop offset="0.464195" stop-color="#C3EEE8"/>
<stop offset="1" stop-color="#DEF3FD"/>
</linearGradient>
<linearGradient id="paint29_linear_618_75" x1="572.271" y1="408.031" x2="1358.32" y2="1122.57" gradientUnits="userSpaceOnUse">
<stop stop-color="#B5E8E4"/>
<stop offset="0.464195" stop-color="#C3EEE8"/>
<stop offset="1" stop-color="#DEF3FD"/>
</linearGradient>
<linearGradient id="paint30_linear_618_75" x1="573.523" y1="400.863" x2="1348.06" y2="1127.32" gradientUnits="userSpaceOnUse">
<stop stop-color="#B5E8E4"/>
<stop offset="0.464195" stop-color="#C3EEE8"/>
<stop offset="1" stop-color="#DEF3FD"/>
</linearGradient>
<linearGradient id="paint31_linear_618_75" x1="574.86" y1="393.844" x2="1337.72" y2="1132.11" gradientUnits="userSpaceOnUse">
<stop stop-color="#B5E8E4"/>
<stop offset="0.464195" stop-color="#C3EEE8"/>
<stop offset="1" stop-color="#DEF3FD"/>
</linearGradient>
<linearGradient id="paint32_linear_618_75" x1="576.263" y1="386.981" x2="1327.26" y2="1136.95" gradientUnits="userSpaceOnUse">
<stop stop-color="#B5E8E4"/>
<stop offset="0.464195" stop-color="#C3EEE8"/>
<stop offset="1" stop-color="#DEF3FD"/>
</linearGradient>
<linearGradient id="paint33_linear_618_75" x1="577.747" y1="380.271" x2="1316.71" y2="1141.84" gradientUnits="userSpaceOnUse">
<stop stop-color="#B5E8E4"/>
<stop offset="0.464195" stop-color="#C3EEE8"/>
<stop offset="1" stop-color="#DEF3FD"/>
</linearGradient>
<linearGradient id="paint34_linear_618_75" x1="579.303" y1="373.72" x2="1306.04" y2="1146.78" gradientUnits="userSpaceOnUse">
<stop stop-color="#B5E8E4"/>
<stop offset="0.464195" stop-color="#C3EEE8"/>
<stop offset="1" stop-color="#DEF3FD"/>
</linearGradient>
<linearGradient id="paint35_linear_618_75" x1="580.921" y1="367.324" x2="1295.25" y2="1151.76" gradientUnits="userSpaceOnUse">
<stop stop-color="#B5E8E4"/>
<stop offset="0.464195" stop-color="#C3EEE8"/>
<stop offset="1" stop-color="#DEF3FD"/>
</linearGradient>
<linearGradient id="paint36_linear_618_75" x1="582.609" y1="361.091" x2="1284.34" y2="1156.79" gradientUnits="userSpaceOnUse">
<stop stop-color="#B5E8E4"/>
<stop offset="0.464195" stop-color="#C3EEE8"/>
<stop offset="1" stop-color="#DEF3FD"/>
</linearGradient>
<linearGradient id="paint37_linear_618_75" x1="584.361" y1="355.015" x2="1273.3" y2="1161.86" gradientUnits="userSpaceOnUse">
<stop stop-color="#B5E8E4"/>
<stop offset="0.464195" stop-color="#C3EEE8"/>
<stop offset="1" stop-color="#DEF3FD"/>
</linearGradient>
<linearGradient id="paint38_linear_618_75" x1="586.166" y1="349.102" x2="1262.12" y2="1166.96" gradientUnits="userSpaceOnUse">
<stop stop-color="#B5E8E4"/>
<stop offset="0.464195" stop-color="#C3EEE8"/>
<stop offset="1" stop-color="#DEF3FD"/>
</linearGradient>
<linearGradient id="paint39_linear_618_75" x1="588.034" y1="343.35" x2="1250.8" y2="1172.11" gradientUnits="userSpaceOnUse">
<stop stop-color="#B5E8E4"/>
<stop offset="0.464195" stop-color="#C3EEE8"/>
<stop offset="1" stop-color="#DEF3FD"/>
</linearGradient>
<linearGradient id="paint40_linear_618_75" x1="589.956" y1="337.766" x2="1239.33" y2="1177.28" gradientUnits="userSpaceOnUse">
<stop stop-color="#B5E8E4"/>
<stop offset="0.464195" stop-color="#C3EEE8"/>
<stop offset="1" stop-color="#DEF3FD"/>
</linearGradient>
<linearGradient id="paint41_linear_618_75" x1="591.929" y1="332.345" x2="1227.7" y2="1182.49" gradientUnits="userSpaceOnUse">
<stop stop-color="#B5E8E4"/>
<stop offset="0.464195" stop-color="#C3EEE8"/>
<stop offset="1" stop-color="#DEF3FD"/>
</linearGradient>
<linearGradient id="paint42_linear_618_75" x1="593.944" y1="327.088" x2="1215.9" y2="1187.72" gradientUnits="userSpaceOnUse">
<stop stop-color="#B5E8E4"/>
<stop offset="0.464195" stop-color="#C3EEE8"/>
<stop offset="1" stop-color="#DEF3FD"/>
</linearGradient>
<linearGradient id="paint43_linear_618_75" x1="596.007" y1="322" x2="1203.94" y2="1192.97" gradientUnits="userSpaceOnUse">
<stop stop-color="#B5E8E4"/>
<stop offset="0.464195" stop-color="#C3EEE8"/>
<stop offset="1" stop-color="#DEF3FD"/>
</linearGradient>
<linearGradient id="paint44_linear_618_75" x1="598.111" y1="317.082" x2="1191.81" y2="1198.24" gradientUnits="userSpaceOnUse">
<stop stop-color="#B5E8E4"/>
<stop offset="0.464195" stop-color="#C3EEE8"/>
<stop offset="1" stop-color="#DEF3FD"/>
</linearGradient>
<linearGradient id="paint45_linear_618_75" x1="600.255" y1="312.33" x2="1179.49" y2="1203.51" gradientUnits="userSpaceOnUse">
<stop stop-color="#B5E8E4"/>
<stop offset="0.464195" stop-color="#C3EEE8"/>
<stop offset="1" stop-color="#DEF3FD"/>
</linearGradient>
<linearGradient id="paint46_linear_618_75" x1="602.435" y1="307.746" x2="1166.98" y2="1208.79" gradientUnits="userSpaceOnUse">
<stop stop-color="#B5E8E4"/>
<stop offset="0.464195" stop-color="#C3EEE8"/>
<stop offset="1" stop-color="#DEF3FD"/>
</linearGradient>
<linearGradient id="paint47_linear_618_75" x1="604.65" y1="303.334" x2="1154.29" y2="1214.07" gradientUnits="userSpaceOnUse">
<stop stop-color="#B5E8E4"/>
<stop offset="0.464195" stop-color="#C3EEE8"/>
<stop offset="1" stop-color="#DEF3FD"/>
</linearGradient>
<linearGradient id="paint48_linear_618_75" x1="606.9" y1="299.092" x2="1141.4" y2="1219.34" gradientUnits="userSpaceOnUse">
<stop stop-color="#B5E8E4"/>
<stop offset="0.464195" stop-color="#C3EEE8"/>
<stop offset="1" stop-color="#DEF3FD"/>
</linearGradient>
<linearGradient id="paint49_linear_618_75" x1="609.17" y1="295.022" x2="1128.31" y2="1224.59" gradientUnits="userSpaceOnUse">
<stop stop-color="#B5E8E4"/>
<stop offset="0.464195" stop-color="#C3EEE8"/>
<stop offset="1" stop-color="#DEF3FD"/>
</linearGradient>
<linearGradient id="paint50_linear_618_75" x1="611.466" y1="291.124" x2="1115.01" y2="1229.82" gradientUnits="userSpaceOnUse">
<stop stop-color="#B5E8E4"/>
<stop offset="0.464195" stop-color="#C3EEE8"/>
<stop offset="1" stop-color="#DEF3FD"/>
</linearGradient>
<linearGradient id="paint51_linear_618_75" x1="613.785" y1="287.397" x2="1101.5" y2="1235.02" gradientUnits="userSpaceOnUse">
<stop stop-color="#B5E8E4"/>
<stop offset="0.464195" stop-color="#C3EEE8"/>
<stop offset="1" stop-color="#DEF3FD"/>
</linearGradient>
<linearGradient id="paint52_linear_618_75" x1="616.122" y1="283.846" x2="1087.77" y2="1240.18" gradientUnits="userSpaceOnUse">
<stop stop-color="#B5E8E4"/>
<stop offset="0.464195" stop-color="#C3EEE8"/>
<stop offset="1" stop-color="#DEF3FD"/>
</linearGradient>
<linearGradient id="paint53_linear_618_75" x1="618.479" y1="280.464" x2="1073.83" y2="1245.29" gradientUnits="userSpaceOnUse">
<stop stop-color="#B5E8E4"/>
<stop offset="0.464195" stop-color="#C3EEE8"/>
<stop offset="1" stop-color="#DEF3FD"/>
</linearGradient>
<linearGradient id="paint54_linear_618_75" x1="620.843" y1="277.258" x2="1059.67" y2="1250.35" gradientUnits="userSpaceOnUse">
<stop stop-color="#B5E8E4"/>
<stop offset="0.464195" stop-color="#C3EEE8"/>
<stop offset="1" stop-color="#DEF3FD"/>
</linearGradient>
<linearGradient id="paint55_linear_618_75" x1="623.225" y1="274.226" x2="1045.28" y2="1255.34" gradientUnits="userSpaceOnUse">
<stop stop-color="#B5E8E4"/>
<stop offset="0.464195" stop-color="#C3EEE8"/>
<stop offset="1" stop-color="#DEF3FD"/>
</linearGradient>
<linearGradient id="paint56_linear_618_75" x1="625.607" y1="271.366" x2="1030.67" y2="1260.25" gradientUnits="userSpaceOnUse">
<stop stop-color="#B5E8E4"/>
<stop offset="0.464195" stop-color="#C3EEE8"/>
<stop offset="1" stop-color="#DEF3FD"/>
</linearGradient>
<linearGradient id="paint57_linear_618_75" x1="627.995" y1="268.681" x2="1015.82" y2="1265.08" gradientUnits="userSpaceOnUse">
<stop stop-color="#B5E8E4"/>
<stop offset="0.464195" stop-color="#C3EEE8"/>
<stop offset="1" stop-color="#DEF3FD"/>
</linearGradient>
<linearGradient id="paint58_linear_618_75" x1="630.388" y1="266.17" x2="1000.75" y2="1269.82" gradientUnits="userSpaceOnUse">
<stop stop-color="#B5E8E4"/>
<stop offset="0.464195" stop-color="#C3EEE8"/>
<stop offset="1" stop-color="#DEF3FD"/>
</linearGradient>
<linearGradient id="paint59_linear_618_75" x1="632.78" y1="263.835" x2="985.45" y2="1274.44" gradientUnits="userSpaceOnUse">
<stop stop-color="#B5E8E4"/>
<stop offset="0.464195" stop-color="#C3EEE8"/>
<stop offset="1" stop-color="#DEF3FD"/>
</linearGradient>
<linearGradient id="paint60_linear_618_75" x1="635.17" y1="261.671" x2="969.918" y2="1278.95" gradientUnits="userSpaceOnUse">
<stop stop-color="#B5E8E4"/>
<stop offset="0.464195" stop-color="#C3EEE8"/>
<stop offset="1" stop-color="#DEF3FD"/>
</linearGradient>
<linearGradient id="paint61_linear_618_75" x1="637.547" y1="259.683" x2="954.15" y2="1283.34" gradientUnits="userSpaceOnUse">
<stop stop-color="#B5E8E4"/>
<stop offset="0.464195" stop-color="#C3EEE8"/>
<stop offset="1" stop-color="#DEF3FD"/>
</linearGradient>
<linearGradient id="paint62_linear_618_75" x1="639.918" y1="257.869" x2="938.155" y2="1287.58" gradientUnits="userSpaceOnUse">
<stop stop-color="#B5E8E4"/>
<stop offset="0.464195" stop-color="#C3EEE8"/>
<stop offset="1" stop-color="#DEF3FD"/>
</linearGradient>
<linearGradient id="paint63_linear_618_75" x1="642.271" y1="256.227" x2="921.926" y2="1291.67" gradientUnits="userSpaceOnUse">
<stop stop-color="#B5E8E4"/>
<stop offset="0.464195" stop-color="#C3EEE8"/>
<stop offset="1" stop-color="#DEF3FD"/>
</linearGradient>
<linearGradient id="paint64_linear_618_75" x1="644.614" y1="254.759" x2="905.475" y2="1295.6" gradientUnits="userSpaceOnUse">
<stop stop-color="#B5E8E4"/>
<stop offset="0.464195" stop-color="#C3EEE8"/>
<stop offset="1" stop-color="#DEF3FD"/>
</linearGradient>
<linearGradient id="paint65_linear_618_75" x1="646.944" y1="253.463" x2="888.804" y2="1299.35" gradientUnits="userSpaceOnUse">
<stop stop-color="#B5E8E4"/>
<stop offset="0.464195" stop-color="#C3EEE8"/>
<stop offset="1" stop-color="#DEF3FD"/>
</linearGradient>
<linearGradient id="paint66_linear_618_75" x1="649.246" y1="252.341" x2="871.906" y2="1302.92" gradientUnits="userSpaceOnUse">
<stop stop-color="#B5E8E4"/>
<stop offset="0.464195" stop-color="#C3EEE8"/>
<stop offset="1" stop-color="#DEF3FD"/>
</linearGradient>
<linearGradient id="paint67_linear_618_75" x1="651.528" y1="251.389" x2="854.794" y2="1306.29" gradientUnits="userSpaceOnUse">
<stop stop-color="#B5E8E4"/>
<stop offset="0.464195" stop-color="#C3EEE8"/>
<stop offset="1" stop-color="#DEF3FD"/>
</linearGradient>
<linearGradient id="paint68_linear_618_75" x1="653.784" y1="250.609" x2="837.471" y2="1309.45" gradientUnits="userSpaceOnUse">
<stop stop-color="#B5E8E4"/>
<stop offset="0.464195" stop-color="#C3EEE8"/>
<stop offset="1" stop-color="#DEF3FD"/>
</linearGradient>
<linearGradient id="paint69_linear_618_75" x1="656.009" y1="250.004" x2="819.939" y2="1312.39" gradientUnits="userSpaceOnUse">
<stop stop-color="#B5E8E4"/>
<stop offset="0.464195" stop-color="#C3EEE8"/>
<stop offset="1" stop-color="#DEF3FD"/>
</linearGradient>
<linearGradient id="paint70_linear_618_75" x1="658.202" y1="249.564" x2="802.206" y2="1315.1" gradientUnits="userSpaceOnUse">
<stop stop-color="#B5E8E4"/>
<stop offset="0.464195" stop-color="#C3EEE8"/>
<stop offset="1" stop-color="#DEF3FD"/>
</linearGradient>
<linearGradient id="paint71_linear_618_75" x1="660.362" y1="249.298" x2="784.282" y2="1317.56" gradientUnits="userSpaceOnUse">
<stop stop-color="#B5E8E4"/>
<stop offset="0.464195" stop-color="#C3EEE8"/>
<stop offset="1" stop-color="#DEF3FD"/>
</linearGradient>
<linearGradient id="paint72_linear_618_75" x1="662.487" y1="249.201" x2="766.174" y2="1319.77" gradientUnits="userSpaceOnUse">
<stop stop-color="#B5E8E4"/>
<stop offset="0.464195" stop-color="#C3EEE8"/>
<stop offset="1" stop-color="#DEF3FD"/>
</linearGradient>
<linearGradient id="paint73_linear_618_75" x1="664.566" y1="249.272" x2="747.882" y2="1321.71" gradientUnits="userSpaceOnUse">
<stop stop-color="#B5E8E4"/>
<stop offset="0.464195" stop-color="#C3EEE8"/>
<stop offset="1" stop-color="#DEF3FD"/>
</linearGradient>
<linearGradient id="paint74_linear_618_75" x1="666.612" y1="249.507" x2="729.432" y2="1323.37" gradientUnits="userSpaceOnUse">
<stop stop-color="#B5E8E4"/>
<stop offset="0.464195" stop-color="#C3EEE8"/>
<stop offset="1" stop-color="#DEF3FD"/>
</linearGradient>
<linearGradient id="paint75_linear_618_75" x1="668.61" y1="249.913" x2="710.82" y2="1324.75" gradientUnits="userSpaceOnUse">
<stop stop-color="#B5E8E4"/>
<stop offset="0.464195" stop-color="#C3EEE8"/>
<stop offset="1" stop-color="#DEF3FD"/>
</linearGradient>
<linearGradient id="paint76_linear_618_75" x1="670.56" y1="250.483" x2="692.06" y2="1325.82" gradientUnits="userSpaceOnUse">
<stop stop-color="#B5E8E4"/>
<stop offset="0.464195" stop-color="#C3EEE8"/>
<stop offset="1" stop-color="#DEF3FD"/>
</linearGradient>
<linearGradient id="paint77_linear_618_75" x1="672.461" y1="251.22" x2="673.165" y2="1326.59" gradientUnits="userSpaceOnUse">
<stop stop-color="#B5E8E4"/>
<stop offset="0.464195" stop-color="#C3EEE8"/>
<stop offset="1" stop-color="#DEF3FD"/>
</linearGradient>
<linearGradient id="paint78_linear_618_75" x1="674.31" y1="252.118" x2="654.146" y2="1327.05" gradientUnits="userSpaceOnUse">
<stop stop-color="#B5E8E4"/>
<stop offset="0.464195" stop-color="#C3EEE8"/>
<stop offset="1" stop-color="#DEF3FD"/>
</linearGradient>
<linearGradient id="paint79_linear_618_75" x1="676.108" y1="253.181" x2="635.019" y2="1327.17" gradientUnits="userSpaceOnUse">
<stop stop-color="#B5E8E4"/>
<stop offset="0.464195" stop-color="#C3EEE8"/>
<stop offset="1" stop-color="#DEF3FD"/>
</linearGradient>
<linearGradient id="paint80_linear_618_75" x1="677.843" y1="254.403" x2="615.789" y2="1326.97" gradientUnits="userSpaceOnUse">
<stop stop-color="#B5E8E4"/>
<stop offset="0.464195" stop-color="#C3EEE8"/>
<stop offset="1" stop-color="#DEF3FD"/>
</linearGradient>
<linearGradient id="paint81_linear_618_75" x1="679.522" y1="255.787" x2="596.478" y2="1326.42" gradientUnits="userSpaceOnUse">
<stop stop-color="#B5E8E4"/>
<stop offset="0.464195" stop-color="#C3EEE8"/>
<stop offset="1" stop-color="#DEF3FD"/>
</linearGradient>
<linearGradient id="paint82_linear_618_75" x1="681.142" y1="257.33" x2="577.1" y2="1325.53" gradientUnits="userSpaceOnUse">
<stop stop-color="#B5E8E4"/>
<stop offset="0.464195" stop-color="#C3EEE8"/>
<stop offset="1" stop-color="#DEF3FD"/>
</linearGradient>
<linearGradient id="paint83_linear_618_75" x1="682.692" y1="259.031" x2="557.661" y2="1324.28" gradientUnits="userSpaceOnUse">
<stop stop-color="#B5E8E4"/>
<stop offset="0.464195" stop-color="#C3EEE8"/>
<stop offset="1" stop-color="#DEF3FD"/>
</linearGradient>
<linearGradient id="paint84_linear_618_75" x1="684.182" y1="260.888" x2="538.19" y2="1322.68" gradientUnits="userSpaceOnUse">
<stop stop-color="#B5E8E4"/>
<stop offset="0.464195" stop-color="#C3EEE8"/>
<stop offset="1" stop-color="#DEF3FD"/>
</linearGradient>
<linearGradient id="paint85_linear_618_75" x1="685.598" y1="262.901" x2="518.69" y2="1320.71" gradientUnits="userSpaceOnUse">
<stop stop-color="#B5E8E4"/>
<stop offset="0.464195" stop-color="#C3EEE8"/>
<stop offset="1" stop-color="#DEF3FD"/>
</linearGradient>
<linearGradient id="paint86_linear_618_75" x1="686.944" y1="265.069" x2="499.184" y2="1318.38" gradientUnits="userSpaceOnUse">
<stop stop-color="#B5E8E4"/>
<stop offset="0.464195" stop-color="#C3EEE8"/>
<stop offset="1" stop-color="#DEF3FD"/>
</linearGradient>
<linearGradient id="paint87_linear_618_75" x1="688.219" y1="267.388" x2="479.689" y2="1315.68" gradientUnits="userSpaceOnUse">
<stop stop-color="#B5E8E4"/>
<stop offset="0.464195" stop-color="#C3EEE8"/>
<stop offset="1" stop-color="#DEF3FD"/>
</linearGradient>
<linearGradient id="paint88_linear_618_75" x1="689.416" y1="269.859" x2="460.218" y2="1312.62" gradientUnits="userSpaceOnUse">
<stop stop-color="#B5E8E4"/>
<stop offset="0.464195" stop-color="#C3EEE8"/>
<stop offset="1" stop-color="#DEF3FD"/>
</linearGradient>
<linearGradient id="paint89_linear_618_75" x1="690.536" y1="272.48" x2="440.791" y2="1309.18" gradientUnits="userSpaceOnUse">
<stop stop-color="#B5E8E4"/>
<stop offset="0.464195" stop-color="#C3EEE8"/>
<stop offset="1" stop-color="#DEF3FD"/>
</linearGradient>
<linearGradient id="paint90_linear_618_75" x1="691.583" y1="275.245" x2="421.429" y2="1305.37" gradientUnits="userSpaceOnUse">
<stop stop-color="#B5E8E4"/>
<stop offset="0.464195" stop-color="#C3EEE8"/>
<stop offset="1" stop-color="#DEF3FD"/>
</linearGradient>
<linearGradient id="paint91_linear_618_75" x1="692.54" y1="278.161" x2="402.137" y2="1301.2" gradientUnits="userSpaceOnUse">
<stop stop-color="#B5E8E4"/>
<stop offset="0.464195" stop-color="#C3EEE8"/>
<stop offset="1" stop-color="#DEF3FD"/>
</linearGradient>
<linearGradient id="paint92_linear_618_75" x1="693.414" y1="281.22" x2="382.941" y2="1296.65" gradientUnits="userSpaceOnUse">
<stop stop-color="#B5E8E4"/>
<stop offset="0.464195" stop-color="#C3EEE8"/>
<stop offset="1" stop-color="#DEF3FD"/>
</linearGradient>
<linearGradient id="paint93_linear_618_75" x1="694.208" y1="284.424" x2="363.86" y2="1291.75" gradientUnits="userSpaceOnUse">
<stop stop-color="#B5E8E4"/>
<stop offset="0.464195" stop-color="#C3EEE8"/>
<stop offset="1" stop-color="#DEF3FD"/>
</linearGradient>
<linearGradient id="paint94_linear_618_75" x1="694.913" y1="287.765" x2="344.909" y2="1286.49" gradientUnits="userSpaceOnUse">
<stop stop-color="#B5E8E4"/>
<stop offset="0.464195" stop-color="#C3EEE8"/>
<stop offset="1" stop-color="#DEF3FD"/>
</linearGradient>
<linearGradient id="paint95_linear_618_75" x1="695.522" y1="291.248" x2="326.094" y2="1280.87" gradientUnits="userSpaceOnUse">
<stop stop-color="#B5E8E4"/>
<stop offset="0.464195" stop-color="#C3EEE8"/>
<stop offset="1" stop-color="#DEF3FD"/>
</linearGradient>
<linearGradient id="paint96_linear_618_75" x1="696.047" y1="294.866" x2="307.449" y2="1274.91" gradientUnits="userSpaceOnUse">
<stop stop-color="#B5E8E4"/>
<stop offset="0.464195" stop-color="#C3EEE8"/>
<stop offset="1" stop-color="#DEF3FD"/>
</linearGradient>
<linearGradient id="paint97_linear_618_75" x1="696.474" y1="298.622" x2="288.977" y2="1268.61" gradientUnits="userSpaceOnUse">
<stop stop-color="#B5E8E4"/>
<stop offset="0.464195" stop-color="#C3EEE8"/>
<stop offset="1" stop-color="#DEF3FD"/>
</linearGradient>
<linearGradient id="paint98_linear_618_75" x1="696.806" y1="302.513" x2="270.697" y2="1261.98" gradientUnits="userSpaceOnUse">
<stop stop-color="#B5E8E4"/>
<stop offset="0.464195" stop-color="#C3EEE8"/>
<stop offset="1" stop-color="#DEF3FD"/>
</linearGradient>
<clipPath id="clip0_618_75">
<rect width="1440" height="1024" fill="white"/>
</clipPath>
</defs>
</svg>
