<svg width="40" height="40" viewBox="0 0 40 40" fill="none" xmlns="http://www.w3.org/2000/svg">
<rect width="40" height="40" rx="20" fill="white"/>
<path d="M25.6328 25.4984H23.2621V21.8223C23.2621 20.9457 23.2463 19.8173 22.0291 19.8173C20.7943 19.8173 20.6054 20.7724 20.6054 21.7585V25.4981H18.2347V17.9387H20.5106V18.9717H20.5424C20.7702 18.5861 21.0993 18.2689 21.4947 18.0539C21.8902 17.8389 22.3371 17.7341 22.7879 17.7506C25.1907 17.7506 25.6338 19.3155 25.6338 21.3514L25.6328 25.4984ZM15.5598 16.9053C15.2877 16.9054 15.0216 16.8255 14.7954 16.6759C14.5691 16.5263 14.3928 16.3135 14.2886 16.0647C14.1844 15.8158 14.1571 15.5419 14.2101 15.2776C14.2632 15.0134 14.3942 14.7706 14.5865 14.5801C14.7789 14.3895 15.024 14.2598 15.2909 14.2072C15.5577 14.1546 15.8343 14.1815 16.0858 14.2845C16.3372 14.3876 16.552 14.5622 16.7033 14.7861C16.8545 15.0101 16.9352 15.2735 16.9353 15.5429C16.9353 15.7218 16.8997 15.8989 16.8306 16.0642C16.7615 16.2295 16.6602 16.3797 16.5325 16.5062C16.4048 16.6327 16.2531 16.7331 16.0862 16.8015C15.9193 16.87 15.7404 16.9053 15.5598 16.9053ZM16.7451 25.4984H14.3719V17.9387H16.7451V25.4984ZM26.8147 12.0011H13.1807C12.8712 11.9976 12.573 12.116 12.3516 12.3301C12.1302 12.5442 12.0038 12.8366 12 13.143V26.6987C12.0036 27.0052 12.13 27.2978 12.3514 27.5122C12.5728 27.7265 12.8711 27.8451 13.1807 27.8418H26.8147C27.1249 27.8456 27.424 27.7274 27.6462 27.5131C27.8685 27.2988 27.9957 27.0058 28 26.6987V13.142C27.9956 12.835 27.8683 12.5423 27.646 12.3282C27.4237 12.114 27.1247 11.9961 26.8147 12.0001" fill="#0A66C2"/>
</svg>
