<svg width="175" height="163" viewBox="0 0 175 163" fill="none" xmlns="http://www.w3.org/2000/svg">
<path fill-rule="evenodd" clip-rule="evenodd" d="M113.241 109.332V128.215C113.241 134.88 107.803 140.301 101.138 140.301H46.4589L25.9036 161.699C25.6528 161.959 25.3299 162.139 24.9761 162.215C24.6224 162.291 24.2541 162.259 23.9185 162.124C23.5829 161.989 23.2954 161.757 23.0928 161.457C22.8903 161.157 22.7819 160.804 22.7818 160.442V140.301H12.5455C5.88004 140.301 0.441406 134.88 0.441406 128.215V67.5847C0.441406 60.9192 5.88004 55.4806 12.5455 55.4806H65.2632C65.6307 62.7584 67.349 69.6799 70.173 75.9993H24.0267C22.4252 75.9993 21.1248 77.2997 21.1248 78.9012C21.1248 80.5031 22.4252 81.8032 24.0267 81.8032H73.174C76.1277 86.7947 79.8153 91.3136 84.1129 95.2084H24.0267C22.4252 95.2084 21.1248 96.5089 21.1248 98.1104C21.1248 99.7119 22.4252 101.012 24.0267 101.012H88.5939C89.3154 101.013 90.011 100.744 90.5444 100.259C97.2403 104.789 104.941 107.948 113.241 109.332ZM24.0267 120.203H88.5939C90.1954 120.203 91.4959 118.903 91.4959 117.301C91.4959 115.7 90.1954 114.399 88.5939 114.399H24.0267C22.4252 114.399 21.1248 115.7 21.1248 117.301C21.1248 118.903 22.4252 120.203 24.0267 120.203ZM122.776 0.74707C151.374 0.74707 174.559 23.9316 174.559 52.53C174.559 64.1643 170.726 74.8911 164.253 83.5328L170.586 107.181C170.668 107.489 170.668 107.812 170.586 108.12C170.504 108.427 170.342 108.708 170.117 108.933C169.892 109.158 169.611 109.32 169.304 109.402C168.996 109.485 168.673 109.485 168.365 109.403L139.303 101.623C134.108 103.355 128.56 104.313 122.776 104.313C94.1777 104.313 70.9928 81.1285 70.9928 52.53C70.9928 23.9316 94.1777 0.74707 122.776 0.74707ZM115.18 38.8168C115.18 36.7165 116.021 34.8204 117.406 33.4467C118.779 32.0614 120.675 31.2213 122.776 31.2213C123.776 31.2184 124.766 31.4136 125.69 31.7955C126.613 32.1775 127.452 32.7387 128.158 33.4467C128.864 34.151 129.425 34.988 129.807 35.9096C130.188 36.8312 130.384 37.8192 130.383 38.8168C130.383 40.3157 129.952 41.7122 129.202 42.8817C128.427 44.1093 127.321 45.0931 126.012 45.7198C123.389 46.9463 121.289 48.8083 119.835 51.1015C118.382 53.4064 117.576 56.1085 117.576 58.9811V61.5471C117.576 64.4194 119.904 66.7471 122.776 66.7471C125.648 66.7471 127.976 64.4194 127.976 61.5471V58.9811C127.976 58.1069 128.203 57.3121 128.612 56.665C129.02 56.0066 129.645 55.4614 130.428 55.0983C133.539 53.6335 136.162 51.3174 137.978 48.4448C139.75 45.6633 140.772 42.3594 140.772 38.8168C140.772 33.8439 138.762 29.3481 135.503 26.0895C132.245 22.831 127.749 20.8214 122.776 20.8214C117.803 20.8214 113.307 22.831 110.048 26.0895C106.79 29.3481 104.78 33.8439 104.78 38.8168C104.78 41.6894 107.108 44.0171 109.98 44.0171C112.853 44.0171 115.18 41.6894 115.18 38.8168ZM122.776 73.8772C119.904 73.8772 117.576 76.2046 117.576 79.0659C117.576 81.9381 119.904 84.2659 122.776 84.2659C125.648 84.2659 127.976 81.9381 127.976 79.0659C127.976 76.2046 125.648 73.8772 122.776 73.8772Z" fill="url(#paint0_linear_1221_27116)"/>
<defs>
<linearGradient id="paint0_linear_1221_27116" x1="87.5002" y1="0.74707" x2="87.5002" y2="162.255" gradientUnits="userSpaceOnUse">
<stop stop-color="#53BAC2"/>
<stop offset="1" stop-color="#00B4BE"/>
</linearGradient>
</defs>
</svg>
