<svg width="23" height="22" viewBox="0 0 23 22" fill="none" xmlns="http://www.w3.org/2000/svg">
<g clip-path="url(#clip0_183_12792)">
<path d="M28 0H-5V22H28V0Z" fill="#B22234"/>
<path d="M-5 2.53845H28.0322H-5ZM28.0322 5.92307H-5H28.0322ZM-5 9.30768H28.0322H-5ZM28.0322 12.6923H-5H28.0322ZM-5 16.0769H28.0322H-5ZM28.0322 19.4615H-5H28.0322Z" fill="black"/>
<path d="M-5 2.53845H28.0322M28.0322 5.92307H-5M-5 9.30768H28.0322M28.0322 12.6923H-5M-5 16.0769H28.0322M28.0322 19.4615H-5" stroke="white" stroke-width="2"/>
<path d="M11.72 0H-5V11.9401H11.72V0Z" fill="#3C3B6E"/>
<path d="M0.57348 1.69263L0.971365 2.91719L-0.0703125 2.16037H1.21727L0.175594 2.91719L0.57348 1.69263Z" fill="white"/>
<path d="M0.57348 4.06189L0.971365 5.28646L-0.0703125 4.52963H1.21727L0.175594 5.28646L0.57348 4.06189Z" fill="white"/>
<path d="M0.57348 6.43103L0.971365 7.6556L-0.0703125 6.89877H1.21727L0.175594 7.6556L0.57348 6.43103Z" fill="white"/>
<path d="M0.57348 8.80029L0.971365 10.0249L-0.0703125 9.26804H1.21727L0.175594 10.0249L0.57348 8.80029Z" fill="white"/>
<path d="M1.96606 0.508179L2.36394 1.73274L1.32227 0.975921H2.60985L1.56817 1.73274L1.96606 0.508179Z" fill="white"/>
<path d="M1.96606 2.87744L2.36394 4.10201L1.32227 3.34518H2.60985L1.56817 4.10201L1.96606 2.87744Z" fill="white"/>
<path d="M1.96606 5.24658L2.36394 6.47115L1.32227 5.71432H2.60985L1.56817 6.47115L1.96606 5.24658Z" fill="white"/>
<path d="M1.96606 7.61584L2.36394 8.84041L1.32227 8.08359H2.60985L1.56817 8.84041L1.96606 7.61584Z" fill="white"/>
<path d="M1.96606 9.98486L2.36394 11.2094L1.32227 10.4526H2.60985L1.56817 11.2094L1.96606 9.98486Z" fill="white"/>
<path d="M3.35864 1.6925L3.75652 2.91707L2.71484 2.16025H4.00243L2.96075 2.91707L3.35864 1.6925Z" fill="white"/>
<path d="M3.35864 4.06177L3.75652 5.28633L2.71484 4.52951H4.00243L2.96075 5.28633L3.35864 4.06177Z" fill="white"/>
<path d="M3.35864 6.43091L3.75652 7.65547L2.71484 6.89865H4.00243L2.96075 7.65547L3.35864 6.43091Z" fill="white"/>
<path d="M3.35864 8.80017L3.75652 10.0247L2.71484 9.26791H4.00243L2.96075 10.0247L3.35864 8.80017Z" fill="white"/>
<path d="M4.75317 0.508057L5.15105 1.73262L4.10938 0.975799H5.39696L4.35528 1.73262L4.75317 0.508057Z" fill="white"/>
<path d="M4.75317 2.87732L5.15105 4.10189L4.10938 3.34506H5.39696L4.35528 4.10189L4.75317 2.87732Z" fill="white"/>
<path d="M4.75317 5.24646L5.15105 6.47103L4.10938 5.7142H5.39696L4.35528 6.47103L4.75317 5.24646Z" fill="white"/>
<path d="M4.75317 7.61572L5.15105 8.84029L4.10938 8.08347H5.39696L4.35528 8.84029L4.75317 7.61572Z" fill="white"/>
<path d="M4.75317 9.98486L5.15105 11.2094L4.10938 10.4526H5.39696L4.35528 11.2094L4.75317 9.98486Z" fill="white"/>
<path d="M6.14575 1.69263L6.54363 2.91719L5.50195 2.16037H6.78954L5.74786 2.91719L6.14575 1.69263Z" fill="white"/>
<path d="M6.14575 4.06189L6.54363 5.28646L5.50195 4.52963H6.78954L5.74786 5.28646L6.14575 4.06189Z" fill="white"/>
<path d="M6.14575 6.43115L6.54363 7.65572L5.50195 6.89889H6.78954L5.74786 7.65572L6.14575 6.43115Z" fill="white"/>
<path d="M6.14575 8.80042L6.54363 10.025L5.50195 9.26816H6.78954L5.74786 10.025L6.14575 8.80042Z" fill="white"/>
<path d="M7.53832 0.507812L7.93621 1.73238L6.89453 0.975555H8.18212L7.14044 1.73238L7.53832 0.507812Z" fill="white"/>
<path d="M7.53832 2.8772L7.93621 4.10176L6.89453 3.34494H8.18212L7.14044 4.10176L7.53832 2.8772Z" fill="white"/>
<path d="M7.53832 5.24634L7.93621 6.4709L6.89453 5.71408H8.18212L7.14044 6.4709L7.53832 5.24634Z" fill="white"/>
<path d="M7.53832 7.6156L7.93621 8.84017L6.89453 8.08334H8.18212L7.14044 8.84017L7.53832 7.6156Z" fill="white"/>
<path d="M7.53832 9.98486L7.93621 11.2094L6.89453 10.4526H8.18212L7.14044 11.2094L7.53832 9.98486Z" fill="white"/>
<path d="M8.93285 1.69263L9.33074 2.91719L8.28906 2.16037H9.57665L8.53497 2.91719L8.93285 1.69263Z" fill="white"/>
<path d="M8.93285 4.06189L9.33074 5.28646L8.28906 4.52963H9.57665L8.53497 5.28646L8.93285 4.06189Z" fill="white"/>
<path d="M8.93285 6.43115L9.33074 7.65572L8.28906 6.89889H9.57665L8.53497 7.65572L8.93285 6.43115Z" fill="white"/>
<path d="M8.93285 8.80042L9.33074 10.025L8.28906 9.26816H9.57665L8.53497 10.025L8.93285 8.80042Z" fill="white"/>
<path d="M10.3274 0.507812L10.7253 1.73238L9.68359 0.975555H10.9712L9.9295 1.73238L10.3274 0.507812Z" fill="white"/>
<path d="M10.3274 2.87708L10.7253 4.10164L9.68359 3.34482H10.9712L9.9295 4.10164L10.3274 2.87708Z" fill="white"/>
<path d="M10.3274 5.24622L10.7253 6.47078L9.68359 5.71396H10.9712L9.9295 6.47078L10.3274 5.24622Z" fill="white"/>
<path d="M10.3274 7.61548L10.7253 8.84004L9.68359 8.08322H10.9712L9.9295 8.84004L10.3274 7.61548Z" fill="white"/>
<path d="M10.3274 9.98474L10.7253 11.2093L9.68359 10.4525H10.9712L9.9295 11.2093L10.3274 9.98474Z" fill="white"/>
</g>
<defs>
<clipPath id="clip0_183_12792">
<rect x="0.5" width="22" height="22" rx="11" fill="white"/>
</clipPath>
</defs>
</svg>
