<svg width="40" height="40" viewBox="0 0 40 40" fill="none" xmlns="http://www.w3.org/2000/svg">
<rect width="40" height="40" rx="20" fill="white"/>
<rect width="40" height="40" rx="20" fill="url(#paint0_linear_1041_21301)"/>
<g clip-path="url(#clip0_1041_21301)">
<path fill-rule="evenodd" clip-rule="evenodd" d="M25.7843 14.2657C24.3038 12.7852 22.3336 11.9678 20.2353 11.9678C15.9107 11.9678 12.3959 15.4863 12.3922 19.8072C12.3922 21.1897 12.7538 22.5383 13.4394 23.725L12.3281 27.7897L16.487 26.701C17.6322 27.3263 18.9206 27.6541 20.2353 27.6541H20.2391C24.56 27.6541 28.0785 24.1356 28.0822 19.8147C28.0822 17.7164 27.2648 15.7462 25.7843 14.2657ZM20.2391 26.328C19.0675 26.328 17.9185 26.0116 16.9202 25.4202L16.6829 25.2808L14.2155 25.9287L14.8747 23.5253L14.7202 23.2804C14.0685 22.2445 13.722 21.0428 13.722 19.8109C13.722 16.2171 16.649 13.2938 20.2429 13.2938C21.9833 13.2938 23.622 13.9719 24.85 15.2037C26.0819 16.4356 26.76 18.0743 26.7562 19.8147C26.7524 23.4048 23.8292 26.328 20.2391 26.328ZM23.8141 21.4496C23.6182 21.3517 22.6538 20.877 22.4768 20.813C22.2959 20.7489 22.1679 20.715 22.036 20.9109C21.9042 21.1068 21.5312 21.5476 21.4144 21.6794C21.3014 21.8113 21.1846 21.8263 20.9887 21.7284C20.7929 21.6304 20.16 21.4233 19.4141 20.7565C18.8302 20.2366 18.4384 19.5962 18.3254 19.4003C18.2124 19.2044 18.3141 19.0989 18.412 19.001C18.4987 18.9143 18.6079 18.7712 18.7059 18.6582C18.8038 18.5452 18.8377 18.4623 18.9018 18.3304C18.9658 18.1986 18.9357 18.0856 18.8867 17.9876C18.8377 17.8897 18.4459 16.9253 18.2839 16.5335C18.1257 16.153 17.9637 16.202 17.8432 16.1983C17.7302 16.1907 17.5983 16.1907 17.4665 16.1907C17.3346 16.1907 17.1237 16.2397 16.9429 16.4356C16.762 16.6315 16.2572 17.1061 16.2572 18.0705C16.2572 19.0349 16.9579 19.9654 17.0559 20.0972C17.1538 20.2291 18.4384 22.2068 20.4048 23.0544C20.872 23.2578 21.2374 23.3784 21.5237 23.4688C21.9946 23.6195 22.4202 23.5969 22.7593 23.5479C23.136 23.4914 23.9196 23.0733 24.0816 22.6174C24.2435 22.1616 24.2435 21.7661 24.1946 21.687C24.1381 21.5965 24.01 21.5476 23.8141 21.4496Z" fill="white"/>
</g>
<defs>
<linearGradient id="paint0_linear_1041_21301" x1="20.0015" y1="40.0031" x2="20.0015" y2="0" gradientUnits="userSpaceOnUse">
<stop stop-color="#25CF43"/>
<stop offset="1" stop-color="#61FD7D"/>
</linearGradient>
<clipPath id="clip0_1041_21301">
<rect width="22" height="22" fill="white" transform="translate(9 9)"/>
</clipPath>
</defs>
</svg>
