<svg width="150" height="127" viewBox="0 0 150 127" fill="none" xmlns="http://www.w3.org/2000/svg">
<path d="M76.8977 13.4678H76.1023C47.327 13.4678 24 36.9728 24 65.9678C24 94.9627 47.327 118.468 76.1023 118.468H76.8977C105.673 118.468 129 94.9627 129 65.9678C129 36.9728 105.673 13.4678 76.8977 13.4678Z" fill="#FEFBF5"/>
<g clip-path="url(#clip0_1531_7913)">
<path d="M100.334 78.0751L82.3936 45.0692C81.0257 42.8093 78.647 41.4414 76.0005 41.4414C73.354 41.4414 70.9752 42.8093 69.6073 45.0692C69.6073 45.0987 69.5778 45.0987 69.5778 45.1286L51.697 78.0157C50.3293 80.3648 50.2996 83.16 51.6376 85.5091C52.9756 87.858 55.384 89.2558 58.09 89.2558H93.9109C96.6169 89.2558 99.0254 87.8581 100.363 85.5091C101.702 83.1599 101.672 80.3647 100.334 78.0751Z" fill="#FFA200"/>
<path d="M58.0916 86.2822C56.4452 86.2822 55.0369 85.4633 54.2238 84.0377C53.4107 82.6105 53.4252 80.9596 54.2702 79.5106L72.0157 46.8745L72.5674 46.3098L72.5703 46.0237C73.4239 45.0058 74.661 44.415 76.0026 44.415C77.5822 44.415 79.0226 45.2353 79.8531 46.6089L97.7208 79.4903C98.5804 80.9626 98.5832 82.6309 97.7818 84.0377C96.9687 85.4635 95.5604 86.2822 93.914 86.2822H58.0916Z" fill="#F7C56E"/>
<path d="M100.363 85.5088C99.0249 87.8577 96.6165 89.2555 93.9105 89.2555H76V41.4414C78.6464 41.4414 81.0252 42.8093 82.3932 45.0692L100.333 78.075C101.671 80.3646 101.701 83.1598 100.363 85.5088Z" fill="#C57D00"/>
<path d="M93.9113 86.2824C95.5577 86.2824 96.966 85.4635 97.7791 84.0379C98.5806 82.6311 98.5777 80.9628 97.7181 79.4905L79.8505 46.6089C79.02 45.2354 77.5797 44.415 76 44.415V86.2823L93.9113 86.2824Z" fill="#F5B546"/>
<path d="M78.9743 56.5467V68.4408C78.9743 70.0763 77.6362 71.4143 76.0008 71.4143C74.3654 71.4143 73.0273 70.0762 73.0273 68.4408V56.5467C73.0273 54.9112 74.3654 53.5732 76.0008 53.5732C77.6362 53.5732 78.9743 54.9112 78.9743 56.5467Z" fill="#495A79"/>
<path d="M78.9735 56.5467V68.4408C78.9735 70.0763 77.6354 71.4143 76 71.4143V53.5732C77.6353 53.5732 78.9735 54.9112 78.9735 56.5467Z" fill="#42516D"/>
<path d="M75.9994 74.3877C73.5312 74.3877 71.5391 76.3798 71.5391 78.848C71.5391 81.316 73.5312 83.3083 75.9994 83.3083C78.4675 83.3083 80.4597 81.316 80.4597 78.848C80.4597 76.3799 78.4674 74.3877 75.9994 74.3877Z" fill="#495A79"/>
<path d="M80.4603 78.8479C80.4603 81.3159 78.4682 83.3082 76 83.3082V74.3877C78.4681 74.3876 80.4603 76.3798 80.4603 78.8479Z" fill="#42516D"/>
</g>
<defs>
<clipPath id="clip0_1531_7913">
<rect width="50.7" height="50.7" fill="white" transform="translate(50.6484 39.999)"/>
</clipPath>
</defs>
</svg>
